G04 #@! TF.GenerationSoftware,KiCad,Pcbnew,5.1.9+dfsg1-1+deb11u1*
G04 #@! TF.CreationDate,2023-03-16T17:17:06+02:00*
G04 #@! TF.ProjectId,power_meter,706f7765-725f-46d6-9574-65722e6b6963,rev?*
G04 #@! TF.SameCoordinates,Original*
G04 #@! TF.FileFunction,Paste,Top*
G04 #@! TF.FilePolarity,Positive*
%FSLAX46Y46*%
G04 Gerber Fmt 4.6, Leading zero omitted, Abs format (unit mm)*
G04 Created by KiCad (PCBNEW 5.1.9+dfsg1-1+deb11u1) date 2023-03-16 17:17:06*
%MOMM*%
%LPD*%
G01*
G04 APERTURE LIST*
%ADD10R,1.550000X0.600000*%
%ADD11R,1.270000X3.600000*%
%ADD12R,1.350000X4.200000*%
%ADD13R,0.700000X0.510000*%
G04 APERTURE END LIST*
G36*
G01*
X103048750Y-83635000D02*
X103961250Y-83635000D01*
G75*
G02*
X104205000Y-83878750I0J-243750D01*
G01*
X104205000Y-84366250D01*
G75*
G02*
X103961250Y-84610000I-243750J0D01*
G01*
X103048750Y-84610000D01*
G75*
G02*
X102805000Y-84366250I0J243750D01*
G01*
X102805000Y-83878750D01*
G75*
G02*
X103048750Y-83635000I243750J0D01*
G01*
G37*
G36*
G01*
X103048750Y-81760000D02*
X103961250Y-81760000D01*
G75*
G02*
X104205000Y-82003750I0J-243750D01*
G01*
X104205000Y-82491250D01*
G75*
G02*
X103961250Y-82735000I-243750J0D01*
G01*
X103048750Y-82735000D01*
G75*
G02*
X102805000Y-82491250I0J243750D01*
G01*
X102805000Y-82003750D01*
G75*
G02*
X103048750Y-81760000I243750J0D01*
G01*
G37*
G36*
G01*
X128091250Y-84640000D02*
X127178750Y-84640000D01*
G75*
G02*
X126935000Y-84396250I0J243750D01*
G01*
X126935000Y-83908750D01*
G75*
G02*
X127178750Y-83665000I243750J0D01*
G01*
X128091250Y-83665000D01*
G75*
G02*
X128335000Y-83908750I0J-243750D01*
G01*
X128335000Y-84396250D01*
G75*
G02*
X128091250Y-84640000I-243750J0D01*
G01*
G37*
G36*
G01*
X128091250Y-86515000D02*
X127178750Y-86515000D01*
G75*
G02*
X126935000Y-86271250I0J243750D01*
G01*
X126935000Y-85783750D01*
G75*
G02*
X127178750Y-85540000I243750J0D01*
G01*
X128091250Y-85540000D01*
G75*
G02*
X128335000Y-85783750I0J-243750D01*
G01*
X128335000Y-86271250D01*
G75*
G02*
X128091250Y-86515000I-243750J0D01*
G01*
G37*
G36*
G01*
X105588750Y-87777500D02*
X106501250Y-87777500D01*
G75*
G02*
X106745000Y-88021250I0J-243750D01*
G01*
X106745000Y-88508750D01*
G75*
G02*
X106501250Y-88752500I-243750J0D01*
G01*
X105588750Y-88752500D01*
G75*
G02*
X105345000Y-88508750I0J243750D01*
G01*
X105345000Y-88021250D01*
G75*
G02*
X105588750Y-87777500I243750J0D01*
G01*
G37*
G36*
G01*
X105588750Y-85902500D02*
X106501250Y-85902500D01*
G75*
G02*
X106745000Y-86146250I0J-243750D01*
G01*
X106745000Y-86633750D01*
G75*
G02*
X106501250Y-86877500I-243750J0D01*
G01*
X105588750Y-86877500D01*
G75*
G02*
X105345000Y-86633750I0J243750D01*
G01*
X105345000Y-86146250D01*
G75*
G02*
X105588750Y-85902500I243750J0D01*
G01*
G37*
G36*
G01*
X126520000Y-87808750D02*
X126520000Y-88721250D01*
G75*
G02*
X126276250Y-88965000I-243750J0D01*
G01*
X125788750Y-88965000D01*
G75*
G02*
X125545000Y-88721250I0J243750D01*
G01*
X125545000Y-87808750D01*
G75*
G02*
X125788750Y-87565000I243750J0D01*
G01*
X126276250Y-87565000D01*
G75*
G02*
X126520000Y-87808750I0J-243750D01*
G01*
G37*
G36*
G01*
X124645000Y-87808750D02*
X124645000Y-88721250D01*
G75*
G02*
X124401250Y-88965000I-243750J0D01*
G01*
X123913750Y-88965000D01*
G75*
G02*
X123670000Y-88721250I0J243750D01*
G01*
X123670000Y-87808750D01*
G75*
G02*
X123913750Y-87565000I243750J0D01*
G01*
X124401250Y-87565000D01*
G75*
G02*
X124645000Y-87808750I0J-243750D01*
G01*
G37*
G36*
G01*
X130988750Y-93825000D02*
X131901250Y-93825000D01*
G75*
G02*
X132145000Y-94068750I0J-243750D01*
G01*
X132145000Y-94556250D01*
G75*
G02*
X131901250Y-94800000I-243750J0D01*
G01*
X130988750Y-94800000D01*
G75*
G02*
X130745000Y-94556250I0J243750D01*
G01*
X130745000Y-94068750D01*
G75*
G02*
X130988750Y-93825000I243750J0D01*
G01*
G37*
G36*
G01*
X130988750Y-95700000D02*
X131901250Y-95700000D01*
G75*
G02*
X132145000Y-95943750I0J-243750D01*
G01*
X132145000Y-96431250D01*
G75*
G02*
X131901250Y-96675000I-243750J0D01*
G01*
X130988750Y-96675000D01*
G75*
G02*
X130745000Y-96431250I0J243750D01*
G01*
X130745000Y-95943750D01*
G75*
G02*
X130988750Y-95700000I243750J0D01*
G01*
G37*
G36*
G01*
X130625000Y-93166250D02*
X130625000Y-92253750D01*
G75*
G02*
X130868750Y-92010000I243750J0D01*
G01*
X131356250Y-92010000D01*
G75*
G02*
X131600000Y-92253750I0J-243750D01*
G01*
X131600000Y-93166250D01*
G75*
G02*
X131356250Y-93410000I-243750J0D01*
G01*
X130868750Y-93410000D01*
G75*
G02*
X130625000Y-93166250I0J243750D01*
G01*
G37*
G36*
G01*
X128750000Y-93166250D02*
X128750000Y-92253750D01*
G75*
G02*
X128993750Y-92010000I243750J0D01*
G01*
X129481250Y-92010000D01*
G75*
G02*
X129725000Y-92253750I0J-243750D01*
G01*
X129725000Y-93166250D01*
G75*
G02*
X129481250Y-93410000I-243750J0D01*
G01*
X128993750Y-93410000D01*
G75*
G02*
X128750000Y-93166250I0J243750D01*
G01*
G37*
G36*
G01*
X99238750Y-85570000D02*
X100151250Y-85570000D01*
G75*
G02*
X100395000Y-85813750I0J-243750D01*
G01*
X100395000Y-86301250D01*
G75*
G02*
X100151250Y-86545000I-243750J0D01*
G01*
X99238750Y-86545000D01*
G75*
G02*
X98995000Y-86301250I0J243750D01*
G01*
X98995000Y-85813750D01*
G75*
G02*
X99238750Y-85570000I243750J0D01*
G01*
G37*
G36*
G01*
X99238750Y-87445000D02*
X100151250Y-87445000D01*
G75*
G02*
X100395000Y-87688750I0J-243750D01*
G01*
X100395000Y-88176250D01*
G75*
G02*
X100151250Y-88420000I-243750J0D01*
G01*
X99238750Y-88420000D01*
G75*
G02*
X98995000Y-88176250I0J243750D01*
G01*
X98995000Y-87688750D01*
G75*
G02*
X99238750Y-87445000I243750J0D01*
G01*
G37*
G36*
G01*
X102087500Y-89713750D02*
X102087500Y-90626250D01*
G75*
G02*
X101843750Y-90870000I-243750J0D01*
G01*
X101356250Y-90870000D01*
G75*
G02*
X101112500Y-90626250I0J243750D01*
G01*
X101112500Y-89713750D01*
G75*
G02*
X101356250Y-89470000I243750J0D01*
G01*
X101843750Y-89470000D01*
G75*
G02*
X102087500Y-89713750I0J-243750D01*
G01*
G37*
G36*
G01*
X100212500Y-89713750D02*
X100212500Y-90626250D01*
G75*
G02*
X99968750Y-90870000I-243750J0D01*
G01*
X99481250Y-90870000D01*
G75*
G02*
X99237500Y-90626250I0J243750D01*
G01*
X99237500Y-89713750D01*
G75*
G02*
X99481250Y-89470000I243750J0D01*
G01*
X99968750Y-89470000D01*
G75*
G02*
X100212500Y-89713750I0J-243750D01*
G01*
G37*
G36*
G01*
X120828750Y-86205000D02*
X121741250Y-86205000D01*
G75*
G02*
X121985000Y-86448750I0J-243750D01*
G01*
X121985000Y-86936250D01*
G75*
G02*
X121741250Y-87180000I-243750J0D01*
G01*
X120828750Y-87180000D01*
G75*
G02*
X120585000Y-86936250I0J243750D01*
G01*
X120585000Y-86448750D01*
G75*
G02*
X120828750Y-86205000I243750J0D01*
G01*
G37*
G36*
G01*
X120828750Y-88080000D02*
X121741250Y-88080000D01*
G75*
G02*
X121985000Y-88323750I0J-243750D01*
G01*
X121985000Y-88811250D01*
G75*
G02*
X121741250Y-89055000I-243750J0D01*
G01*
X120828750Y-89055000D01*
G75*
G02*
X120585000Y-88811250I0J243750D01*
G01*
X120585000Y-88323750D01*
G75*
G02*
X120828750Y-88080000I243750J0D01*
G01*
G37*
G36*
G01*
X123005000Y-98246250D02*
X123005000Y-97333750D01*
G75*
G02*
X123248750Y-97090000I243750J0D01*
G01*
X123736250Y-97090000D01*
G75*
G02*
X123980000Y-97333750I0J-243750D01*
G01*
X123980000Y-98246250D01*
G75*
G02*
X123736250Y-98490000I-243750J0D01*
G01*
X123248750Y-98490000D01*
G75*
G02*
X123005000Y-98246250I0J243750D01*
G01*
G37*
G36*
G01*
X121130000Y-98246250D02*
X121130000Y-97333750D01*
G75*
G02*
X121373750Y-97090000I243750J0D01*
G01*
X121861250Y-97090000D01*
G75*
G02*
X122105000Y-97333750I0J-243750D01*
G01*
X122105000Y-98246250D01*
G75*
G02*
X121861250Y-98490000I-243750J0D01*
G01*
X121373750Y-98490000D01*
G75*
G02*
X121130000Y-98246250I0J243750D01*
G01*
G37*
G36*
G01*
X123670000Y-86816250D02*
X123670000Y-85903750D01*
G75*
G02*
X123913750Y-85660000I243750J0D01*
G01*
X124401250Y-85660000D01*
G75*
G02*
X124645000Y-85903750I0J-243750D01*
G01*
X124645000Y-86816250D01*
G75*
G02*
X124401250Y-87060000I-243750J0D01*
G01*
X123913750Y-87060000D01*
G75*
G02*
X123670000Y-86816250I0J243750D01*
G01*
G37*
G36*
G01*
X125545000Y-86816250D02*
X125545000Y-85903750D01*
G75*
G02*
X125788750Y-85660000I243750J0D01*
G01*
X126276250Y-85660000D01*
G75*
G02*
X126520000Y-85903750I0J-243750D01*
G01*
X126520000Y-86816250D01*
G75*
G02*
X126276250Y-87060000I-243750J0D01*
G01*
X125788750Y-87060000D01*
G75*
G02*
X125545000Y-86816250I0J243750D01*
G01*
G37*
G36*
G01*
X128122500Y-82093750D02*
X128122500Y-83006250D01*
G75*
G02*
X127878750Y-83250000I-243750J0D01*
G01*
X127391250Y-83250000D01*
G75*
G02*
X127147500Y-83006250I0J243750D01*
G01*
X127147500Y-82093750D01*
G75*
G02*
X127391250Y-81850000I243750J0D01*
G01*
X127878750Y-81850000D01*
G75*
G02*
X128122500Y-82093750I0J-243750D01*
G01*
G37*
G36*
G01*
X126247500Y-82093750D02*
X126247500Y-83006250D01*
G75*
G02*
X126003750Y-83250000I-243750J0D01*
G01*
X125516250Y-83250000D01*
G75*
G02*
X125272500Y-83006250I0J243750D01*
G01*
X125272500Y-82093750D01*
G75*
G02*
X125516250Y-81850000I243750J0D01*
G01*
X126003750Y-81850000D01*
G75*
G02*
X126247500Y-82093750I0J-243750D01*
G01*
G37*
G36*
G01*
X129996250Y-86515000D02*
X129083750Y-86515000D01*
G75*
G02*
X128840000Y-86271250I0J243750D01*
G01*
X128840000Y-85783750D01*
G75*
G02*
X129083750Y-85540000I243750J0D01*
G01*
X129996250Y-85540000D01*
G75*
G02*
X130240000Y-85783750I0J-243750D01*
G01*
X130240000Y-86271250D01*
G75*
G02*
X129996250Y-86515000I-243750J0D01*
G01*
G37*
G36*
G01*
X129996250Y-84640000D02*
X129083750Y-84640000D01*
G75*
G02*
X128840000Y-84396250I0J243750D01*
G01*
X128840000Y-83908750D01*
G75*
G02*
X129083750Y-83665000I243750J0D01*
G01*
X129996250Y-83665000D01*
G75*
G02*
X130240000Y-83908750I0J-243750D01*
G01*
X130240000Y-84396250D01*
G75*
G02*
X129996250Y-84640000I-243750J0D01*
G01*
G37*
G36*
G01*
X129996250Y-94800000D02*
X129083750Y-94800000D01*
G75*
G02*
X128840000Y-94556250I0J243750D01*
G01*
X128840000Y-94068750D01*
G75*
G02*
X129083750Y-93825000I243750J0D01*
G01*
X129996250Y-93825000D01*
G75*
G02*
X130240000Y-94068750I0J-243750D01*
G01*
X130240000Y-94556250D01*
G75*
G02*
X129996250Y-94800000I-243750J0D01*
G01*
G37*
G36*
G01*
X129996250Y-96675000D02*
X129083750Y-96675000D01*
G75*
G02*
X128840000Y-96431250I0J243750D01*
G01*
X128840000Y-95943750D01*
G75*
G02*
X129083750Y-95700000I243750J0D01*
G01*
X129996250Y-95700000D01*
G75*
G02*
X130240000Y-95943750I0J-243750D01*
G01*
X130240000Y-96431250D01*
G75*
G02*
X129996250Y-96675000I-243750J0D01*
G01*
G37*
G36*
G01*
X104922500Y-90626250D02*
X104922500Y-89713750D01*
G75*
G02*
X105166250Y-89470000I243750J0D01*
G01*
X105653750Y-89470000D01*
G75*
G02*
X105897500Y-89713750I0J-243750D01*
G01*
X105897500Y-90626250D01*
G75*
G02*
X105653750Y-90870000I-243750J0D01*
G01*
X105166250Y-90870000D01*
G75*
G02*
X104922500Y-90626250I0J243750D01*
G01*
G37*
G36*
G01*
X103047500Y-90626250D02*
X103047500Y-89713750D01*
G75*
G02*
X103291250Y-89470000I243750J0D01*
G01*
X103778750Y-89470000D01*
G75*
G02*
X104022500Y-89713750I0J-243750D01*
G01*
X104022500Y-90626250D01*
G75*
G02*
X103778750Y-90870000I-243750J0D01*
G01*
X103291250Y-90870000D01*
G75*
G02*
X103047500Y-90626250I0J243750D01*
G01*
G37*
D10*
X121600000Y-90170000D03*
X121600000Y-91440000D03*
X121600000Y-92710000D03*
X121600000Y-93980000D03*
X127000000Y-93980000D03*
X127000000Y-92710000D03*
X127000000Y-91440000D03*
X127000000Y-90170000D03*
D11*
X127635000Y-78540000D03*
D12*
X124810000Y-78740000D03*
X130460000Y-78740000D03*
X106457000Y-78740000D03*
X100807000Y-78740000D03*
D11*
X103632000Y-78540000D03*
D13*
X101695000Y-85810000D03*
X101695000Y-86760000D03*
X101695000Y-87710000D03*
X104015000Y-87710000D03*
X104015000Y-86760000D03*
X104015000Y-85810000D03*
G36*
G01*
X121130000Y-96341250D02*
X121130000Y-95428750D01*
G75*
G02*
X121373750Y-95185000I243750J0D01*
G01*
X121861250Y-95185000D01*
G75*
G02*
X122105000Y-95428750I0J-243750D01*
G01*
X122105000Y-96341250D01*
G75*
G02*
X121861250Y-96585000I-243750J0D01*
G01*
X121373750Y-96585000D01*
G75*
G02*
X121130000Y-96341250I0J243750D01*
G01*
G37*
G36*
G01*
X123005000Y-96341250D02*
X123005000Y-95428750D01*
G75*
G02*
X123248750Y-95185000I243750J0D01*
G01*
X123736250Y-95185000D01*
G75*
G02*
X123980000Y-95428750I0J-243750D01*
G01*
X123980000Y-96341250D01*
G75*
G02*
X123736250Y-96585000I-243750J0D01*
G01*
X123248750Y-96585000D01*
G75*
G02*
X123005000Y-96341250I0J243750D01*
G01*
G37*
M02*
