G04 #@! TF.GenerationSoftware,KiCad,Pcbnew,5.1.9+dfsg1-1+deb11u1*
G04 #@! TF.CreationDate,2023-03-16T17:17:06+02:00*
G04 #@! TF.ProjectId,power_meter,706f7765-725f-46d6-9574-65722e6b6963,rev?*
G04 #@! TF.SameCoordinates,Original*
G04 #@! TF.FileFunction,Legend,Top*
G04 #@! TF.FilePolarity,Positive*
%FSLAX46Y46*%
G04 Gerber Fmt 4.6, Leading zero omitted, Abs format (unit mm)*
G04 Created by KiCad (PCBNEW 5.1.9+dfsg1-1+deb11u1) date 2023-03-16 17:17:06*
%MOMM*%
%LPD*%
G01*
G04 APERTURE LIST*
%ADD10C,0.120000*%
%ADD11C,0.150000*%
G04 APERTURE END LIST*
D10*
X95120000Y-100200000D02*
X95120000Y-118240000D01*
X138560000Y-100200000D02*
X95120000Y-100200000D01*
X138560000Y-118240000D02*
X138560000Y-100200000D01*
X135890000Y-115570000D02*
X135890000Y-118240000D01*
X100330000Y-115570000D02*
X135890000Y-115570000D01*
X100330000Y-115570000D02*
X100330000Y-118240000D01*
X135890000Y-102870000D02*
X135890000Y-100200000D01*
X97790000Y-102870000D02*
X135890000Y-102870000D01*
X97790000Y-102870000D02*
X97790000Y-100200000D01*
X95120000Y-118240000D02*
X97790000Y-118240000D01*
X100330000Y-118240000D02*
X138560000Y-118240000D01*
X97790000Y-115570000D02*
X97790000Y-118240000D01*
X100330000Y-115570000D02*
X97790000Y-115570000D01*
X104215000Y-82926422D02*
X104215000Y-83443578D01*
X102795000Y-82926422D02*
X102795000Y-83443578D01*
X126925000Y-85348578D02*
X126925000Y-84831422D01*
X128345000Y-85348578D02*
X128345000Y-84831422D01*
X106755000Y-87068922D02*
X106755000Y-87586078D01*
X105335000Y-87068922D02*
X105335000Y-87586078D01*
X125353578Y-87555000D02*
X124836422Y-87555000D01*
X125353578Y-88975000D02*
X124836422Y-88975000D01*
X130735000Y-94991422D02*
X130735000Y-95508578D01*
X132155000Y-94991422D02*
X132155000Y-95508578D01*
X129916422Y-92000000D02*
X130433578Y-92000000D01*
X129916422Y-93420000D02*
X130433578Y-93420000D01*
X98985000Y-86736422D02*
X98985000Y-87253578D01*
X100405000Y-86736422D02*
X100405000Y-87253578D01*
X100921078Y-89460000D02*
X100403922Y-89460000D01*
X100921078Y-90880000D02*
X100403922Y-90880000D01*
X120575000Y-87371422D02*
X120575000Y-87888578D01*
X121995000Y-87371422D02*
X121995000Y-87888578D01*
X122296422Y-97080000D02*
X122813578Y-97080000D01*
X122296422Y-98500000D02*
X122813578Y-98500000D01*
X124836422Y-87070000D02*
X125353578Y-87070000D01*
X124836422Y-85650000D02*
X125353578Y-85650000D01*
X126956078Y-81840000D02*
X126438922Y-81840000D01*
X126956078Y-83260000D02*
X126438922Y-83260000D01*
X130250000Y-85348578D02*
X130250000Y-84831422D01*
X128830000Y-85348578D02*
X128830000Y-84831422D01*
X128830000Y-95508578D02*
X128830000Y-94991422D01*
X130250000Y-95508578D02*
X130250000Y-94991422D01*
X104213922Y-89460000D02*
X104731078Y-89460000D01*
X104213922Y-90880000D02*
X104731078Y-90880000D01*
D11*
X122225000Y-89550000D02*
X120825000Y-89550000D01*
X122225000Y-94650000D02*
X126375000Y-94650000D01*
X122225000Y-89500000D02*
X126375000Y-89500000D01*
X122225000Y-94650000D02*
X122225000Y-94505000D01*
X126375000Y-94650000D02*
X126375000Y-94505000D01*
X126375000Y-89500000D02*
X126375000Y-89645000D01*
X122225000Y-89500000D02*
X122225000Y-89550000D01*
D10*
X102930000Y-95825000D02*
X102930000Y-97155000D01*
X101600000Y-95825000D02*
X102930000Y-95825000D01*
X100330000Y-95825000D02*
X100330000Y-98485000D01*
X100330000Y-98485000D02*
X97730000Y-98485000D01*
X100330000Y-95825000D02*
X97730000Y-95825000D01*
X97730000Y-95825000D02*
X97730000Y-98485000D01*
X107890000Y-98485000D02*
X107890000Y-97155000D01*
X109220000Y-98485000D02*
X107890000Y-98485000D01*
X110490000Y-98485000D02*
X110490000Y-95825000D01*
X110490000Y-95825000D02*
X118170000Y-95825000D01*
X110490000Y-98485000D02*
X118170000Y-98485000D01*
X118170000Y-98485000D02*
X118170000Y-95825000D01*
X127885000Y-81500000D02*
X127635000Y-81000000D01*
X127385000Y-81500000D02*
X127885000Y-81500000D01*
X127635000Y-81000000D02*
X127385000Y-81500000D01*
X103632000Y-81000000D02*
X103382000Y-81500000D01*
X103382000Y-81500000D02*
X103882000Y-81500000D01*
X103882000Y-81500000D02*
X103632000Y-81000000D01*
X103655000Y-85160000D02*
X101355000Y-85160000D01*
X102055000Y-88360000D02*
X103655000Y-88360000D01*
X122296422Y-96595000D02*
X122813578Y-96595000D01*
X122296422Y-95175000D02*
X122813578Y-95175000D01*
D11*
X99226666Y-109299285D02*
X99226666Y-108823095D01*
X99512380Y-109394523D02*
X98512380Y-109061190D01*
X99512380Y-108727857D01*
X99512380Y-107870714D02*
X99512380Y-108442142D01*
X99512380Y-108156428D02*
X98512380Y-108156428D01*
X98655238Y-108251666D01*
X98750476Y-108346904D01*
X98798095Y-108442142D01*
X107037142Y-83351666D02*
X107084761Y-83399285D01*
X107132380Y-83542142D01*
X107132380Y-83637380D01*
X107084761Y-83780238D01*
X106989523Y-83875476D01*
X106894285Y-83923095D01*
X106703809Y-83970714D01*
X106560952Y-83970714D01*
X106370476Y-83923095D01*
X106275238Y-83875476D01*
X106180000Y-83780238D01*
X106132380Y-83637380D01*
X106132380Y-83542142D01*
X106180000Y-83399285D01*
X106227619Y-83351666D01*
X107132380Y-82399285D02*
X107132380Y-82970714D01*
X107132380Y-82685000D02*
X106132380Y-82685000D01*
X106275238Y-82780238D01*
X106370476Y-82875476D01*
X106418095Y-82970714D01*
X127992142Y-88431666D02*
X128039761Y-88479285D01*
X128087380Y-88622142D01*
X128087380Y-88717380D01*
X128039761Y-88860238D01*
X127944523Y-88955476D01*
X127849285Y-89003095D01*
X127658809Y-89050714D01*
X127515952Y-89050714D01*
X127325476Y-89003095D01*
X127230238Y-88955476D01*
X127135000Y-88860238D01*
X127087380Y-88717380D01*
X127087380Y-88622142D01*
X127135000Y-88479285D01*
X127182619Y-88431666D01*
X127182619Y-88050714D02*
X127135000Y-88003095D01*
X127087380Y-87907857D01*
X127087380Y-87669761D01*
X127135000Y-87574523D01*
X127182619Y-87526904D01*
X127277857Y-87479285D01*
X127373095Y-87479285D01*
X127515952Y-87526904D01*
X128087380Y-88098333D01*
X128087380Y-87479285D01*
X108052142Y-87494166D02*
X108099761Y-87541785D01*
X108147380Y-87684642D01*
X108147380Y-87779880D01*
X108099761Y-87922738D01*
X108004523Y-88017976D01*
X107909285Y-88065595D01*
X107718809Y-88113214D01*
X107575952Y-88113214D01*
X107385476Y-88065595D01*
X107290238Y-88017976D01*
X107195000Y-87922738D01*
X107147380Y-87779880D01*
X107147380Y-87684642D01*
X107195000Y-87541785D01*
X107242619Y-87494166D01*
X107147380Y-87160833D02*
X107147380Y-86541785D01*
X107528333Y-86875119D01*
X107528333Y-86732261D01*
X107575952Y-86637023D01*
X107623571Y-86589404D01*
X107718809Y-86541785D01*
X107956904Y-86541785D01*
X108052142Y-86589404D01*
X108099761Y-86637023D01*
X108147380Y-86732261D01*
X108147380Y-87017976D01*
X108099761Y-87113214D01*
X108052142Y-87160833D01*
X124293333Y-90527142D02*
X124245714Y-90574761D01*
X124102857Y-90622380D01*
X124007619Y-90622380D01*
X123864761Y-90574761D01*
X123769523Y-90479523D01*
X123721904Y-90384285D01*
X123674285Y-90193809D01*
X123674285Y-90050952D01*
X123721904Y-89860476D01*
X123769523Y-89765238D01*
X123864761Y-89670000D01*
X124007619Y-89622380D01*
X124102857Y-89622380D01*
X124245714Y-89670000D01*
X124293333Y-89717619D01*
X125150476Y-89955714D02*
X125150476Y-90622380D01*
X124912380Y-89574761D02*
X124674285Y-90289047D01*
X125293333Y-90289047D01*
X134977142Y-95416666D02*
X135024761Y-95464285D01*
X135072380Y-95607142D01*
X135072380Y-95702380D01*
X135024761Y-95845238D01*
X134929523Y-95940476D01*
X134834285Y-95988095D01*
X134643809Y-96035714D01*
X134500952Y-96035714D01*
X134310476Y-95988095D01*
X134215238Y-95940476D01*
X134120000Y-95845238D01*
X134072380Y-95702380D01*
X134072380Y-95607142D01*
X134120000Y-95464285D01*
X134167619Y-95416666D01*
X134072380Y-94511904D02*
X134072380Y-94988095D01*
X134548571Y-95035714D01*
X134500952Y-94988095D01*
X134453333Y-94892857D01*
X134453333Y-94654761D01*
X134500952Y-94559523D01*
X134548571Y-94511904D01*
X134643809Y-94464285D01*
X134881904Y-94464285D01*
X134977142Y-94511904D01*
X135024761Y-94559523D01*
X135072380Y-94654761D01*
X135072380Y-94892857D01*
X135024761Y-94988095D01*
X134977142Y-95035714D01*
X130643333Y-91417142D02*
X130595714Y-91464761D01*
X130452857Y-91512380D01*
X130357619Y-91512380D01*
X130214761Y-91464761D01*
X130119523Y-91369523D01*
X130071904Y-91274285D01*
X130024285Y-91083809D01*
X130024285Y-90940952D01*
X130071904Y-90750476D01*
X130119523Y-90655238D01*
X130214761Y-90560000D01*
X130357619Y-90512380D01*
X130452857Y-90512380D01*
X130595714Y-90560000D01*
X130643333Y-90607619D01*
X131500476Y-90512380D02*
X131310000Y-90512380D01*
X131214761Y-90560000D01*
X131167142Y-90607619D01*
X131071904Y-90750476D01*
X131024285Y-90940952D01*
X131024285Y-91321904D01*
X131071904Y-91417142D01*
X131119523Y-91464761D01*
X131214761Y-91512380D01*
X131405238Y-91512380D01*
X131500476Y-91464761D01*
X131548095Y-91417142D01*
X131595714Y-91321904D01*
X131595714Y-91083809D01*
X131548095Y-90988571D01*
X131500476Y-90940952D01*
X131405238Y-90893333D01*
X131214761Y-90893333D01*
X131119523Y-90940952D01*
X131071904Y-90988571D01*
X131024285Y-91083809D01*
X96877142Y-87161666D02*
X96924761Y-87209285D01*
X96972380Y-87352142D01*
X96972380Y-87447380D01*
X96924761Y-87590238D01*
X96829523Y-87685476D01*
X96734285Y-87733095D01*
X96543809Y-87780714D01*
X96400952Y-87780714D01*
X96210476Y-87733095D01*
X96115238Y-87685476D01*
X96020000Y-87590238D01*
X95972380Y-87447380D01*
X95972380Y-87352142D01*
X96020000Y-87209285D01*
X96067619Y-87161666D01*
X95972380Y-86828333D02*
X95972380Y-86161666D01*
X96972380Y-86590238D01*
X100163333Y-93702142D02*
X100115714Y-93749761D01*
X99972857Y-93797380D01*
X99877619Y-93797380D01*
X99734761Y-93749761D01*
X99639523Y-93654523D01*
X99591904Y-93559285D01*
X99544285Y-93368809D01*
X99544285Y-93225952D01*
X99591904Y-93035476D01*
X99639523Y-92940238D01*
X99734761Y-92845000D01*
X99877619Y-92797380D01*
X99972857Y-92797380D01*
X100115714Y-92845000D01*
X100163333Y-92892619D01*
X100734761Y-93225952D02*
X100639523Y-93178333D01*
X100591904Y-93130714D01*
X100544285Y-93035476D01*
X100544285Y-92987857D01*
X100591904Y-92892619D01*
X100639523Y-92845000D01*
X100734761Y-92797380D01*
X100925238Y-92797380D01*
X101020476Y-92845000D01*
X101068095Y-92892619D01*
X101115714Y-92987857D01*
X101115714Y-93035476D01*
X101068095Y-93130714D01*
X101020476Y-93178333D01*
X100925238Y-93225952D01*
X100734761Y-93225952D01*
X100639523Y-93273571D01*
X100591904Y-93321190D01*
X100544285Y-93416428D01*
X100544285Y-93606904D01*
X100591904Y-93702142D01*
X100639523Y-93749761D01*
X100734761Y-93797380D01*
X100925238Y-93797380D01*
X101020476Y-93749761D01*
X101068095Y-93702142D01*
X101115714Y-93606904D01*
X101115714Y-93416428D01*
X101068095Y-93321190D01*
X101020476Y-93273571D01*
X100925238Y-93225952D01*
X118467142Y-87796666D02*
X118514761Y-87844285D01*
X118562380Y-87987142D01*
X118562380Y-88082380D01*
X118514761Y-88225238D01*
X118419523Y-88320476D01*
X118324285Y-88368095D01*
X118133809Y-88415714D01*
X117990952Y-88415714D01*
X117800476Y-88368095D01*
X117705238Y-88320476D01*
X117610000Y-88225238D01*
X117562380Y-88082380D01*
X117562380Y-87987142D01*
X117610000Y-87844285D01*
X117657619Y-87796666D01*
X118562380Y-87320476D02*
X118562380Y-87130000D01*
X118514761Y-87034761D01*
X118467142Y-86987142D01*
X118324285Y-86891904D01*
X118133809Y-86844285D01*
X117752857Y-86844285D01*
X117657619Y-86891904D01*
X117610000Y-86939523D01*
X117562380Y-87034761D01*
X117562380Y-87225238D01*
X117610000Y-87320476D01*
X117657619Y-87368095D01*
X117752857Y-87415714D01*
X117990952Y-87415714D01*
X118086190Y-87368095D01*
X118133809Y-87320476D01*
X118181428Y-87225238D01*
X118181428Y-87034761D01*
X118133809Y-86939523D01*
X118086190Y-86891904D01*
X117990952Y-86844285D01*
X125087142Y-99417142D02*
X125039523Y-99464761D01*
X124896666Y-99512380D01*
X124801428Y-99512380D01*
X124658571Y-99464761D01*
X124563333Y-99369523D01*
X124515714Y-99274285D01*
X124468095Y-99083809D01*
X124468095Y-98940952D01*
X124515714Y-98750476D01*
X124563333Y-98655238D01*
X124658571Y-98560000D01*
X124801428Y-98512380D01*
X124896666Y-98512380D01*
X125039523Y-98560000D01*
X125087142Y-98607619D01*
X126039523Y-99512380D02*
X125468095Y-99512380D01*
X125753809Y-99512380D02*
X125753809Y-98512380D01*
X125658571Y-98655238D01*
X125563333Y-98750476D01*
X125468095Y-98798095D01*
X126658571Y-98512380D02*
X126753809Y-98512380D01*
X126849047Y-98560000D01*
X126896666Y-98607619D01*
X126944285Y-98702857D01*
X126991904Y-98893333D01*
X126991904Y-99131428D01*
X126944285Y-99321904D01*
X126896666Y-99417142D01*
X126849047Y-99464761D01*
X126753809Y-99512380D01*
X126658571Y-99512380D01*
X126563333Y-99464761D01*
X126515714Y-99417142D01*
X126468095Y-99321904D01*
X126420476Y-99131428D01*
X126420476Y-98893333D01*
X126468095Y-98702857D01*
X126515714Y-98607619D01*
X126563333Y-98560000D01*
X126658571Y-98512380D01*
X124928333Y-85162380D02*
X124452142Y-85162380D01*
X124452142Y-84162380D01*
X125785476Y-85162380D02*
X125214047Y-85162380D01*
X125499761Y-85162380D02*
X125499761Y-84162380D01*
X125404523Y-84305238D01*
X125309285Y-84400476D01*
X125214047Y-84448095D01*
X123658333Y-83637380D02*
X123325000Y-83161190D01*
X123086904Y-83637380D02*
X123086904Y-82637380D01*
X123467857Y-82637380D01*
X123563095Y-82685000D01*
X123610714Y-82732619D01*
X123658333Y-82827857D01*
X123658333Y-82970714D01*
X123610714Y-83065952D01*
X123563095Y-83113571D01*
X123467857Y-83161190D01*
X123086904Y-83161190D01*
X124610714Y-83637380D02*
X124039285Y-83637380D01*
X124325000Y-83637380D02*
X124325000Y-82637380D01*
X124229761Y-82780238D01*
X124134523Y-82875476D01*
X124039285Y-82923095D01*
X131897380Y-83986666D02*
X131421190Y-84320000D01*
X131897380Y-84558095D02*
X130897380Y-84558095D01*
X130897380Y-84177142D01*
X130945000Y-84081904D01*
X130992619Y-84034285D01*
X131087857Y-83986666D01*
X131230714Y-83986666D01*
X131325952Y-84034285D01*
X131373571Y-84081904D01*
X131421190Y-84177142D01*
X131421190Y-84558095D01*
X130992619Y-83605714D02*
X130945000Y-83558095D01*
X130897380Y-83462857D01*
X130897380Y-83224761D01*
X130945000Y-83129523D01*
X130992619Y-83081904D01*
X131087857Y-83034285D01*
X131183095Y-83034285D01*
X131325952Y-83081904D01*
X131897380Y-83653333D01*
X131897380Y-83034285D01*
X128087380Y-96051666D02*
X127611190Y-96385000D01*
X128087380Y-96623095D02*
X127087380Y-96623095D01*
X127087380Y-96242142D01*
X127135000Y-96146904D01*
X127182619Y-96099285D01*
X127277857Y-96051666D01*
X127420714Y-96051666D01*
X127515952Y-96099285D01*
X127563571Y-96146904D01*
X127611190Y-96242142D01*
X127611190Y-96623095D01*
X127087380Y-95718333D02*
X127087380Y-95099285D01*
X127468333Y-95432619D01*
X127468333Y-95289761D01*
X127515952Y-95194523D01*
X127563571Y-95146904D01*
X127658809Y-95099285D01*
X127896904Y-95099285D01*
X127992142Y-95146904D01*
X128039761Y-95194523D01*
X128087380Y-95289761D01*
X128087380Y-95575476D01*
X128039761Y-95670714D01*
X127992142Y-95718333D01*
X104608333Y-93797380D02*
X104275000Y-93321190D01*
X104036904Y-93797380D02*
X104036904Y-92797380D01*
X104417857Y-92797380D01*
X104513095Y-92845000D01*
X104560714Y-92892619D01*
X104608333Y-92987857D01*
X104608333Y-93130714D01*
X104560714Y-93225952D01*
X104513095Y-93273571D01*
X104417857Y-93321190D01*
X104036904Y-93321190D01*
X105465476Y-93130714D02*
X105465476Y-93797380D01*
X105227380Y-92749761D02*
X104989285Y-93464047D01*
X105608333Y-93464047D01*
X123538095Y-92797380D02*
X123538095Y-93606904D01*
X123585714Y-93702142D01*
X123633333Y-93749761D01*
X123728571Y-93797380D01*
X123919047Y-93797380D01*
X124014285Y-93749761D01*
X124061904Y-93702142D01*
X124109523Y-93606904D01*
X124109523Y-92797380D01*
X124538095Y-92892619D02*
X124585714Y-92845000D01*
X124680952Y-92797380D01*
X124919047Y-92797380D01*
X125014285Y-92845000D01*
X125061904Y-92892619D01*
X125109523Y-92987857D01*
X125109523Y-93083095D01*
X125061904Y-93225952D01*
X124490476Y-93797380D01*
X125109523Y-93797380D01*
X95972380Y-97488333D02*
X96686666Y-97488333D01*
X96829523Y-97535952D01*
X96924761Y-97631190D01*
X96972380Y-97774047D01*
X96972380Y-97869285D01*
X95972380Y-97107380D02*
X95972380Y-96488333D01*
X96353333Y-96821666D01*
X96353333Y-96678809D01*
X96400952Y-96583571D01*
X96448571Y-96535952D01*
X96543809Y-96488333D01*
X96781904Y-96488333D01*
X96877142Y-96535952D01*
X96924761Y-96583571D01*
X96972380Y-96678809D01*
X96972380Y-96964523D01*
X96924761Y-97059761D01*
X96877142Y-97107380D01*
X106132380Y-97488333D02*
X106846666Y-97488333D01*
X106989523Y-97535952D01*
X107084761Y-97631190D01*
X107132380Y-97774047D01*
X107132380Y-97869285D01*
X106465714Y-96583571D02*
X107132380Y-96583571D01*
X106084761Y-96821666D02*
X106799047Y-97059761D01*
X106799047Y-96440714D01*
X132381666Y-78192380D02*
X132381666Y-78906666D01*
X132334047Y-79049523D01*
X132238809Y-79144761D01*
X132095952Y-79192380D01*
X132000714Y-79192380D01*
X133381666Y-79192380D02*
X132810238Y-79192380D01*
X133095952Y-79192380D02*
X133095952Y-78192380D01*
X133000714Y-78335238D01*
X132905476Y-78430476D01*
X132810238Y-78478095D01*
X108251666Y-78192380D02*
X108251666Y-78906666D01*
X108204047Y-79049523D01*
X108108809Y-79144761D01*
X107965952Y-79192380D01*
X107870714Y-79192380D01*
X108680238Y-78287619D02*
X108727857Y-78240000D01*
X108823095Y-78192380D01*
X109061190Y-78192380D01*
X109156428Y-78240000D01*
X109204047Y-78287619D01*
X109251666Y-78382857D01*
X109251666Y-78478095D01*
X109204047Y-78620952D01*
X108632619Y-79192380D01*
X109251666Y-79192380D01*
X99568095Y-82637380D02*
X99568095Y-83446904D01*
X99615714Y-83542142D01*
X99663333Y-83589761D01*
X99758571Y-83637380D01*
X99949047Y-83637380D01*
X100044285Y-83589761D01*
X100091904Y-83542142D01*
X100139523Y-83446904D01*
X100139523Y-82637380D01*
X101139523Y-83637380D02*
X100568095Y-83637380D01*
X100853809Y-83637380D02*
X100853809Y-82637380D01*
X100758571Y-82780238D01*
X100663333Y-82875476D01*
X100568095Y-82923095D01*
X125563333Y-96972380D02*
X125230000Y-96496190D01*
X124991904Y-96972380D02*
X124991904Y-95972380D01*
X125372857Y-95972380D01*
X125468095Y-96020000D01*
X125515714Y-96067619D01*
X125563333Y-96162857D01*
X125563333Y-96305714D01*
X125515714Y-96400952D01*
X125468095Y-96448571D01*
X125372857Y-96496190D01*
X124991904Y-96496190D01*
X126468095Y-95972380D02*
X125991904Y-95972380D01*
X125944285Y-96448571D01*
X125991904Y-96400952D01*
X126087142Y-96353333D01*
X126325238Y-96353333D01*
X126420476Y-96400952D01*
X126468095Y-96448571D01*
X126515714Y-96543809D01*
X126515714Y-96781904D01*
X126468095Y-96877142D01*
X126420476Y-96924761D01*
X126325238Y-96972380D01*
X126087142Y-96972380D01*
X125991904Y-96924761D01*
X125944285Y-96877142D01*
M02*
