M48
INCH,TZ
T1C0.0157
T2C0.0315
T3C0.0394
%
G90
G05
T1
X38500Y-32250
X38500Y-32750
X38500Y-33250
X38500Y-33750
X38500Y-34250
X38500Y-34750
X38500Y-35250
X38500Y-35750
X38500Y-36250
X39000Y-32250
X39000Y-36250
X39500Y-32250
X39500Y-36250
X39750Y-33783
X40000Y-32250
X40500Y-34250
X40500Y-35000
X40500Y-36250
X41000Y-36250
X41500Y-32250
X41500Y-36250
X42000Y-32250
X42000Y-36250
X42500Y-32250
X42500Y-32750
X42500Y-33250
X42500Y-33750
X42500Y-34250
X42500Y-34750
X42500Y-35250
X42500Y-35750
X42500Y-36250
X47000Y-32250
X47000Y-32750
X47000Y-33250
X47000Y-33750
X47000Y-34250
X47000Y-34750
X47000Y-35250
X47000Y-35750
X47000Y-36250
X47000Y-36750
X47000Y-37250
X47000Y-37750
X47000Y-38250
X47000Y-38750
X47500Y-32250
X48000Y-32250
X48500Y-32250
X49000Y-32250
X49500Y-38750
X50000Y-38750
X50500Y-38750
X51000Y-32250
X51000Y-38750
X51500Y-32250
X51500Y-38750
X52000Y-32250
X52000Y-38750
X52500Y-32250
X52500Y-32750
X52500Y-33250
X52500Y-33750
X52500Y-34250
X52500Y-34750
X52500Y-35250
X52500Y-35750
X52500Y-36250
X52500Y-36750
X52500Y-37250
X52500Y-37750
X52500Y-38250
X52500Y-38750
T2
X39000Y-40000
X39000Y-46000
X40000Y-40000
X40000Y-46000
X41000Y-40000
X41000Y-46000
X42000Y-40000
X42000Y-46000
X43000Y-40000
X43000Y-46000
X44000Y-40000
X44000Y-46000
X45000Y-40000
X45000Y-46000
X46000Y-40000
X46000Y-46000
X47000Y-40000
X47000Y-46000
X48000Y-40000
X48000Y-46000
X49000Y-40000
X49000Y-46000
X50000Y-40000
X50000Y-46000
X51000Y-40000
X51000Y-46000
X52000Y-40000
X52000Y-46000
X53000Y-40000
X53000Y-46000
T3
X39000Y-38250
X40000Y-38250
X43000Y-38250
X44000Y-38250
X45000Y-38250
X46000Y-38250
T0
M30
