G04 #@! TF.GenerationSoftware,KiCad,Pcbnew,5.1.9+dfsg1-1+deb11u1*
G04 #@! TF.CreationDate,2023-03-16T17:17:06+02:00*
G04 #@! TF.ProjectId,power_meter,706f7765-725f-46d6-9574-65722e6b6963,rev?*
G04 #@! TF.SameCoordinates,Original*
G04 #@! TF.FileFunction,Copper,L1,Top*
G04 #@! TF.FilePolarity,Positive*
%FSLAX46Y46*%
G04 Gerber Fmt 4.6, Leading zero omitted, Abs format (unit mm)*
G04 Created by KiCad (PCBNEW 5.1.9+dfsg1-1+deb11u1) date 2023-03-16 17:17:06*
%MOMM*%
%LPD*%
G01*
G04 APERTURE LIST*
G04 #@! TA.AperFunction,ComponentPad*
%ADD10R,1.600000X1.600000*%
G04 #@! TD*
G04 #@! TA.AperFunction,ComponentPad*
%ADD11O,1.600000X1.600000*%
G04 #@! TD*
G04 #@! TA.AperFunction,SMDPad,CuDef*
%ADD12R,1.550000X0.600000*%
G04 #@! TD*
G04 #@! TA.AperFunction,ComponentPad*
%ADD13R,1.700000X1.700000*%
G04 #@! TD*
G04 #@! TA.AperFunction,ComponentPad*
%ADD14O,1.700000X1.700000*%
G04 #@! TD*
G04 #@! TA.AperFunction,SMDPad,CuDef*
%ADD15R,1.270000X3.600000*%
G04 #@! TD*
G04 #@! TA.AperFunction,SMDPad,CuDef*
%ADD16R,1.350000X4.200000*%
G04 #@! TD*
G04 #@! TA.AperFunction,SMDPad,CuDef*
%ADD17R,0.700000X0.510000*%
G04 #@! TD*
G04 #@! TA.AperFunction,ViaPad*
%ADD18C,0.600000*%
G04 #@! TD*
G04 #@! TA.AperFunction,Conductor*
%ADD19C,0.250000*%
G04 #@! TD*
G04 #@! TA.AperFunction,Conductor*
%ADD20C,0.500000*%
G04 #@! TD*
G04 #@! TA.AperFunction,Conductor*
%ADD21C,0.254000*%
G04 #@! TD*
G04 #@! TA.AperFunction,Conductor*
%ADD22C,0.100000*%
G04 #@! TD*
G04 APERTURE END LIST*
D10*
X99060000Y-116840000D03*
D11*
X132080000Y-101600000D03*
X101600000Y-116840000D03*
X129540000Y-101600000D03*
X104140000Y-116840000D03*
X127000000Y-101600000D03*
X106680000Y-116840000D03*
X124460000Y-101600000D03*
X109220000Y-116840000D03*
X121920000Y-101600000D03*
X111760000Y-116840000D03*
X119380000Y-101600000D03*
X114300000Y-116840000D03*
X116840000Y-101600000D03*
X116840000Y-116840000D03*
X114300000Y-101600000D03*
X119380000Y-116840000D03*
X111760000Y-101600000D03*
X121920000Y-116840000D03*
X109220000Y-101600000D03*
X124460000Y-116840000D03*
X106680000Y-101600000D03*
X127000000Y-116840000D03*
X104140000Y-101600000D03*
X129540000Y-116840000D03*
X101600000Y-101600000D03*
X132080000Y-116840000D03*
X99060000Y-101600000D03*
X134620000Y-116840000D03*
X134620000Y-101600000D03*
G04 #@! TA.AperFunction,SMDPad,CuDef*
G36*
G01*
X103048750Y-83635000D02*
X103961250Y-83635000D01*
G75*
G02*
X104205000Y-83878750I0J-243750D01*
G01*
X104205000Y-84366250D01*
G75*
G02*
X103961250Y-84610000I-243750J0D01*
G01*
X103048750Y-84610000D01*
G75*
G02*
X102805000Y-84366250I0J243750D01*
G01*
X102805000Y-83878750D01*
G75*
G02*
X103048750Y-83635000I243750J0D01*
G01*
G37*
G04 #@! TD.AperFunction*
G04 #@! TA.AperFunction,SMDPad,CuDef*
G36*
G01*
X103048750Y-81760000D02*
X103961250Y-81760000D01*
G75*
G02*
X104205000Y-82003750I0J-243750D01*
G01*
X104205000Y-82491250D01*
G75*
G02*
X103961250Y-82735000I-243750J0D01*
G01*
X103048750Y-82735000D01*
G75*
G02*
X102805000Y-82491250I0J243750D01*
G01*
X102805000Y-82003750D01*
G75*
G02*
X103048750Y-81760000I243750J0D01*
G01*
G37*
G04 #@! TD.AperFunction*
G04 #@! TA.AperFunction,SMDPad,CuDef*
G36*
G01*
X128091250Y-84640000D02*
X127178750Y-84640000D01*
G75*
G02*
X126935000Y-84396250I0J243750D01*
G01*
X126935000Y-83908750D01*
G75*
G02*
X127178750Y-83665000I243750J0D01*
G01*
X128091250Y-83665000D01*
G75*
G02*
X128335000Y-83908750I0J-243750D01*
G01*
X128335000Y-84396250D01*
G75*
G02*
X128091250Y-84640000I-243750J0D01*
G01*
G37*
G04 #@! TD.AperFunction*
G04 #@! TA.AperFunction,SMDPad,CuDef*
G36*
G01*
X128091250Y-86515000D02*
X127178750Y-86515000D01*
G75*
G02*
X126935000Y-86271250I0J243750D01*
G01*
X126935000Y-85783750D01*
G75*
G02*
X127178750Y-85540000I243750J0D01*
G01*
X128091250Y-85540000D01*
G75*
G02*
X128335000Y-85783750I0J-243750D01*
G01*
X128335000Y-86271250D01*
G75*
G02*
X128091250Y-86515000I-243750J0D01*
G01*
G37*
G04 #@! TD.AperFunction*
G04 #@! TA.AperFunction,SMDPad,CuDef*
G36*
G01*
X105588750Y-87777500D02*
X106501250Y-87777500D01*
G75*
G02*
X106745000Y-88021250I0J-243750D01*
G01*
X106745000Y-88508750D01*
G75*
G02*
X106501250Y-88752500I-243750J0D01*
G01*
X105588750Y-88752500D01*
G75*
G02*
X105345000Y-88508750I0J243750D01*
G01*
X105345000Y-88021250D01*
G75*
G02*
X105588750Y-87777500I243750J0D01*
G01*
G37*
G04 #@! TD.AperFunction*
G04 #@! TA.AperFunction,SMDPad,CuDef*
G36*
G01*
X105588750Y-85902500D02*
X106501250Y-85902500D01*
G75*
G02*
X106745000Y-86146250I0J-243750D01*
G01*
X106745000Y-86633750D01*
G75*
G02*
X106501250Y-86877500I-243750J0D01*
G01*
X105588750Y-86877500D01*
G75*
G02*
X105345000Y-86633750I0J243750D01*
G01*
X105345000Y-86146250D01*
G75*
G02*
X105588750Y-85902500I243750J0D01*
G01*
G37*
G04 #@! TD.AperFunction*
G04 #@! TA.AperFunction,SMDPad,CuDef*
G36*
G01*
X126520000Y-87808750D02*
X126520000Y-88721250D01*
G75*
G02*
X126276250Y-88965000I-243750J0D01*
G01*
X125788750Y-88965000D01*
G75*
G02*
X125545000Y-88721250I0J243750D01*
G01*
X125545000Y-87808750D01*
G75*
G02*
X125788750Y-87565000I243750J0D01*
G01*
X126276250Y-87565000D01*
G75*
G02*
X126520000Y-87808750I0J-243750D01*
G01*
G37*
G04 #@! TD.AperFunction*
G04 #@! TA.AperFunction,SMDPad,CuDef*
G36*
G01*
X124645000Y-87808750D02*
X124645000Y-88721250D01*
G75*
G02*
X124401250Y-88965000I-243750J0D01*
G01*
X123913750Y-88965000D01*
G75*
G02*
X123670000Y-88721250I0J243750D01*
G01*
X123670000Y-87808750D01*
G75*
G02*
X123913750Y-87565000I243750J0D01*
G01*
X124401250Y-87565000D01*
G75*
G02*
X124645000Y-87808750I0J-243750D01*
G01*
G37*
G04 #@! TD.AperFunction*
G04 #@! TA.AperFunction,SMDPad,CuDef*
G36*
G01*
X130988750Y-93825000D02*
X131901250Y-93825000D01*
G75*
G02*
X132145000Y-94068750I0J-243750D01*
G01*
X132145000Y-94556250D01*
G75*
G02*
X131901250Y-94800000I-243750J0D01*
G01*
X130988750Y-94800000D01*
G75*
G02*
X130745000Y-94556250I0J243750D01*
G01*
X130745000Y-94068750D01*
G75*
G02*
X130988750Y-93825000I243750J0D01*
G01*
G37*
G04 #@! TD.AperFunction*
G04 #@! TA.AperFunction,SMDPad,CuDef*
G36*
G01*
X130988750Y-95700000D02*
X131901250Y-95700000D01*
G75*
G02*
X132145000Y-95943750I0J-243750D01*
G01*
X132145000Y-96431250D01*
G75*
G02*
X131901250Y-96675000I-243750J0D01*
G01*
X130988750Y-96675000D01*
G75*
G02*
X130745000Y-96431250I0J243750D01*
G01*
X130745000Y-95943750D01*
G75*
G02*
X130988750Y-95700000I243750J0D01*
G01*
G37*
G04 #@! TD.AperFunction*
G04 #@! TA.AperFunction,SMDPad,CuDef*
G36*
G01*
X130625000Y-93166250D02*
X130625000Y-92253750D01*
G75*
G02*
X130868750Y-92010000I243750J0D01*
G01*
X131356250Y-92010000D01*
G75*
G02*
X131600000Y-92253750I0J-243750D01*
G01*
X131600000Y-93166250D01*
G75*
G02*
X131356250Y-93410000I-243750J0D01*
G01*
X130868750Y-93410000D01*
G75*
G02*
X130625000Y-93166250I0J243750D01*
G01*
G37*
G04 #@! TD.AperFunction*
G04 #@! TA.AperFunction,SMDPad,CuDef*
G36*
G01*
X128750000Y-93166250D02*
X128750000Y-92253750D01*
G75*
G02*
X128993750Y-92010000I243750J0D01*
G01*
X129481250Y-92010000D01*
G75*
G02*
X129725000Y-92253750I0J-243750D01*
G01*
X129725000Y-93166250D01*
G75*
G02*
X129481250Y-93410000I-243750J0D01*
G01*
X128993750Y-93410000D01*
G75*
G02*
X128750000Y-93166250I0J243750D01*
G01*
G37*
G04 #@! TD.AperFunction*
G04 #@! TA.AperFunction,SMDPad,CuDef*
G36*
G01*
X99238750Y-85570000D02*
X100151250Y-85570000D01*
G75*
G02*
X100395000Y-85813750I0J-243750D01*
G01*
X100395000Y-86301250D01*
G75*
G02*
X100151250Y-86545000I-243750J0D01*
G01*
X99238750Y-86545000D01*
G75*
G02*
X98995000Y-86301250I0J243750D01*
G01*
X98995000Y-85813750D01*
G75*
G02*
X99238750Y-85570000I243750J0D01*
G01*
G37*
G04 #@! TD.AperFunction*
G04 #@! TA.AperFunction,SMDPad,CuDef*
G36*
G01*
X99238750Y-87445000D02*
X100151250Y-87445000D01*
G75*
G02*
X100395000Y-87688750I0J-243750D01*
G01*
X100395000Y-88176250D01*
G75*
G02*
X100151250Y-88420000I-243750J0D01*
G01*
X99238750Y-88420000D01*
G75*
G02*
X98995000Y-88176250I0J243750D01*
G01*
X98995000Y-87688750D01*
G75*
G02*
X99238750Y-87445000I243750J0D01*
G01*
G37*
G04 #@! TD.AperFunction*
G04 #@! TA.AperFunction,SMDPad,CuDef*
G36*
G01*
X102087500Y-89713750D02*
X102087500Y-90626250D01*
G75*
G02*
X101843750Y-90870000I-243750J0D01*
G01*
X101356250Y-90870000D01*
G75*
G02*
X101112500Y-90626250I0J243750D01*
G01*
X101112500Y-89713750D01*
G75*
G02*
X101356250Y-89470000I243750J0D01*
G01*
X101843750Y-89470000D01*
G75*
G02*
X102087500Y-89713750I0J-243750D01*
G01*
G37*
G04 #@! TD.AperFunction*
G04 #@! TA.AperFunction,SMDPad,CuDef*
G36*
G01*
X100212500Y-89713750D02*
X100212500Y-90626250D01*
G75*
G02*
X99968750Y-90870000I-243750J0D01*
G01*
X99481250Y-90870000D01*
G75*
G02*
X99237500Y-90626250I0J243750D01*
G01*
X99237500Y-89713750D01*
G75*
G02*
X99481250Y-89470000I243750J0D01*
G01*
X99968750Y-89470000D01*
G75*
G02*
X100212500Y-89713750I0J-243750D01*
G01*
G37*
G04 #@! TD.AperFunction*
G04 #@! TA.AperFunction,SMDPad,CuDef*
G36*
G01*
X120828750Y-86205000D02*
X121741250Y-86205000D01*
G75*
G02*
X121985000Y-86448750I0J-243750D01*
G01*
X121985000Y-86936250D01*
G75*
G02*
X121741250Y-87180000I-243750J0D01*
G01*
X120828750Y-87180000D01*
G75*
G02*
X120585000Y-86936250I0J243750D01*
G01*
X120585000Y-86448750D01*
G75*
G02*
X120828750Y-86205000I243750J0D01*
G01*
G37*
G04 #@! TD.AperFunction*
G04 #@! TA.AperFunction,SMDPad,CuDef*
G36*
G01*
X120828750Y-88080000D02*
X121741250Y-88080000D01*
G75*
G02*
X121985000Y-88323750I0J-243750D01*
G01*
X121985000Y-88811250D01*
G75*
G02*
X121741250Y-89055000I-243750J0D01*
G01*
X120828750Y-89055000D01*
G75*
G02*
X120585000Y-88811250I0J243750D01*
G01*
X120585000Y-88323750D01*
G75*
G02*
X120828750Y-88080000I243750J0D01*
G01*
G37*
G04 #@! TD.AperFunction*
G04 #@! TA.AperFunction,SMDPad,CuDef*
G36*
G01*
X123005000Y-98246250D02*
X123005000Y-97333750D01*
G75*
G02*
X123248750Y-97090000I243750J0D01*
G01*
X123736250Y-97090000D01*
G75*
G02*
X123980000Y-97333750I0J-243750D01*
G01*
X123980000Y-98246250D01*
G75*
G02*
X123736250Y-98490000I-243750J0D01*
G01*
X123248750Y-98490000D01*
G75*
G02*
X123005000Y-98246250I0J243750D01*
G01*
G37*
G04 #@! TD.AperFunction*
G04 #@! TA.AperFunction,SMDPad,CuDef*
G36*
G01*
X121130000Y-98246250D02*
X121130000Y-97333750D01*
G75*
G02*
X121373750Y-97090000I243750J0D01*
G01*
X121861250Y-97090000D01*
G75*
G02*
X122105000Y-97333750I0J-243750D01*
G01*
X122105000Y-98246250D01*
G75*
G02*
X121861250Y-98490000I-243750J0D01*
G01*
X121373750Y-98490000D01*
G75*
G02*
X121130000Y-98246250I0J243750D01*
G01*
G37*
G04 #@! TD.AperFunction*
G04 #@! TA.AperFunction,SMDPad,CuDef*
G36*
G01*
X123670000Y-86816250D02*
X123670000Y-85903750D01*
G75*
G02*
X123913750Y-85660000I243750J0D01*
G01*
X124401250Y-85660000D01*
G75*
G02*
X124645000Y-85903750I0J-243750D01*
G01*
X124645000Y-86816250D01*
G75*
G02*
X124401250Y-87060000I-243750J0D01*
G01*
X123913750Y-87060000D01*
G75*
G02*
X123670000Y-86816250I0J243750D01*
G01*
G37*
G04 #@! TD.AperFunction*
G04 #@! TA.AperFunction,SMDPad,CuDef*
G36*
G01*
X125545000Y-86816250D02*
X125545000Y-85903750D01*
G75*
G02*
X125788750Y-85660000I243750J0D01*
G01*
X126276250Y-85660000D01*
G75*
G02*
X126520000Y-85903750I0J-243750D01*
G01*
X126520000Y-86816250D01*
G75*
G02*
X126276250Y-87060000I-243750J0D01*
G01*
X125788750Y-87060000D01*
G75*
G02*
X125545000Y-86816250I0J243750D01*
G01*
G37*
G04 #@! TD.AperFunction*
G04 #@! TA.AperFunction,SMDPad,CuDef*
G36*
G01*
X128122500Y-82093750D02*
X128122500Y-83006250D01*
G75*
G02*
X127878750Y-83250000I-243750J0D01*
G01*
X127391250Y-83250000D01*
G75*
G02*
X127147500Y-83006250I0J243750D01*
G01*
X127147500Y-82093750D01*
G75*
G02*
X127391250Y-81850000I243750J0D01*
G01*
X127878750Y-81850000D01*
G75*
G02*
X128122500Y-82093750I0J-243750D01*
G01*
G37*
G04 #@! TD.AperFunction*
G04 #@! TA.AperFunction,SMDPad,CuDef*
G36*
G01*
X126247500Y-82093750D02*
X126247500Y-83006250D01*
G75*
G02*
X126003750Y-83250000I-243750J0D01*
G01*
X125516250Y-83250000D01*
G75*
G02*
X125272500Y-83006250I0J243750D01*
G01*
X125272500Y-82093750D01*
G75*
G02*
X125516250Y-81850000I243750J0D01*
G01*
X126003750Y-81850000D01*
G75*
G02*
X126247500Y-82093750I0J-243750D01*
G01*
G37*
G04 #@! TD.AperFunction*
G04 #@! TA.AperFunction,SMDPad,CuDef*
G36*
G01*
X129996250Y-86515000D02*
X129083750Y-86515000D01*
G75*
G02*
X128840000Y-86271250I0J243750D01*
G01*
X128840000Y-85783750D01*
G75*
G02*
X129083750Y-85540000I243750J0D01*
G01*
X129996250Y-85540000D01*
G75*
G02*
X130240000Y-85783750I0J-243750D01*
G01*
X130240000Y-86271250D01*
G75*
G02*
X129996250Y-86515000I-243750J0D01*
G01*
G37*
G04 #@! TD.AperFunction*
G04 #@! TA.AperFunction,SMDPad,CuDef*
G36*
G01*
X129996250Y-84640000D02*
X129083750Y-84640000D01*
G75*
G02*
X128840000Y-84396250I0J243750D01*
G01*
X128840000Y-83908750D01*
G75*
G02*
X129083750Y-83665000I243750J0D01*
G01*
X129996250Y-83665000D01*
G75*
G02*
X130240000Y-83908750I0J-243750D01*
G01*
X130240000Y-84396250D01*
G75*
G02*
X129996250Y-84640000I-243750J0D01*
G01*
G37*
G04 #@! TD.AperFunction*
G04 #@! TA.AperFunction,SMDPad,CuDef*
G36*
G01*
X129996250Y-94800000D02*
X129083750Y-94800000D01*
G75*
G02*
X128840000Y-94556250I0J243750D01*
G01*
X128840000Y-94068750D01*
G75*
G02*
X129083750Y-93825000I243750J0D01*
G01*
X129996250Y-93825000D01*
G75*
G02*
X130240000Y-94068750I0J-243750D01*
G01*
X130240000Y-94556250D01*
G75*
G02*
X129996250Y-94800000I-243750J0D01*
G01*
G37*
G04 #@! TD.AperFunction*
G04 #@! TA.AperFunction,SMDPad,CuDef*
G36*
G01*
X129996250Y-96675000D02*
X129083750Y-96675000D01*
G75*
G02*
X128840000Y-96431250I0J243750D01*
G01*
X128840000Y-95943750D01*
G75*
G02*
X129083750Y-95700000I243750J0D01*
G01*
X129996250Y-95700000D01*
G75*
G02*
X130240000Y-95943750I0J-243750D01*
G01*
X130240000Y-96431250D01*
G75*
G02*
X129996250Y-96675000I-243750J0D01*
G01*
G37*
G04 #@! TD.AperFunction*
G04 #@! TA.AperFunction,SMDPad,CuDef*
G36*
G01*
X104922500Y-90626250D02*
X104922500Y-89713750D01*
G75*
G02*
X105166250Y-89470000I243750J0D01*
G01*
X105653750Y-89470000D01*
G75*
G02*
X105897500Y-89713750I0J-243750D01*
G01*
X105897500Y-90626250D01*
G75*
G02*
X105653750Y-90870000I-243750J0D01*
G01*
X105166250Y-90870000D01*
G75*
G02*
X104922500Y-90626250I0J243750D01*
G01*
G37*
G04 #@! TD.AperFunction*
G04 #@! TA.AperFunction,SMDPad,CuDef*
G36*
G01*
X103047500Y-90626250D02*
X103047500Y-89713750D01*
G75*
G02*
X103291250Y-89470000I243750J0D01*
G01*
X103778750Y-89470000D01*
G75*
G02*
X104022500Y-89713750I0J-243750D01*
G01*
X104022500Y-90626250D01*
G75*
G02*
X103778750Y-90870000I-243750J0D01*
G01*
X103291250Y-90870000D01*
G75*
G02*
X103047500Y-90626250I0J243750D01*
G01*
G37*
G04 #@! TD.AperFunction*
D12*
X121600000Y-90170000D03*
X121600000Y-91440000D03*
X121600000Y-92710000D03*
X121600000Y-93980000D03*
X127000000Y-93980000D03*
X127000000Y-92710000D03*
X127000000Y-91440000D03*
X127000000Y-90170000D03*
D13*
X101600000Y-97155000D03*
D14*
X99060000Y-97155000D03*
D13*
X109220000Y-97155000D03*
D14*
X111760000Y-97155000D03*
X114300000Y-97155000D03*
X116840000Y-97155000D03*
D15*
X127635000Y-78540000D03*
D16*
X124810000Y-78740000D03*
X130460000Y-78740000D03*
X106457000Y-78740000D03*
X100807000Y-78740000D03*
D15*
X103632000Y-78540000D03*
D17*
X101695000Y-85810000D03*
X101695000Y-86760000D03*
X101695000Y-87710000D03*
X104015000Y-87710000D03*
X104015000Y-86760000D03*
X104015000Y-85810000D03*
G04 #@! TA.AperFunction,SMDPad,CuDef*
G36*
G01*
X121130000Y-96341250D02*
X121130000Y-95428750D01*
G75*
G02*
X121373750Y-95185000I243750J0D01*
G01*
X121861250Y-95185000D01*
G75*
G02*
X122105000Y-95428750I0J-243750D01*
G01*
X122105000Y-96341250D01*
G75*
G02*
X121861250Y-96585000I-243750J0D01*
G01*
X121373750Y-96585000D01*
G75*
G02*
X121130000Y-96341250I0J243750D01*
G01*
G37*
G04 #@! TD.AperFunction*
G04 #@! TA.AperFunction,SMDPad,CuDef*
G36*
G01*
X123005000Y-96341250D02*
X123005000Y-95428750D01*
G75*
G02*
X123248750Y-95185000I243750J0D01*
G01*
X123736250Y-95185000D01*
G75*
G02*
X123980000Y-95428750I0J-243750D01*
G01*
X123980000Y-96341250D01*
G75*
G02*
X123736250Y-96585000I-243750J0D01*
G01*
X123248750Y-96585000D01*
G75*
G02*
X123005000Y-96341250I0J243750D01*
G01*
G37*
G04 #@! TD.AperFunction*
D18*
X101600000Y-81915000D03*
X105410000Y-81915000D03*
X106680000Y-81915000D03*
X100330000Y-81915000D03*
X99060000Y-81915000D03*
X107950000Y-81915000D03*
X107950000Y-85725000D03*
X107950000Y-86995000D03*
X107950000Y-89535000D03*
X97790000Y-81915000D03*
X97790000Y-85725000D03*
X97790000Y-86995000D03*
X97790000Y-88265000D03*
X97790000Y-89535000D03*
X97790000Y-90805000D03*
X107950000Y-90805000D03*
X97790000Y-92075000D03*
X99060000Y-92075000D03*
X100330000Y-92075000D03*
X102870000Y-92075000D03*
X104140000Y-92075000D03*
X105410000Y-92075000D03*
X107950000Y-88265000D03*
X133350000Y-86995000D03*
X133350000Y-88265000D03*
X133350000Y-89535000D03*
X133350000Y-90805000D03*
X119380000Y-84455000D03*
X119380000Y-86995000D03*
X119380000Y-88265000D03*
X119380000Y-89535000D03*
X119380000Y-90805000D03*
X119380000Y-92075000D03*
X119380000Y-93345000D03*
X119380000Y-94615000D03*
X133350000Y-85725000D03*
X133350000Y-84455000D03*
X119380000Y-85725000D03*
X133350000Y-92075000D03*
X133350000Y-93345000D03*
X133350000Y-94615000D03*
X133350000Y-95885000D03*
X133350000Y-97155000D03*
X132080000Y-98425000D03*
X128270000Y-98425000D03*
X127000000Y-98425000D03*
X125730000Y-98425000D03*
X119380000Y-95885000D03*
X119380000Y-97155000D03*
X119380000Y-83185000D03*
X119380000Y-81915000D03*
X120650000Y-81915000D03*
X121920000Y-81915000D03*
X123190000Y-81915000D03*
X133350000Y-83185000D03*
X133350000Y-81915000D03*
X132080000Y-81915000D03*
X130810000Y-81915000D03*
X129540000Y-81915000D03*
X124460000Y-81915000D03*
X107950000Y-92075000D03*
X102870000Y-86995000D03*
X119380000Y-98425000D03*
X133350000Y-98425000D03*
X130810000Y-98425000D03*
X97790000Y-84455000D03*
X97790000Y-83185000D03*
X107950000Y-84455000D03*
X107950000Y-83185000D03*
X106680000Y-92075000D03*
X129540000Y-98425000D03*
X102870000Y-88900000D03*
X100965000Y-85810000D03*
D19*
X121600000Y-101280000D02*
X121920000Y-101600000D01*
X121617500Y-101297500D02*
X121920000Y-101600000D01*
X121920000Y-98092500D02*
X121617500Y-97790000D01*
X121920000Y-101600000D02*
X121920000Y-98092500D01*
X121617500Y-97790000D02*
X121617500Y-95885000D01*
X121600000Y-95867500D02*
X121617500Y-95885000D01*
X121600000Y-93980000D02*
X121600000Y-95867500D01*
X105675000Y-86760000D02*
X106045000Y-86390000D01*
X101600000Y-89370000D02*
X101600000Y-90170000D01*
X109220000Y-100468630D02*
X108446370Y-99695000D01*
X109220000Y-101600000D02*
X109220000Y-100468630D01*
X108446370Y-99695000D02*
X106680000Y-99695000D01*
X106680000Y-99695000D02*
X104140000Y-97155000D01*
X104140000Y-97155000D02*
X104140000Y-94615000D01*
X104140000Y-94615000D02*
X101600000Y-92075000D01*
X101600000Y-92075000D02*
X101600000Y-90170000D01*
X101600000Y-87805000D02*
X101695000Y-87710000D01*
X101600000Y-90170000D02*
X101600000Y-87805000D01*
D20*
X105410000Y-88900000D02*
X106045000Y-88265000D01*
X105410000Y-90170000D02*
X105410000Y-88900000D01*
X129540000Y-96187500D02*
X131445000Y-96187500D01*
X106680000Y-91440000D02*
X105410000Y-90170000D01*
X106680000Y-92075000D02*
X106680000Y-91440000D01*
D19*
X104110000Y-87710000D02*
X104015000Y-87710000D01*
D20*
X105300000Y-88900000D02*
X104110000Y-87710000D01*
D19*
X105410000Y-88900000D02*
X105300000Y-88900000D01*
D20*
X129540000Y-98425000D02*
X129540000Y-96187500D01*
D19*
X104015000Y-84632500D02*
X103505000Y-84122500D01*
X104015000Y-85810000D02*
X104015000Y-84632500D01*
X103570000Y-82485000D02*
X103505000Y-82550000D01*
X103505000Y-78667000D02*
X103632000Y-78540000D01*
X103632000Y-82120500D02*
X103505000Y-82247500D01*
X103632000Y-78540000D02*
X103632000Y-82120500D01*
X127635000Y-78540000D02*
X127635000Y-82550000D01*
X127635000Y-82550000D02*
X127635000Y-84455000D01*
X127635000Y-84152500D02*
X129540000Y-84152500D01*
X129540000Y-86027500D02*
X127635000Y-86027500D01*
X126365000Y-86027500D02*
X126032500Y-86360000D01*
X127635000Y-86027500D02*
X126365000Y-86027500D01*
X126032500Y-88265000D02*
X127000000Y-89232500D01*
X127000000Y-89232500D02*
X127000000Y-90170000D01*
X124157500Y-86360000D02*
X124157500Y-88265000D01*
X127000000Y-92710000D02*
X127000000Y-91440000D01*
D20*
X129237500Y-92710000D02*
X127000000Y-92710000D01*
D19*
X129237500Y-94010000D02*
X129540000Y-94312500D01*
X129237500Y-92710000D02*
X129237500Y-94010000D01*
X99897500Y-86260000D02*
X99695000Y-86057500D01*
X103535000Y-90170000D02*
X103535000Y-89565000D01*
X103535000Y-89565000D02*
X102870000Y-88900000D01*
X101695000Y-85810000D02*
X101415000Y-85810000D01*
X99695000Y-86057500D02*
X99997500Y-86057500D01*
X99997500Y-86057500D02*
X100245000Y-85810000D01*
X100245000Y-85810000D02*
X100965000Y-85810000D01*
X100965000Y-85810000D02*
X101695000Y-85810000D01*
X121285000Y-89855000D02*
X121600000Y-90170000D01*
X121285000Y-88567500D02*
X121285000Y-89855000D01*
X121285000Y-92395000D02*
X121600000Y-92710000D01*
X116840000Y-101600000D02*
X116840000Y-97155000D01*
X114300000Y-101600000D02*
X114300000Y-97155000D01*
D21*
X99497000Y-78454250D02*
X99655750Y-78613000D01*
X100680000Y-78613000D01*
X100680000Y-78593000D01*
X100934000Y-78593000D01*
X100934000Y-78613000D01*
X101958250Y-78613000D01*
X102117000Y-78454250D01*
X102119657Y-76885000D01*
X102358928Y-76885000D01*
X102358928Y-80340000D01*
X102371188Y-80464482D01*
X102407498Y-80584180D01*
X102466463Y-80694494D01*
X102545815Y-80791185D01*
X102642506Y-80870537D01*
X102752820Y-80929502D01*
X102872001Y-80965655D01*
X102872001Y-81140302D01*
X102711291Y-81189053D01*
X102558836Y-81270542D01*
X102425208Y-81380208D01*
X102315542Y-81513836D01*
X102234053Y-81666291D01*
X102183872Y-81831715D01*
X102166928Y-82003750D01*
X102166928Y-82491250D01*
X102183872Y-82663285D01*
X102234053Y-82828709D01*
X102315542Y-82981164D01*
X102425208Y-83114792D01*
X102510756Y-83185000D01*
X102425208Y-83255208D01*
X102315542Y-83388836D01*
X102234053Y-83541291D01*
X102183872Y-83706715D01*
X102166928Y-83878750D01*
X102166928Y-84366250D01*
X102183872Y-84538285D01*
X102234053Y-84703709D01*
X102315542Y-84856164D01*
X102425208Y-84989792D01*
X102558836Y-85099458D01*
X102711291Y-85180947D01*
X102876715Y-85231128D01*
X103048750Y-85248072D01*
X103109038Y-85248072D01*
X103075498Y-85310820D01*
X103039188Y-85430518D01*
X103026928Y-85555000D01*
X103026928Y-86065000D01*
X103039188Y-86189482D01*
X103068512Y-86286150D01*
X103042221Y-86366140D01*
X103030000Y-86474250D01*
X103188750Y-86633000D01*
X103380593Y-86633000D01*
X103420820Y-86654502D01*
X103540518Y-86690812D01*
X103665000Y-86703072D01*
X104162000Y-86703072D01*
X104162000Y-86816928D01*
X103665000Y-86816928D01*
X103540518Y-86829188D01*
X103420820Y-86865498D01*
X103380593Y-86887000D01*
X103188750Y-86887000D01*
X103030000Y-87045750D01*
X103042221Y-87153860D01*
X103068512Y-87233850D01*
X103039188Y-87330518D01*
X103026928Y-87455000D01*
X103026928Y-87965000D01*
X103028224Y-87978155D01*
X102962089Y-87965000D01*
X102777911Y-87965000D01*
X102681177Y-87984242D01*
X102683072Y-87965000D01*
X102683072Y-87455000D01*
X102670812Y-87330518D01*
X102641488Y-87233850D01*
X102667779Y-87153860D01*
X102680000Y-87045750D01*
X102521250Y-86887000D01*
X102329407Y-86887000D01*
X102289180Y-86865498D01*
X102169482Y-86829188D01*
X102045000Y-86816928D01*
X101548000Y-86816928D01*
X101548000Y-86703072D01*
X102045000Y-86703072D01*
X102169482Y-86690812D01*
X102289180Y-86654502D01*
X102329407Y-86633000D01*
X102521250Y-86633000D01*
X102680000Y-86474250D01*
X102667779Y-86366140D01*
X102641488Y-86286150D01*
X102670812Y-86189482D01*
X102683072Y-86065000D01*
X102683072Y-85555000D01*
X102670812Y-85430518D01*
X102634502Y-85310820D01*
X102575537Y-85200506D01*
X102496185Y-85103815D01*
X102399494Y-85024463D01*
X102289180Y-84965498D01*
X102169482Y-84929188D01*
X102045000Y-84916928D01*
X101345000Y-84916928D01*
X101270030Y-84924312D01*
X101237729Y-84910932D01*
X101057089Y-84875000D01*
X100872911Y-84875000D01*
X100692271Y-84910932D01*
X100522111Y-84981414D01*
X100492600Y-85001133D01*
X100488709Y-84999053D01*
X100323285Y-84948872D01*
X100151250Y-84931928D01*
X99238750Y-84931928D01*
X99066715Y-84948872D01*
X98901291Y-84999053D01*
X98748836Y-85080542D01*
X98615208Y-85190208D01*
X98505542Y-85323836D01*
X98424053Y-85476291D01*
X98373872Y-85641715D01*
X98356928Y-85813750D01*
X98356928Y-86301250D01*
X98373872Y-86473285D01*
X98424053Y-86638709D01*
X98505542Y-86791164D01*
X98615208Y-86924792D01*
X98621564Y-86930008D01*
X98543815Y-86993815D01*
X98464463Y-87090506D01*
X98405498Y-87200820D01*
X98369188Y-87320518D01*
X98356928Y-87445000D01*
X98360000Y-87646750D01*
X98518750Y-87805500D01*
X99568000Y-87805500D01*
X99568000Y-87785500D01*
X99822000Y-87785500D01*
X99822000Y-87805500D01*
X99842000Y-87805500D01*
X99842000Y-88059500D01*
X99822000Y-88059500D01*
X99822000Y-88896250D01*
X99885750Y-88960000D01*
X99852000Y-88993750D01*
X99852000Y-90043000D01*
X99872000Y-90043000D01*
X99872000Y-90297000D01*
X99852000Y-90297000D01*
X99852000Y-91346250D01*
X100010750Y-91505000D01*
X100212500Y-91508072D01*
X100336982Y-91495812D01*
X100456680Y-91459502D01*
X100566994Y-91400537D01*
X100663685Y-91321185D01*
X100727492Y-91243436D01*
X100732708Y-91249792D01*
X100840000Y-91337845D01*
X100840000Y-92037677D01*
X100836324Y-92075000D01*
X100840000Y-92112322D01*
X100840000Y-92112332D01*
X100850997Y-92223985D01*
X100882938Y-92329281D01*
X100894454Y-92367246D01*
X100965026Y-92499276D01*
X100995584Y-92536510D01*
X101059999Y-92615001D01*
X101089003Y-92638804D01*
X103380001Y-94929804D01*
X103380000Y-97117677D01*
X103376324Y-97155000D01*
X103380000Y-97192322D01*
X103380000Y-97192332D01*
X103390997Y-97303985D01*
X103434454Y-97447246D01*
X103505026Y-97579276D01*
X103519091Y-97596414D01*
X103599999Y-97695001D01*
X103629003Y-97718804D01*
X106116205Y-100206008D01*
X106139999Y-100235001D01*
X106168700Y-100258555D01*
X106000273Y-100328320D01*
X105765241Y-100485363D01*
X105565363Y-100685241D01*
X105410000Y-100917759D01*
X105254637Y-100685241D01*
X105054759Y-100485363D01*
X104819727Y-100328320D01*
X104558574Y-100220147D01*
X104281335Y-100165000D01*
X103998665Y-100165000D01*
X103721426Y-100220147D01*
X103460273Y-100328320D01*
X103225241Y-100485363D01*
X103025363Y-100685241D01*
X102868320Y-100920273D01*
X102863933Y-100930865D01*
X102752385Y-100744869D01*
X102563414Y-100536481D01*
X102337420Y-100368963D01*
X102083087Y-100248754D01*
X101949039Y-100208096D01*
X101727000Y-100330085D01*
X101727000Y-101473000D01*
X101747000Y-101473000D01*
X101747000Y-101727000D01*
X101727000Y-101727000D01*
X101727000Y-102869915D01*
X101949039Y-102991904D01*
X102083087Y-102951246D01*
X102337420Y-102831037D01*
X102563414Y-102663519D01*
X102752385Y-102455131D01*
X102863933Y-102269135D01*
X102868320Y-102279727D01*
X103025363Y-102514759D01*
X103225241Y-102714637D01*
X103460273Y-102871680D01*
X103721426Y-102979853D01*
X103998665Y-103035000D01*
X104281335Y-103035000D01*
X104558574Y-102979853D01*
X104819727Y-102871680D01*
X105054759Y-102714637D01*
X105254637Y-102514759D01*
X105410000Y-102282241D01*
X105565363Y-102514759D01*
X105765241Y-102714637D01*
X106000273Y-102871680D01*
X106261426Y-102979853D01*
X106538665Y-103035000D01*
X106821335Y-103035000D01*
X107098574Y-102979853D01*
X107359727Y-102871680D01*
X107594759Y-102714637D01*
X107794637Y-102514759D01*
X107950000Y-102282241D01*
X108105363Y-102514759D01*
X108305241Y-102714637D01*
X108540273Y-102871680D01*
X108801426Y-102979853D01*
X109078665Y-103035000D01*
X109361335Y-103035000D01*
X109638574Y-102979853D01*
X109899727Y-102871680D01*
X110134759Y-102714637D01*
X110334637Y-102514759D01*
X110490000Y-102282241D01*
X110645363Y-102514759D01*
X110845241Y-102714637D01*
X111080273Y-102871680D01*
X111341426Y-102979853D01*
X111618665Y-103035000D01*
X111901335Y-103035000D01*
X112178574Y-102979853D01*
X112439727Y-102871680D01*
X112674759Y-102714637D01*
X112874637Y-102514759D01*
X113030000Y-102282241D01*
X113185363Y-102514759D01*
X113385241Y-102714637D01*
X113620273Y-102871680D01*
X113881426Y-102979853D01*
X114158665Y-103035000D01*
X114441335Y-103035000D01*
X114718574Y-102979853D01*
X114979727Y-102871680D01*
X115214759Y-102714637D01*
X115414637Y-102514759D01*
X115570000Y-102282241D01*
X115725363Y-102514759D01*
X115925241Y-102714637D01*
X116160273Y-102871680D01*
X116421426Y-102979853D01*
X116698665Y-103035000D01*
X116981335Y-103035000D01*
X117258574Y-102979853D01*
X117519727Y-102871680D01*
X117754759Y-102714637D01*
X117954637Y-102514759D01*
X118110000Y-102282241D01*
X118265363Y-102514759D01*
X118465241Y-102714637D01*
X118700273Y-102871680D01*
X118961426Y-102979853D01*
X119238665Y-103035000D01*
X119521335Y-103035000D01*
X119798574Y-102979853D01*
X120059727Y-102871680D01*
X120294759Y-102714637D01*
X120494637Y-102514759D01*
X120650000Y-102282241D01*
X120805363Y-102514759D01*
X121005241Y-102714637D01*
X121240273Y-102871680D01*
X121501426Y-102979853D01*
X121778665Y-103035000D01*
X122061335Y-103035000D01*
X122338574Y-102979853D01*
X122599727Y-102871680D01*
X122834759Y-102714637D01*
X123034637Y-102514759D01*
X123190000Y-102282241D01*
X123345363Y-102514759D01*
X123545241Y-102714637D01*
X123780273Y-102871680D01*
X124041426Y-102979853D01*
X124318665Y-103035000D01*
X124601335Y-103035000D01*
X124878574Y-102979853D01*
X125139727Y-102871680D01*
X125374759Y-102714637D01*
X125574637Y-102514759D01*
X125730000Y-102282241D01*
X125885363Y-102514759D01*
X126085241Y-102714637D01*
X126320273Y-102871680D01*
X126581426Y-102979853D01*
X126858665Y-103035000D01*
X127141335Y-103035000D01*
X127418574Y-102979853D01*
X127679727Y-102871680D01*
X127914759Y-102714637D01*
X128114637Y-102514759D01*
X128270000Y-102282241D01*
X128425363Y-102514759D01*
X128625241Y-102714637D01*
X128860273Y-102871680D01*
X129121426Y-102979853D01*
X129398665Y-103035000D01*
X129681335Y-103035000D01*
X129958574Y-102979853D01*
X130219727Y-102871680D01*
X130454759Y-102714637D01*
X130654637Y-102514759D01*
X130810000Y-102282241D01*
X130965363Y-102514759D01*
X131165241Y-102714637D01*
X131400273Y-102871680D01*
X131661426Y-102979853D01*
X131938665Y-103035000D01*
X132221335Y-103035000D01*
X132498574Y-102979853D01*
X132759727Y-102871680D01*
X132994759Y-102714637D01*
X133194637Y-102514759D01*
X133350000Y-102282241D01*
X133505363Y-102514759D01*
X133705241Y-102714637D01*
X133940273Y-102871680D01*
X134201426Y-102979853D01*
X134478665Y-103035000D01*
X134761335Y-103035000D01*
X135038574Y-102979853D01*
X135299727Y-102871680D01*
X135534759Y-102714637D01*
X135734637Y-102514759D01*
X135891680Y-102279727D01*
X135999853Y-102018574D01*
X136055000Y-101741335D01*
X136055000Y-101458665D01*
X135999853Y-101181426D01*
X135891680Y-100920273D01*
X135734637Y-100685241D01*
X135534759Y-100485363D01*
X135299727Y-100328320D01*
X135038574Y-100220147D01*
X134761335Y-100165000D01*
X134478665Y-100165000D01*
X134201426Y-100220147D01*
X133940273Y-100328320D01*
X133705241Y-100485363D01*
X133505363Y-100685241D01*
X133350000Y-100917759D01*
X133194637Y-100685241D01*
X132994759Y-100485363D01*
X132759727Y-100328320D01*
X132498574Y-100220147D01*
X132221335Y-100165000D01*
X131938665Y-100165000D01*
X131661426Y-100220147D01*
X131400273Y-100328320D01*
X131165241Y-100485363D01*
X130965363Y-100685241D01*
X130810000Y-100917759D01*
X130654637Y-100685241D01*
X130454759Y-100485363D01*
X130219727Y-100328320D01*
X129958574Y-100220147D01*
X129681335Y-100165000D01*
X129398665Y-100165000D01*
X129121426Y-100220147D01*
X128860273Y-100328320D01*
X128625241Y-100485363D01*
X128425363Y-100685241D01*
X128270000Y-100917759D01*
X128114637Y-100685241D01*
X127914759Y-100485363D01*
X127679727Y-100328320D01*
X127418574Y-100220147D01*
X127141335Y-100165000D01*
X126858665Y-100165000D01*
X126581426Y-100220147D01*
X126320273Y-100328320D01*
X126085241Y-100485363D01*
X125885363Y-100685241D01*
X125730000Y-100917759D01*
X125574637Y-100685241D01*
X125374759Y-100485363D01*
X125139727Y-100328320D01*
X124878574Y-100220147D01*
X124601335Y-100165000D01*
X124318665Y-100165000D01*
X124041426Y-100220147D01*
X123780273Y-100328320D01*
X123545241Y-100485363D01*
X123345363Y-100685241D01*
X123190000Y-100917759D01*
X123034637Y-100685241D01*
X122834759Y-100485363D01*
X122680000Y-100381957D01*
X122680000Y-99036302D01*
X122760820Y-99079502D01*
X122880518Y-99115812D01*
X123005000Y-99128072D01*
X123206750Y-99125000D01*
X123365500Y-98966250D01*
X123365500Y-97917000D01*
X123619500Y-97917000D01*
X123619500Y-98966250D01*
X123778250Y-99125000D01*
X123980000Y-99128072D01*
X124104482Y-99115812D01*
X124224180Y-99079502D01*
X124334494Y-99020537D01*
X124431185Y-98941185D01*
X124510537Y-98844494D01*
X124569502Y-98734180D01*
X124605812Y-98614482D01*
X124618072Y-98490000D01*
X124615000Y-98075750D01*
X124456250Y-97917000D01*
X123619500Y-97917000D01*
X123365500Y-97917000D01*
X123345500Y-97917000D01*
X123345500Y-97663000D01*
X123365500Y-97663000D01*
X123365500Y-96012000D01*
X123619500Y-96012000D01*
X123619500Y-97663000D01*
X124456250Y-97663000D01*
X124615000Y-97504250D01*
X124618072Y-97090000D01*
X124605812Y-96965518D01*
X124569502Y-96845820D01*
X124565055Y-96837500D01*
X124569502Y-96829180D01*
X124605812Y-96709482D01*
X124618072Y-96585000D01*
X124615000Y-96170750D01*
X124456250Y-96012000D01*
X123619500Y-96012000D01*
X123365500Y-96012000D01*
X123345500Y-96012000D01*
X123345500Y-95758000D01*
X123365500Y-95758000D01*
X123365500Y-94708750D01*
X123619500Y-94708750D01*
X123619500Y-95758000D01*
X124456250Y-95758000D01*
X124615000Y-95599250D01*
X124618072Y-95185000D01*
X124605812Y-95060518D01*
X124569502Y-94940820D01*
X124510537Y-94830506D01*
X124431185Y-94733815D01*
X124334494Y-94654463D01*
X124224180Y-94595498D01*
X124104482Y-94559188D01*
X123980000Y-94546928D01*
X123778250Y-94550000D01*
X123619500Y-94708750D01*
X123365500Y-94708750D01*
X123206750Y-94550000D01*
X123005000Y-94546928D01*
X122949417Y-94552402D01*
X122964502Y-94524180D01*
X123000812Y-94404482D01*
X123013072Y-94280000D01*
X123013072Y-93680000D01*
X123000812Y-93555518D01*
X122964502Y-93435820D01*
X122915957Y-93345000D01*
X122964502Y-93254180D01*
X123000812Y-93134482D01*
X123013072Y-93010000D01*
X123013072Y-92410000D01*
X123000812Y-92285518D01*
X122964502Y-92165820D01*
X122915957Y-92075000D01*
X122964502Y-91984180D01*
X123000812Y-91864482D01*
X123013072Y-91740000D01*
X123010000Y-91725750D01*
X122851250Y-91567000D01*
X121727000Y-91567000D01*
X121727000Y-91587000D01*
X121473000Y-91587000D01*
X121473000Y-91567000D01*
X120348750Y-91567000D01*
X120190000Y-91725750D01*
X120186928Y-91740000D01*
X120199188Y-91864482D01*
X120235498Y-91984180D01*
X120284043Y-92075000D01*
X120235498Y-92165820D01*
X120199188Y-92285518D01*
X120186928Y-92410000D01*
X120186928Y-93010000D01*
X120199188Y-93134482D01*
X120235498Y-93254180D01*
X120284043Y-93345000D01*
X120235498Y-93435820D01*
X120199188Y-93555518D01*
X120186928Y-93680000D01*
X120186928Y-94280000D01*
X120199188Y-94404482D01*
X120235498Y-94524180D01*
X120294463Y-94634494D01*
X120373815Y-94731185D01*
X120470506Y-94810537D01*
X120580820Y-94869502D01*
X120674197Y-94897828D01*
X120640542Y-94938836D01*
X120559053Y-95091291D01*
X120508872Y-95256715D01*
X120491928Y-95428750D01*
X120491928Y-96341250D01*
X120508872Y-96513285D01*
X120559053Y-96678709D01*
X120640542Y-96831164D01*
X120645742Y-96837500D01*
X120640542Y-96843836D01*
X120559053Y-96996291D01*
X120508872Y-97161715D01*
X120491928Y-97333750D01*
X120491928Y-98246250D01*
X120508872Y-98418285D01*
X120559053Y-98583709D01*
X120640542Y-98736164D01*
X120750208Y-98869792D01*
X120883836Y-98979458D01*
X121036291Y-99060947D01*
X121160001Y-99098474D01*
X121160000Y-100381956D01*
X121005241Y-100485363D01*
X120805363Y-100685241D01*
X120650000Y-100917759D01*
X120494637Y-100685241D01*
X120294759Y-100485363D01*
X120059727Y-100328320D01*
X119798574Y-100220147D01*
X119521335Y-100165000D01*
X119238665Y-100165000D01*
X118961426Y-100220147D01*
X118700273Y-100328320D01*
X118465241Y-100485363D01*
X118265363Y-100685241D01*
X118110000Y-100917759D01*
X117954637Y-100685241D01*
X117754759Y-100485363D01*
X117600000Y-100381957D01*
X117600000Y-98433178D01*
X117786632Y-98308475D01*
X117993475Y-98101632D01*
X118155990Y-97858411D01*
X118267932Y-97588158D01*
X118325000Y-97301260D01*
X118325000Y-97008740D01*
X118267932Y-96721842D01*
X118155990Y-96451589D01*
X117993475Y-96208368D01*
X117786632Y-96001525D01*
X117543411Y-95839010D01*
X117273158Y-95727068D01*
X116986260Y-95670000D01*
X116693740Y-95670000D01*
X116406842Y-95727068D01*
X116136589Y-95839010D01*
X115893368Y-96001525D01*
X115686525Y-96208368D01*
X115570000Y-96382760D01*
X115453475Y-96208368D01*
X115246632Y-96001525D01*
X115003411Y-95839010D01*
X114733158Y-95727068D01*
X114446260Y-95670000D01*
X114153740Y-95670000D01*
X113866842Y-95727068D01*
X113596589Y-95839010D01*
X113353368Y-96001525D01*
X113146525Y-96208368D01*
X113030000Y-96382760D01*
X112913475Y-96208368D01*
X112706632Y-96001525D01*
X112463411Y-95839010D01*
X112193158Y-95727068D01*
X111906260Y-95670000D01*
X111613740Y-95670000D01*
X111326842Y-95727068D01*
X111056589Y-95839010D01*
X110813368Y-96001525D01*
X110681513Y-96133380D01*
X110659502Y-96060820D01*
X110600537Y-95950506D01*
X110521185Y-95853815D01*
X110424494Y-95774463D01*
X110314180Y-95715498D01*
X110194482Y-95679188D01*
X110070000Y-95666928D01*
X109505750Y-95670000D01*
X109347000Y-95828750D01*
X109347000Y-97028000D01*
X109367000Y-97028000D01*
X109367000Y-97282000D01*
X109347000Y-97282000D01*
X109347000Y-98481250D01*
X109505750Y-98640000D01*
X110070000Y-98643072D01*
X110194482Y-98630812D01*
X110314180Y-98594502D01*
X110424494Y-98535537D01*
X110521185Y-98456185D01*
X110600537Y-98359494D01*
X110659502Y-98249180D01*
X110681513Y-98176620D01*
X110813368Y-98308475D01*
X111056589Y-98470990D01*
X111326842Y-98582932D01*
X111613740Y-98640000D01*
X111906260Y-98640000D01*
X112193158Y-98582932D01*
X112463411Y-98470990D01*
X112706632Y-98308475D01*
X112913475Y-98101632D01*
X113030000Y-97927240D01*
X113146525Y-98101632D01*
X113353368Y-98308475D01*
X113540001Y-98433179D01*
X113540000Y-100381956D01*
X113385241Y-100485363D01*
X113185363Y-100685241D01*
X113030000Y-100917759D01*
X112874637Y-100685241D01*
X112674759Y-100485363D01*
X112439727Y-100328320D01*
X112178574Y-100220147D01*
X111901335Y-100165000D01*
X111618665Y-100165000D01*
X111341426Y-100220147D01*
X111080273Y-100328320D01*
X110845241Y-100485363D01*
X110645363Y-100685241D01*
X110490000Y-100917759D01*
X110334637Y-100685241D01*
X110134759Y-100485363D01*
X109974798Y-100378481D01*
X109969003Y-100319644D01*
X109925546Y-100176383D01*
X109895021Y-100119275D01*
X109854974Y-100044353D01*
X109783799Y-99957627D01*
X109760001Y-99928629D01*
X109731002Y-99904831D01*
X109010173Y-99184002D01*
X108986371Y-99154999D01*
X108870646Y-99060026D01*
X108738617Y-98989454D01*
X108595356Y-98945997D01*
X108483703Y-98935000D01*
X108483692Y-98935000D01*
X108446370Y-98931324D01*
X108409048Y-98935000D01*
X106994803Y-98935000D01*
X106064803Y-98005000D01*
X107731928Y-98005000D01*
X107744188Y-98129482D01*
X107780498Y-98249180D01*
X107839463Y-98359494D01*
X107918815Y-98456185D01*
X108015506Y-98535537D01*
X108125820Y-98594502D01*
X108245518Y-98630812D01*
X108370000Y-98643072D01*
X108934250Y-98640000D01*
X109093000Y-98481250D01*
X109093000Y-97282000D01*
X107893750Y-97282000D01*
X107735000Y-97440750D01*
X107731928Y-98005000D01*
X106064803Y-98005000D01*
X104900000Y-96840199D01*
X104900000Y-96305000D01*
X107731928Y-96305000D01*
X107735000Y-96869250D01*
X107893750Y-97028000D01*
X109093000Y-97028000D01*
X109093000Y-95828750D01*
X108934250Y-95670000D01*
X108370000Y-95666928D01*
X108245518Y-95679188D01*
X108125820Y-95715498D01*
X108015506Y-95774463D01*
X107918815Y-95853815D01*
X107839463Y-95950506D01*
X107780498Y-96060820D01*
X107744188Y-96180518D01*
X107731928Y-96305000D01*
X104900000Y-96305000D01*
X104900000Y-94652322D01*
X104903676Y-94614999D01*
X104900000Y-94577676D01*
X104900000Y-94577667D01*
X104889003Y-94466014D01*
X104845546Y-94322753D01*
X104774974Y-94190724D01*
X104748927Y-94158986D01*
X104703799Y-94103996D01*
X104703795Y-94103992D01*
X104680001Y-94074999D01*
X104651008Y-94051205D01*
X102360000Y-91760199D01*
X102360000Y-91337845D01*
X102467292Y-91249792D01*
X102567500Y-91127689D01*
X102667708Y-91249792D01*
X102801336Y-91359458D01*
X102953791Y-91440947D01*
X103119215Y-91491128D01*
X103291250Y-91508072D01*
X103778750Y-91508072D01*
X103950785Y-91491128D01*
X104116209Y-91440947D01*
X104268664Y-91359458D01*
X104402292Y-91249792D01*
X104472500Y-91164244D01*
X104542708Y-91249792D01*
X104676336Y-91359458D01*
X104828791Y-91440947D01*
X104994215Y-91491128D01*
X105166250Y-91508072D01*
X105496493Y-91508072D01*
X105783791Y-91795369D01*
X105780932Y-91802271D01*
X105745000Y-91982911D01*
X105745000Y-92167089D01*
X105780932Y-92347729D01*
X105851414Y-92517889D01*
X105953738Y-92671028D01*
X106083972Y-92801262D01*
X106237111Y-92903586D01*
X106407271Y-92974068D01*
X106587911Y-93010000D01*
X106772089Y-93010000D01*
X106952729Y-92974068D01*
X107122889Y-92903586D01*
X107276028Y-92801262D01*
X107406262Y-92671028D01*
X107508586Y-92517889D01*
X107579068Y-92347729D01*
X107615000Y-92167089D01*
X107615000Y-91982911D01*
X107579068Y-91802271D01*
X107565000Y-91768308D01*
X107565000Y-91483465D01*
X107569281Y-91439999D01*
X107565000Y-91396533D01*
X107565000Y-91396523D01*
X107552195Y-91266510D01*
X107501589Y-91099687D01*
X107419411Y-90945941D01*
X107381707Y-90899999D01*
X107336532Y-90844953D01*
X107336530Y-90844951D01*
X107308817Y-90811183D01*
X107275049Y-90783470D01*
X106535572Y-90043994D01*
X106535572Y-89713750D01*
X106518628Y-89541715D01*
X106472779Y-89390572D01*
X106501250Y-89390572D01*
X106673285Y-89373628D01*
X106838709Y-89323447D01*
X106991164Y-89241958D01*
X107124792Y-89132292D01*
X107234458Y-88998664D01*
X107315947Y-88846209D01*
X107366128Y-88680785D01*
X107383072Y-88508750D01*
X107383072Y-88021250D01*
X107366128Y-87849215D01*
X107315947Y-87683791D01*
X107234458Y-87531336D01*
X107124792Y-87397708D01*
X107118436Y-87392492D01*
X107196185Y-87328685D01*
X107275537Y-87231994D01*
X107303328Y-87180000D01*
X119946928Y-87180000D01*
X119959188Y-87304482D01*
X119995498Y-87424180D01*
X120054463Y-87534494D01*
X120133815Y-87631185D01*
X120211564Y-87694992D01*
X120205208Y-87700208D01*
X120095542Y-87833836D01*
X120014053Y-87986291D01*
X119963872Y-88151715D01*
X119946928Y-88323750D01*
X119946928Y-88811250D01*
X119963872Y-88983285D01*
X120014053Y-89148709D01*
X120095542Y-89301164D01*
X120205208Y-89434792D01*
X120298123Y-89511046D01*
X120294463Y-89515506D01*
X120235498Y-89625820D01*
X120199188Y-89745518D01*
X120186928Y-89870000D01*
X120186928Y-90470000D01*
X120199188Y-90594482D01*
X120235498Y-90714180D01*
X120284043Y-90805000D01*
X120235498Y-90895820D01*
X120199188Y-91015518D01*
X120186928Y-91140000D01*
X120190000Y-91154250D01*
X120348750Y-91313000D01*
X121473000Y-91313000D01*
X121473000Y-91293000D01*
X121727000Y-91293000D01*
X121727000Y-91313000D01*
X122851250Y-91313000D01*
X123010000Y-91154250D01*
X123013072Y-91140000D01*
X123000812Y-91015518D01*
X122964502Y-90895820D01*
X122915957Y-90805000D01*
X122964502Y-90714180D01*
X123000812Y-90594482D01*
X123013072Y-90470000D01*
X123013072Y-89870000D01*
X123000812Y-89745518D01*
X122964502Y-89625820D01*
X122905537Y-89515506D01*
X122826185Y-89418815D01*
X122729494Y-89339463D01*
X122619180Y-89280498D01*
X122504155Y-89245605D01*
X122555947Y-89148709D01*
X122606128Y-88983285D01*
X122623072Y-88811250D01*
X122623072Y-88323750D01*
X122606128Y-88151715D01*
X122555947Y-87986291D01*
X122474458Y-87833836D01*
X122364792Y-87700208D01*
X122358436Y-87694992D01*
X122436185Y-87631185D01*
X122515537Y-87534494D01*
X122574502Y-87424180D01*
X122610812Y-87304482D01*
X122623072Y-87180000D01*
X122620000Y-86978250D01*
X122461250Y-86819500D01*
X121412000Y-86819500D01*
X121412000Y-86839500D01*
X121158000Y-86839500D01*
X121158000Y-86819500D01*
X120108750Y-86819500D01*
X119950000Y-86978250D01*
X119946928Y-87180000D01*
X107303328Y-87180000D01*
X107334502Y-87121680D01*
X107370812Y-87001982D01*
X107383072Y-86877500D01*
X107380000Y-86675750D01*
X107221250Y-86517000D01*
X106172000Y-86517000D01*
X106172000Y-86537000D01*
X105918000Y-86537000D01*
X105918000Y-86517000D01*
X105898000Y-86517000D01*
X105898000Y-86263000D01*
X105918000Y-86263000D01*
X105918000Y-85426250D01*
X106172000Y-85426250D01*
X106172000Y-86263000D01*
X107221250Y-86263000D01*
X107279250Y-86205000D01*
X119946928Y-86205000D01*
X119950000Y-86406750D01*
X120108750Y-86565500D01*
X121158000Y-86565500D01*
X121158000Y-85728750D01*
X121412000Y-85728750D01*
X121412000Y-86565500D01*
X122461250Y-86565500D01*
X122620000Y-86406750D01*
X122623072Y-86205000D01*
X122610812Y-86080518D01*
X122574502Y-85960820D01*
X122515537Y-85850506D01*
X122436185Y-85753815D01*
X122339494Y-85674463D01*
X122229180Y-85615498D01*
X122109482Y-85579188D01*
X121985000Y-85566928D01*
X121570750Y-85570000D01*
X121412000Y-85728750D01*
X121158000Y-85728750D01*
X120999250Y-85570000D01*
X120585000Y-85566928D01*
X120460518Y-85579188D01*
X120340820Y-85615498D01*
X120230506Y-85674463D01*
X120133815Y-85753815D01*
X120054463Y-85850506D01*
X119995498Y-85960820D01*
X119959188Y-86080518D01*
X119946928Y-86205000D01*
X107279250Y-86205000D01*
X107380000Y-86104250D01*
X107383072Y-85902500D01*
X107370812Y-85778018D01*
X107334502Y-85658320D01*
X107275537Y-85548006D01*
X107196185Y-85451315D01*
X107099494Y-85371963D01*
X106989180Y-85312998D01*
X106869482Y-85276688D01*
X106745000Y-85264428D01*
X106330750Y-85267500D01*
X106172000Y-85426250D01*
X105918000Y-85426250D01*
X105759250Y-85267500D01*
X105345000Y-85264428D01*
X105220518Y-85276688D01*
X105100820Y-85312998D01*
X104990506Y-85371963D01*
X104976529Y-85383434D01*
X104954502Y-85310820D01*
X104895537Y-85200506D01*
X104816185Y-85103815D01*
X104775000Y-85070015D01*
X104775000Y-84705481D01*
X104775947Y-84703709D01*
X104826128Y-84538285D01*
X104843072Y-84366250D01*
X104843072Y-83878750D01*
X104826128Y-83706715D01*
X104775947Y-83541291D01*
X104694458Y-83388836D01*
X104584792Y-83255208D01*
X104578447Y-83250000D01*
X124634428Y-83250000D01*
X124646688Y-83374482D01*
X124682998Y-83494180D01*
X124741963Y-83604494D01*
X124821315Y-83701185D01*
X124918006Y-83780537D01*
X125028320Y-83839502D01*
X125148018Y-83875812D01*
X125272500Y-83888072D01*
X125474250Y-83885000D01*
X125633000Y-83726250D01*
X125633000Y-82677000D01*
X124796250Y-82677000D01*
X124637500Y-82835750D01*
X124634428Y-83250000D01*
X104578447Y-83250000D01*
X104499244Y-83185000D01*
X104584792Y-83114792D01*
X104694458Y-82981164D01*
X104775947Y-82828709D01*
X104826128Y-82663285D01*
X104843072Y-82491250D01*
X104843072Y-82003750D01*
X104826128Y-81831715D01*
X104775947Y-81666291D01*
X104694458Y-81513836D01*
X104584792Y-81380208D01*
X104451164Y-81270542D01*
X104392000Y-81238918D01*
X104392000Y-80965655D01*
X104511180Y-80929502D01*
X104621494Y-80870537D01*
X104658703Y-80840000D01*
X105143928Y-80840000D01*
X105156188Y-80964482D01*
X105192498Y-81084180D01*
X105251463Y-81194494D01*
X105330815Y-81291185D01*
X105427506Y-81370537D01*
X105537820Y-81429502D01*
X105657518Y-81465812D01*
X105782000Y-81478072D01*
X106171250Y-81475000D01*
X106330000Y-81316250D01*
X106330000Y-78867000D01*
X106584000Y-78867000D01*
X106584000Y-81316250D01*
X106742750Y-81475000D01*
X107132000Y-81478072D01*
X107256482Y-81465812D01*
X107376180Y-81429502D01*
X107486494Y-81370537D01*
X107583185Y-81291185D01*
X107662537Y-81194494D01*
X107721502Y-81084180D01*
X107757812Y-80964482D01*
X107770072Y-80840000D01*
X107767000Y-79025750D01*
X107608250Y-78867000D01*
X106584000Y-78867000D01*
X106330000Y-78867000D01*
X105305750Y-78867000D01*
X105147000Y-79025750D01*
X105143928Y-80840000D01*
X104658703Y-80840000D01*
X104718185Y-80791185D01*
X104797537Y-80694494D01*
X104856502Y-80584180D01*
X104892812Y-80464482D01*
X104905072Y-80340000D01*
X104905072Y-76885000D01*
X105144343Y-76885000D01*
X105147000Y-78454250D01*
X105305750Y-78613000D01*
X106330000Y-78613000D01*
X106330000Y-78593000D01*
X106584000Y-78593000D01*
X106584000Y-78613000D01*
X107608250Y-78613000D01*
X107767000Y-78454250D01*
X107769657Y-76885000D01*
X123497343Y-76885000D01*
X123500000Y-78454250D01*
X123658750Y-78613000D01*
X124683000Y-78613000D01*
X124683000Y-78593000D01*
X124937000Y-78593000D01*
X124937000Y-78613000D01*
X125961250Y-78613000D01*
X126120000Y-78454250D01*
X126122657Y-76885000D01*
X126361928Y-76885000D01*
X126361928Y-80340000D01*
X126374188Y-80464482D01*
X126410498Y-80584180D01*
X126469463Y-80694494D01*
X126548815Y-80791185D01*
X126645506Y-80870537D01*
X126755820Y-80929502D01*
X126875001Y-80965655D01*
X126875001Y-81382155D01*
X126767708Y-81470208D01*
X126762492Y-81476564D01*
X126698685Y-81398815D01*
X126601994Y-81319463D01*
X126491680Y-81260498D01*
X126371982Y-81224188D01*
X126247500Y-81211928D01*
X126045750Y-81215000D01*
X125887002Y-81373748D01*
X125887002Y-81331548D01*
X125936185Y-81291185D01*
X126015537Y-81194494D01*
X126074502Y-81084180D01*
X126110812Y-80964482D01*
X126123072Y-80840000D01*
X126120000Y-79025750D01*
X125961250Y-78867000D01*
X124937000Y-78867000D01*
X124937000Y-78887000D01*
X124683000Y-78887000D01*
X124683000Y-78867000D01*
X123658750Y-78867000D01*
X123500000Y-79025750D01*
X123496928Y-80840000D01*
X123509188Y-80964482D01*
X123545498Y-81084180D01*
X123604463Y-81194494D01*
X123683815Y-81291185D01*
X123780506Y-81370537D01*
X123890820Y-81429502D01*
X124010518Y-81465812D01*
X124135000Y-81478072D01*
X124524250Y-81475000D01*
X124682998Y-81316252D01*
X124682998Y-81475000D01*
X124758792Y-81475000D01*
X124741963Y-81495506D01*
X124682998Y-81605820D01*
X124646688Y-81725518D01*
X124634428Y-81850000D01*
X124637500Y-82264250D01*
X124796250Y-82423000D01*
X125633000Y-82423000D01*
X125633000Y-82403000D01*
X125887000Y-82403000D01*
X125887000Y-82423000D01*
X125907000Y-82423000D01*
X125907000Y-82677000D01*
X125887000Y-82677000D01*
X125887000Y-83726250D01*
X126045750Y-83885000D01*
X126247500Y-83888072D01*
X126299469Y-83882954D01*
X126296928Y-83908750D01*
X126296928Y-84396250D01*
X126313872Y-84568285D01*
X126364053Y-84733709D01*
X126445542Y-84886164D01*
X126555208Y-85019792D01*
X126640756Y-85090000D01*
X126630787Y-85098182D01*
X126613709Y-85089053D01*
X126448285Y-85038872D01*
X126276250Y-85021928D01*
X125788750Y-85021928D01*
X125616715Y-85038872D01*
X125451291Y-85089053D01*
X125298836Y-85170542D01*
X125165208Y-85280208D01*
X125095000Y-85365756D01*
X125024792Y-85280208D01*
X124891164Y-85170542D01*
X124738709Y-85089053D01*
X124573285Y-85038872D01*
X124401250Y-85021928D01*
X123913750Y-85021928D01*
X123741715Y-85038872D01*
X123576291Y-85089053D01*
X123423836Y-85170542D01*
X123290208Y-85280208D01*
X123180542Y-85413836D01*
X123099053Y-85566291D01*
X123048872Y-85731715D01*
X123031928Y-85903750D01*
X123031928Y-86816250D01*
X123048872Y-86988285D01*
X123099053Y-87153709D01*
X123180542Y-87306164D01*
X123185742Y-87312500D01*
X123180542Y-87318836D01*
X123099053Y-87471291D01*
X123048872Y-87636715D01*
X123031928Y-87808750D01*
X123031928Y-88721250D01*
X123048872Y-88893285D01*
X123099053Y-89058709D01*
X123180542Y-89211164D01*
X123290208Y-89344792D01*
X123423836Y-89454458D01*
X123576291Y-89535947D01*
X123741715Y-89586128D01*
X123913750Y-89603072D01*
X124401250Y-89603072D01*
X124573285Y-89586128D01*
X124738709Y-89535947D01*
X124891164Y-89454458D01*
X125024792Y-89344792D01*
X125095000Y-89259244D01*
X125165208Y-89344792D01*
X125298836Y-89454458D01*
X125451291Y-89535947D01*
X125616715Y-89586128D01*
X125654714Y-89589871D01*
X125635498Y-89625820D01*
X125599188Y-89745518D01*
X125586928Y-89870000D01*
X125586928Y-90470000D01*
X125599188Y-90594482D01*
X125635498Y-90714180D01*
X125684043Y-90805000D01*
X125635498Y-90895820D01*
X125599188Y-91015518D01*
X125586928Y-91140000D01*
X125586928Y-91740000D01*
X125599188Y-91864482D01*
X125635498Y-91984180D01*
X125684043Y-92075000D01*
X125635498Y-92165820D01*
X125599188Y-92285518D01*
X125586928Y-92410000D01*
X125586928Y-93010000D01*
X125599188Y-93134482D01*
X125635498Y-93254180D01*
X125684043Y-93345000D01*
X125635498Y-93435820D01*
X125599188Y-93555518D01*
X125586928Y-93680000D01*
X125586928Y-94280000D01*
X125599188Y-94404482D01*
X125635498Y-94524180D01*
X125694463Y-94634494D01*
X125773815Y-94731185D01*
X125870506Y-94810537D01*
X125980820Y-94869502D01*
X126100518Y-94905812D01*
X126225000Y-94918072D01*
X127775000Y-94918072D01*
X127899482Y-94905812D01*
X128019180Y-94869502D01*
X128129494Y-94810537D01*
X128221034Y-94735412D01*
X128269053Y-94893709D01*
X128350542Y-95046164D01*
X128460208Y-95179792D01*
X128545756Y-95250000D01*
X128460208Y-95320208D01*
X128350542Y-95453836D01*
X128269053Y-95606291D01*
X128218872Y-95771715D01*
X128201928Y-95943750D01*
X128201928Y-96431250D01*
X128218872Y-96603285D01*
X128269053Y-96768709D01*
X128350542Y-96921164D01*
X128460208Y-97054792D01*
X128593836Y-97164458D01*
X128655001Y-97197151D01*
X128655000Y-98118307D01*
X128640932Y-98152271D01*
X128605000Y-98332911D01*
X128605000Y-98517089D01*
X128640932Y-98697729D01*
X128711414Y-98867889D01*
X128813738Y-99021028D01*
X128943972Y-99151262D01*
X129097111Y-99253586D01*
X129267271Y-99324068D01*
X129447911Y-99360000D01*
X129632089Y-99360000D01*
X129812729Y-99324068D01*
X129982889Y-99253586D01*
X130136028Y-99151262D01*
X130266262Y-99021028D01*
X130368586Y-98867889D01*
X130439068Y-98697729D01*
X130475000Y-98517089D01*
X130475000Y-98332911D01*
X130439068Y-98152271D01*
X130425000Y-98118308D01*
X130425000Y-97197151D01*
X130486164Y-97164458D01*
X130492500Y-97159258D01*
X130498836Y-97164458D01*
X130651291Y-97245947D01*
X130816715Y-97296128D01*
X130988750Y-97313072D01*
X131901250Y-97313072D01*
X132073285Y-97296128D01*
X132238709Y-97245947D01*
X132391164Y-97164458D01*
X132524792Y-97054792D01*
X132634458Y-96921164D01*
X132715947Y-96768709D01*
X132766128Y-96603285D01*
X132783072Y-96431250D01*
X132783072Y-95943750D01*
X132766128Y-95771715D01*
X132715947Y-95606291D01*
X132634458Y-95453836D01*
X132524792Y-95320208D01*
X132518436Y-95314992D01*
X132596185Y-95251185D01*
X132675537Y-95154494D01*
X132734502Y-95044180D01*
X132770812Y-94924482D01*
X132783072Y-94800000D01*
X132780000Y-94598250D01*
X132621250Y-94439500D01*
X131572000Y-94439500D01*
X131572000Y-94459500D01*
X131318000Y-94459500D01*
X131318000Y-94439500D01*
X131298000Y-94439500D01*
X131298000Y-94185500D01*
X131318000Y-94185500D01*
X131318000Y-94165500D01*
X131572000Y-94165500D01*
X131572000Y-94185500D01*
X132621250Y-94185500D01*
X132780000Y-94026750D01*
X132783072Y-93825000D01*
X132770812Y-93700518D01*
X132734502Y-93580820D01*
X132675537Y-93470506D01*
X132596185Y-93373815D01*
X132499494Y-93294463D01*
X132389180Y-93235498D01*
X132269482Y-93199188D01*
X132236485Y-93195938D01*
X132235000Y-92995750D01*
X132076250Y-92837000D01*
X131239500Y-92837000D01*
X131239500Y-92857000D01*
X130985500Y-92857000D01*
X130985500Y-92837000D01*
X130965500Y-92837000D01*
X130965500Y-92583000D01*
X130985500Y-92583000D01*
X130985500Y-91533750D01*
X131239500Y-91533750D01*
X131239500Y-92583000D01*
X132076250Y-92583000D01*
X132235000Y-92424250D01*
X132238072Y-92010000D01*
X132225812Y-91885518D01*
X132189502Y-91765820D01*
X132130537Y-91655506D01*
X132051185Y-91558815D01*
X131954494Y-91479463D01*
X131844180Y-91420498D01*
X131724482Y-91384188D01*
X131600000Y-91371928D01*
X131398250Y-91375000D01*
X131239500Y-91533750D01*
X130985500Y-91533750D01*
X130826750Y-91375000D01*
X130625000Y-91371928D01*
X130500518Y-91384188D01*
X130380820Y-91420498D01*
X130270506Y-91479463D01*
X130173815Y-91558815D01*
X130110008Y-91636564D01*
X130104792Y-91630208D01*
X129971164Y-91520542D01*
X129818709Y-91439053D01*
X129653285Y-91388872D01*
X129481250Y-91371928D01*
X128993750Y-91371928D01*
X128821715Y-91388872D01*
X128656291Y-91439053D01*
X128503836Y-91520542D01*
X128413072Y-91595030D01*
X128413072Y-91140000D01*
X128400812Y-91015518D01*
X128364502Y-90895820D01*
X128315957Y-90805000D01*
X128364502Y-90714180D01*
X128400812Y-90594482D01*
X128413072Y-90470000D01*
X128413072Y-89870000D01*
X128400812Y-89745518D01*
X128364502Y-89625820D01*
X128305537Y-89515506D01*
X128226185Y-89418815D01*
X128129494Y-89339463D01*
X128019180Y-89280498D01*
X127899482Y-89244188D01*
X127775000Y-89231928D01*
X127763621Y-89231928D01*
X127749003Y-89083514D01*
X127705546Y-88940253D01*
X127634974Y-88808224D01*
X127563799Y-88721497D01*
X127540001Y-88692499D01*
X127511004Y-88668702D01*
X127158072Y-88315770D01*
X127158072Y-87808750D01*
X127141128Y-87636715D01*
X127090947Y-87471291D01*
X127009458Y-87318836D01*
X127004258Y-87312500D01*
X127009458Y-87306164D01*
X127090947Y-87153709D01*
X127093682Y-87144694D01*
X127178750Y-87153072D01*
X128091250Y-87153072D01*
X128263285Y-87136128D01*
X128428709Y-87085947D01*
X128581164Y-87004458D01*
X128587500Y-86999258D01*
X128593836Y-87004458D01*
X128746291Y-87085947D01*
X128911715Y-87136128D01*
X129083750Y-87153072D01*
X129996250Y-87153072D01*
X130168285Y-87136128D01*
X130333709Y-87085947D01*
X130486164Y-87004458D01*
X130619792Y-86894792D01*
X130729458Y-86761164D01*
X130810947Y-86608709D01*
X130861128Y-86443285D01*
X130878072Y-86271250D01*
X130878072Y-85783750D01*
X130861128Y-85611715D01*
X130810947Y-85446291D01*
X130729458Y-85293836D01*
X130619792Y-85160208D01*
X130534244Y-85090000D01*
X130619792Y-85019792D01*
X130729458Y-84886164D01*
X130810947Y-84733709D01*
X130861128Y-84568285D01*
X130878072Y-84396250D01*
X130878072Y-83908750D01*
X130861128Y-83736715D01*
X130810947Y-83571291D01*
X130729458Y-83418836D01*
X130619792Y-83285208D01*
X130486164Y-83175542D01*
X130333709Y-83094053D01*
X130168285Y-83043872D01*
X129996250Y-83026928D01*
X129083750Y-83026928D01*
X128911715Y-83043872D01*
X128752098Y-83092292D01*
X128760572Y-83006250D01*
X128760572Y-82093750D01*
X128743628Y-81921715D01*
X128693447Y-81756291D01*
X128611958Y-81603836D01*
X128502292Y-81470208D01*
X128395000Y-81382155D01*
X128395000Y-80965655D01*
X128514180Y-80929502D01*
X128624494Y-80870537D01*
X128661703Y-80840000D01*
X129146928Y-80840000D01*
X129159188Y-80964482D01*
X129195498Y-81084180D01*
X129254463Y-81194494D01*
X129333815Y-81291185D01*
X129430506Y-81370537D01*
X129540820Y-81429502D01*
X129660518Y-81465812D01*
X129785000Y-81478072D01*
X130174250Y-81475000D01*
X130333000Y-81316250D01*
X130333000Y-78867000D01*
X130587000Y-78867000D01*
X130587000Y-81316250D01*
X130745750Y-81475000D01*
X131135000Y-81478072D01*
X131259482Y-81465812D01*
X131379180Y-81429502D01*
X131489494Y-81370537D01*
X131586185Y-81291185D01*
X131665537Y-81194494D01*
X131724502Y-81084180D01*
X131760812Y-80964482D01*
X131773072Y-80840000D01*
X131770000Y-79025750D01*
X131611250Y-78867000D01*
X130587000Y-78867000D01*
X130333000Y-78867000D01*
X129308750Y-78867000D01*
X129150000Y-79025750D01*
X129146928Y-80840000D01*
X128661703Y-80840000D01*
X128721185Y-80791185D01*
X128800537Y-80694494D01*
X128859502Y-80584180D01*
X128895812Y-80464482D01*
X128908072Y-80340000D01*
X128908072Y-76885000D01*
X129147343Y-76885000D01*
X129150000Y-78454250D01*
X129308750Y-78613000D01*
X130333000Y-78613000D01*
X130333000Y-78593000D01*
X130587000Y-78593000D01*
X130587000Y-78613000D01*
X131611250Y-78613000D01*
X131770000Y-78454250D01*
X131772657Y-76885000D01*
X137745000Y-76885000D01*
X137745001Y-118695000D01*
X94665000Y-118695000D01*
X94665000Y-116040000D01*
X97621928Y-116040000D01*
X97621928Y-117640000D01*
X97634188Y-117764482D01*
X97670498Y-117884180D01*
X97729463Y-117994494D01*
X97808815Y-118091185D01*
X97905506Y-118170537D01*
X98015820Y-118229502D01*
X98135518Y-118265812D01*
X98260000Y-118278072D01*
X99860000Y-118278072D01*
X99984482Y-118265812D01*
X100104180Y-118229502D01*
X100214494Y-118170537D01*
X100311185Y-118091185D01*
X100390537Y-117994494D01*
X100449502Y-117884180D01*
X100485812Y-117764482D01*
X100486643Y-117756039D01*
X100685241Y-117954637D01*
X100920273Y-118111680D01*
X101181426Y-118219853D01*
X101458665Y-118275000D01*
X101741335Y-118275000D01*
X102018574Y-118219853D01*
X102279727Y-118111680D01*
X102514759Y-117954637D01*
X102714637Y-117754759D01*
X102870000Y-117522241D01*
X103025363Y-117754759D01*
X103225241Y-117954637D01*
X103460273Y-118111680D01*
X103721426Y-118219853D01*
X103998665Y-118275000D01*
X104281335Y-118275000D01*
X104558574Y-118219853D01*
X104819727Y-118111680D01*
X105054759Y-117954637D01*
X105254637Y-117754759D01*
X105411680Y-117519727D01*
X105416067Y-117509135D01*
X105527615Y-117695131D01*
X105716586Y-117903519D01*
X105942580Y-118071037D01*
X106196913Y-118191246D01*
X106330961Y-118231904D01*
X106553000Y-118109915D01*
X106553000Y-116967000D01*
X106533000Y-116967000D01*
X106533000Y-116713000D01*
X106553000Y-116713000D01*
X106553000Y-115570085D01*
X106807000Y-115570085D01*
X106807000Y-116713000D01*
X106827000Y-116713000D01*
X106827000Y-116967000D01*
X106807000Y-116967000D01*
X106807000Y-118109915D01*
X107029039Y-118231904D01*
X107163087Y-118191246D01*
X107417420Y-118071037D01*
X107643414Y-117903519D01*
X107832385Y-117695131D01*
X107943933Y-117509135D01*
X107948320Y-117519727D01*
X108105363Y-117754759D01*
X108305241Y-117954637D01*
X108540273Y-118111680D01*
X108801426Y-118219853D01*
X109078665Y-118275000D01*
X109361335Y-118275000D01*
X109638574Y-118219853D01*
X109899727Y-118111680D01*
X110134759Y-117954637D01*
X110334637Y-117754759D01*
X110490000Y-117522241D01*
X110645363Y-117754759D01*
X110845241Y-117954637D01*
X111080273Y-118111680D01*
X111341426Y-118219853D01*
X111618665Y-118275000D01*
X111901335Y-118275000D01*
X112178574Y-118219853D01*
X112439727Y-118111680D01*
X112674759Y-117954637D01*
X112874637Y-117754759D01*
X113030000Y-117522241D01*
X113185363Y-117754759D01*
X113385241Y-117954637D01*
X113620273Y-118111680D01*
X113881426Y-118219853D01*
X114158665Y-118275000D01*
X114441335Y-118275000D01*
X114718574Y-118219853D01*
X114979727Y-118111680D01*
X115214759Y-117954637D01*
X115414637Y-117754759D01*
X115570000Y-117522241D01*
X115725363Y-117754759D01*
X115925241Y-117954637D01*
X116160273Y-118111680D01*
X116421426Y-118219853D01*
X116698665Y-118275000D01*
X116981335Y-118275000D01*
X117258574Y-118219853D01*
X117519727Y-118111680D01*
X117754759Y-117954637D01*
X117954637Y-117754759D01*
X118110000Y-117522241D01*
X118265363Y-117754759D01*
X118465241Y-117954637D01*
X118700273Y-118111680D01*
X118961426Y-118219853D01*
X119238665Y-118275000D01*
X119521335Y-118275000D01*
X119798574Y-118219853D01*
X120059727Y-118111680D01*
X120294759Y-117954637D01*
X120494637Y-117754759D01*
X120650000Y-117522241D01*
X120805363Y-117754759D01*
X121005241Y-117954637D01*
X121240273Y-118111680D01*
X121501426Y-118219853D01*
X121778665Y-118275000D01*
X122061335Y-118275000D01*
X122338574Y-118219853D01*
X122599727Y-118111680D01*
X122834759Y-117954637D01*
X123034637Y-117754759D01*
X123190000Y-117522241D01*
X123345363Y-117754759D01*
X123545241Y-117954637D01*
X123780273Y-118111680D01*
X124041426Y-118219853D01*
X124318665Y-118275000D01*
X124601335Y-118275000D01*
X124878574Y-118219853D01*
X125139727Y-118111680D01*
X125374759Y-117954637D01*
X125574637Y-117754759D01*
X125730000Y-117522241D01*
X125885363Y-117754759D01*
X126085241Y-117954637D01*
X126320273Y-118111680D01*
X126581426Y-118219853D01*
X126858665Y-118275000D01*
X127141335Y-118275000D01*
X127418574Y-118219853D01*
X127679727Y-118111680D01*
X127914759Y-117954637D01*
X128114637Y-117754759D01*
X128270000Y-117522241D01*
X128425363Y-117754759D01*
X128625241Y-117954637D01*
X128860273Y-118111680D01*
X129121426Y-118219853D01*
X129398665Y-118275000D01*
X129681335Y-118275000D01*
X129958574Y-118219853D01*
X130219727Y-118111680D01*
X130454759Y-117954637D01*
X130654637Y-117754759D01*
X130810000Y-117522241D01*
X130965363Y-117754759D01*
X131165241Y-117954637D01*
X131400273Y-118111680D01*
X131661426Y-118219853D01*
X131938665Y-118275000D01*
X132221335Y-118275000D01*
X132498574Y-118219853D01*
X132759727Y-118111680D01*
X132994759Y-117954637D01*
X133194637Y-117754759D01*
X133350000Y-117522241D01*
X133505363Y-117754759D01*
X133705241Y-117954637D01*
X133940273Y-118111680D01*
X134201426Y-118219853D01*
X134478665Y-118275000D01*
X134761335Y-118275000D01*
X135038574Y-118219853D01*
X135299727Y-118111680D01*
X135534759Y-117954637D01*
X135734637Y-117754759D01*
X135891680Y-117519727D01*
X135999853Y-117258574D01*
X136055000Y-116981335D01*
X136055000Y-116698665D01*
X135999853Y-116421426D01*
X135891680Y-116160273D01*
X135734637Y-115925241D01*
X135534759Y-115725363D01*
X135299727Y-115568320D01*
X135038574Y-115460147D01*
X134761335Y-115405000D01*
X134478665Y-115405000D01*
X134201426Y-115460147D01*
X133940273Y-115568320D01*
X133705241Y-115725363D01*
X133505363Y-115925241D01*
X133350000Y-116157759D01*
X133194637Y-115925241D01*
X132994759Y-115725363D01*
X132759727Y-115568320D01*
X132498574Y-115460147D01*
X132221335Y-115405000D01*
X131938665Y-115405000D01*
X131661426Y-115460147D01*
X131400273Y-115568320D01*
X131165241Y-115725363D01*
X130965363Y-115925241D01*
X130810000Y-116157759D01*
X130654637Y-115925241D01*
X130454759Y-115725363D01*
X130219727Y-115568320D01*
X129958574Y-115460147D01*
X129681335Y-115405000D01*
X129398665Y-115405000D01*
X129121426Y-115460147D01*
X128860273Y-115568320D01*
X128625241Y-115725363D01*
X128425363Y-115925241D01*
X128270000Y-116157759D01*
X128114637Y-115925241D01*
X127914759Y-115725363D01*
X127679727Y-115568320D01*
X127418574Y-115460147D01*
X127141335Y-115405000D01*
X126858665Y-115405000D01*
X126581426Y-115460147D01*
X126320273Y-115568320D01*
X126085241Y-115725363D01*
X125885363Y-115925241D01*
X125730000Y-116157759D01*
X125574637Y-115925241D01*
X125374759Y-115725363D01*
X125139727Y-115568320D01*
X124878574Y-115460147D01*
X124601335Y-115405000D01*
X124318665Y-115405000D01*
X124041426Y-115460147D01*
X123780273Y-115568320D01*
X123545241Y-115725363D01*
X123345363Y-115925241D01*
X123190000Y-116157759D01*
X123034637Y-115925241D01*
X122834759Y-115725363D01*
X122599727Y-115568320D01*
X122338574Y-115460147D01*
X122061335Y-115405000D01*
X121778665Y-115405000D01*
X121501426Y-115460147D01*
X121240273Y-115568320D01*
X121005241Y-115725363D01*
X120805363Y-115925241D01*
X120650000Y-116157759D01*
X120494637Y-115925241D01*
X120294759Y-115725363D01*
X120059727Y-115568320D01*
X119798574Y-115460147D01*
X119521335Y-115405000D01*
X119238665Y-115405000D01*
X118961426Y-115460147D01*
X118700273Y-115568320D01*
X118465241Y-115725363D01*
X118265363Y-115925241D01*
X118110000Y-116157759D01*
X117954637Y-115925241D01*
X117754759Y-115725363D01*
X117519727Y-115568320D01*
X117258574Y-115460147D01*
X116981335Y-115405000D01*
X116698665Y-115405000D01*
X116421426Y-115460147D01*
X116160273Y-115568320D01*
X115925241Y-115725363D01*
X115725363Y-115925241D01*
X115570000Y-116157759D01*
X115414637Y-115925241D01*
X115214759Y-115725363D01*
X114979727Y-115568320D01*
X114718574Y-115460147D01*
X114441335Y-115405000D01*
X114158665Y-115405000D01*
X113881426Y-115460147D01*
X113620273Y-115568320D01*
X113385241Y-115725363D01*
X113185363Y-115925241D01*
X113030000Y-116157759D01*
X112874637Y-115925241D01*
X112674759Y-115725363D01*
X112439727Y-115568320D01*
X112178574Y-115460147D01*
X111901335Y-115405000D01*
X111618665Y-115405000D01*
X111341426Y-115460147D01*
X111080273Y-115568320D01*
X110845241Y-115725363D01*
X110645363Y-115925241D01*
X110490000Y-116157759D01*
X110334637Y-115925241D01*
X110134759Y-115725363D01*
X109899727Y-115568320D01*
X109638574Y-115460147D01*
X109361335Y-115405000D01*
X109078665Y-115405000D01*
X108801426Y-115460147D01*
X108540273Y-115568320D01*
X108305241Y-115725363D01*
X108105363Y-115925241D01*
X107948320Y-116160273D01*
X107943933Y-116170865D01*
X107832385Y-115984869D01*
X107643414Y-115776481D01*
X107417420Y-115608963D01*
X107163087Y-115488754D01*
X107029039Y-115448096D01*
X106807000Y-115570085D01*
X106553000Y-115570085D01*
X106330961Y-115448096D01*
X106196913Y-115488754D01*
X105942580Y-115608963D01*
X105716586Y-115776481D01*
X105527615Y-115984869D01*
X105416067Y-116170865D01*
X105411680Y-116160273D01*
X105254637Y-115925241D01*
X105054759Y-115725363D01*
X104819727Y-115568320D01*
X104558574Y-115460147D01*
X104281335Y-115405000D01*
X103998665Y-115405000D01*
X103721426Y-115460147D01*
X103460273Y-115568320D01*
X103225241Y-115725363D01*
X103025363Y-115925241D01*
X102870000Y-116157759D01*
X102714637Y-115925241D01*
X102514759Y-115725363D01*
X102279727Y-115568320D01*
X102018574Y-115460147D01*
X101741335Y-115405000D01*
X101458665Y-115405000D01*
X101181426Y-115460147D01*
X100920273Y-115568320D01*
X100685241Y-115725363D01*
X100486643Y-115923961D01*
X100485812Y-115915518D01*
X100449502Y-115795820D01*
X100390537Y-115685506D01*
X100311185Y-115588815D01*
X100214494Y-115509463D01*
X100104180Y-115450498D01*
X99984482Y-115414188D01*
X99860000Y-115401928D01*
X98260000Y-115401928D01*
X98135518Y-115414188D01*
X98015820Y-115450498D01*
X97905506Y-115509463D01*
X97808815Y-115588815D01*
X97729463Y-115685506D01*
X97670498Y-115795820D01*
X97634188Y-115915518D01*
X97621928Y-116040000D01*
X94665000Y-116040000D01*
X94665000Y-101458665D01*
X97625000Y-101458665D01*
X97625000Y-101741335D01*
X97680147Y-102018574D01*
X97788320Y-102279727D01*
X97945363Y-102514759D01*
X98145241Y-102714637D01*
X98380273Y-102871680D01*
X98641426Y-102979853D01*
X98918665Y-103035000D01*
X99201335Y-103035000D01*
X99478574Y-102979853D01*
X99739727Y-102871680D01*
X99974759Y-102714637D01*
X100174637Y-102514759D01*
X100331680Y-102279727D01*
X100336067Y-102269135D01*
X100447615Y-102455131D01*
X100636586Y-102663519D01*
X100862580Y-102831037D01*
X101116913Y-102951246D01*
X101250961Y-102991904D01*
X101473000Y-102869915D01*
X101473000Y-101727000D01*
X101453000Y-101727000D01*
X101453000Y-101473000D01*
X101473000Y-101473000D01*
X101473000Y-100330085D01*
X101250961Y-100208096D01*
X101116913Y-100248754D01*
X100862580Y-100368963D01*
X100636586Y-100536481D01*
X100447615Y-100744869D01*
X100336067Y-100930865D01*
X100331680Y-100920273D01*
X100174637Y-100685241D01*
X99974759Y-100485363D01*
X99739727Y-100328320D01*
X99478574Y-100220147D01*
X99201335Y-100165000D01*
X98918665Y-100165000D01*
X98641426Y-100220147D01*
X98380273Y-100328320D01*
X98145241Y-100485363D01*
X97945363Y-100685241D01*
X97788320Y-100920273D01*
X97680147Y-101181426D01*
X97625000Y-101458665D01*
X94665000Y-101458665D01*
X94665000Y-97008740D01*
X97575000Y-97008740D01*
X97575000Y-97301260D01*
X97632068Y-97588158D01*
X97744010Y-97858411D01*
X97906525Y-98101632D01*
X98113368Y-98308475D01*
X98356589Y-98470990D01*
X98626842Y-98582932D01*
X98913740Y-98640000D01*
X99206260Y-98640000D01*
X99493158Y-98582932D01*
X99763411Y-98470990D01*
X100006632Y-98308475D01*
X100138487Y-98176620D01*
X100160498Y-98249180D01*
X100219463Y-98359494D01*
X100298815Y-98456185D01*
X100395506Y-98535537D01*
X100505820Y-98594502D01*
X100625518Y-98630812D01*
X100750000Y-98643072D01*
X101314250Y-98640000D01*
X101473000Y-98481250D01*
X101473000Y-97282000D01*
X101727000Y-97282000D01*
X101727000Y-98481250D01*
X101885750Y-98640000D01*
X102450000Y-98643072D01*
X102574482Y-98630812D01*
X102694180Y-98594502D01*
X102804494Y-98535537D01*
X102901185Y-98456185D01*
X102980537Y-98359494D01*
X103039502Y-98249180D01*
X103075812Y-98129482D01*
X103088072Y-98005000D01*
X103085000Y-97440750D01*
X102926250Y-97282000D01*
X101727000Y-97282000D01*
X101473000Y-97282000D01*
X101453000Y-97282000D01*
X101453000Y-97028000D01*
X101473000Y-97028000D01*
X101473000Y-95828750D01*
X101727000Y-95828750D01*
X101727000Y-97028000D01*
X102926250Y-97028000D01*
X103085000Y-96869250D01*
X103088072Y-96305000D01*
X103075812Y-96180518D01*
X103039502Y-96060820D01*
X102980537Y-95950506D01*
X102901185Y-95853815D01*
X102804494Y-95774463D01*
X102694180Y-95715498D01*
X102574482Y-95679188D01*
X102450000Y-95666928D01*
X101885750Y-95670000D01*
X101727000Y-95828750D01*
X101473000Y-95828750D01*
X101314250Y-95670000D01*
X100750000Y-95666928D01*
X100625518Y-95679188D01*
X100505820Y-95715498D01*
X100395506Y-95774463D01*
X100298815Y-95853815D01*
X100219463Y-95950506D01*
X100160498Y-96060820D01*
X100138487Y-96133380D01*
X100006632Y-96001525D01*
X99763411Y-95839010D01*
X99493158Y-95727068D01*
X99206260Y-95670000D01*
X98913740Y-95670000D01*
X98626842Y-95727068D01*
X98356589Y-95839010D01*
X98113368Y-96001525D01*
X97906525Y-96208368D01*
X97744010Y-96451589D01*
X97632068Y-96721842D01*
X97575000Y-97008740D01*
X94665000Y-97008740D01*
X94665000Y-90870000D01*
X98599428Y-90870000D01*
X98611688Y-90994482D01*
X98647998Y-91114180D01*
X98706963Y-91224494D01*
X98786315Y-91321185D01*
X98883006Y-91400537D01*
X98993320Y-91459502D01*
X99113018Y-91495812D01*
X99237500Y-91508072D01*
X99439250Y-91505000D01*
X99598000Y-91346250D01*
X99598000Y-90297000D01*
X98761250Y-90297000D01*
X98602500Y-90455750D01*
X98599428Y-90870000D01*
X94665000Y-90870000D01*
X94665000Y-88420000D01*
X98356928Y-88420000D01*
X98369188Y-88544482D01*
X98405498Y-88664180D01*
X98464463Y-88774494D01*
X98543815Y-88871185D01*
X98640506Y-88950537D01*
X98750820Y-89009502D01*
X98785359Y-89019979D01*
X98706963Y-89115506D01*
X98647998Y-89225820D01*
X98611688Y-89345518D01*
X98599428Y-89470000D01*
X98602500Y-89884250D01*
X98761250Y-90043000D01*
X99598000Y-90043000D01*
X99598000Y-88993750D01*
X99534250Y-88930000D01*
X99568000Y-88896250D01*
X99568000Y-88059500D01*
X98518750Y-88059500D01*
X98360000Y-88218250D01*
X98356928Y-88420000D01*
X94665000Y-88420000D01*
X94665000Y-80840000D01*
X99493928Y-80840000D01*
X99506188Y-80964482D01*
X99542498Y-81084180D01*
X99601463Y-81194494D01*
X99680815Y-81291185D01*
X99777506Y-81370537D01*
X99887820Y-81429502D01*
X100007518Y-81465812D01*
X100132000Y-81478072D01*
X100521250Y-81475000D01*
X100680000Y-81316250D01*
X100680000Y-78867000D01*
X100934000Y-78867000D01*
X100934000Y-81316250D01*
X101092750Y-81475000D01*
X101482000Y-81478072D01*
X101606482Y-81465812D01*
X101726180Y-81429502D01*
X101836494Y-81370537D01*
X101933185Y-81291185D01*
X102012537Y-81194494D01*
X102071502Y-81084180D01*
X102107812Y-80964482D01*
X102120072Y-80840000D01*
X102117000Y-79025750D01*
X101958250Y-78867000D01*
X100934000Y-78867000D01*
X100680000Y-78867000D01*
X99655750Y-78867000D01*
X99497000Y-79025750D01*
X99493928Y-80840000D01*
X94665000Y-80840000D01*
X94665000Y-76885000D01*
X99494343Y-76885000D01*
X99497000Y-78454250D01*
G04 #@! TA.AperFunction,Conductor*
D22*
G36*
X99497000Y-78454250D02*
G01*
X99655750Y-78613000D01*
X100680000Y-78613000D01*
X100680000Y-78593000D01*
X100934000Y-78593000D01*
X100934000Y-78613000D01*
X101958250Y-78613000D01*
X102117000Y-78454250D01*
X102119657Y-76885000D01*
X102358928Y-76885000D01*
X102358928Y-80340000D01*
X102371188Y-80464482D01*
X102407498Y-80584180D01*
X102466463Y-80694494D01*
X102545815Y-80791185D01*
X102642506Y-80870537D01*
X102752820Y-80929502D01*
X102872001Y-80965655D01*
X102872001Y-81140302D01*
X102711291Y-81189053D01*
X102558836Y-81270542D01*
X102425208Y-81380208D01*
X102315542Y-81513836D01*
X102234053Y-81666291D01*
X102183872Y-81831715D01*
X102166928Y-82003750D01*
X102166928Y-82491250D01*
X102183872Y-82663285D01*
X102234053Y-82828709D01*
X102315542Y-82981164D01*
X102425208Y-83114792D01*
X102510756Y-83185000D01*
X102425208Y-83255208D01*
X102315542Y-83388836D01*
X102234053Y-83541291D01*
X102183872Y-83706715D01*
X102166928Y-83878750D01*
X102166928Y-84366250D01*
X102183872Y-84538285D01*
X102234053Y-84703709D01*
X102315542Y-84856164D01*
X102425208Y-84989792D01*
X102558836Y-85099458D01*
X102711291Y-85180947D01*
X102876715Y-85231128D01*
X103048750Y-85248072D01*
X103109038Y-85248072D01*
X103075498Y-85310820D01*
X103039188Y-85430518D01*
X103026928Y-85555000D01*
X103026928Y-86065000D01*
X103039188Y-86189482D01*
X103068512Y-86286150D01*
X103042221Y-86366140D01*
X103030000Y-86474250D01*
X103188750Y-86633000D01*
X103380593Y-86633000D01*
X103420820Y-86654502D01*
X103540518Y-86690812D01*
X103665000Y-86703072D01*
X104162000Y-86703072D01*
X104162000Y-86816928D01*
X103665000Y-86816928D01*
X103540518Y-86829188D01*
X103420820Y-86865498D01*
X103380593Y-86887000D01*
X103188750Y-86887000D01*
X103030000Y-87045750D01*
X103042221Y-87153860D01*
X103068512Y-87233850D01*
X103039188Y-87330518D01*
X103026928Y-87455000D01*
X103026928Y-87965000D01*
X103028224Y-87978155D01*
X102962089Y-87965000D01*
X102777911Y-87965000D01*
X102681177Y-87984242D01*
X102683072Y-87965000D01*
X102683072Y-87455000D01*
X102670812Y-87330518D01*
X102641488Y-87233850D01*
X102667779Y-87153860D01*
X102680000Y-87045750D01*
X102521250Y-86887000D01*
X102329407Y-86887000D01*
X102289180Y-86865498D01*
X102169482Y-86829188D01*
X102045000Y-86816928D01*
X101548000Y-86816928D01*
X101548000Y-86703072D01*
X102045000Y-86703072D01*
X102169482Y-86690812D01*
X102289180Y-86654502D01*
X102329407Y-86633000D01*
X102521250Y-86633000D01*
X102680000Y-86474250D01*
X102667779Y-86366140D01*
X102641488Y-86286150D01*
X102670812Y-86189482D01*
X102683072Y-86065000D01*
X102683072Y-85555000D01*
X102670812Y-85430518D01*
X102634502Y-85310820D01*
X102575537Y-85200506D01*
X102496185Y-85103815D01*
X102399494Y-85024463D01*
X102289180Y-84965498D01*
X102169482Y-84929188D01*
X102045000Y-84916928D01*
X101345000Y-84916928D01*
X101270030Y-84924312D01*
X101237729Y-84910932D01*
X101057089Y-84875000D01*
X100872911Y-84875000D01*
X100692271Y-84910932D01*
X100522111Y-84981414D01*
X100492600Y-85001133D01*
X100488709Y-84999053D01*
X100323285Y-84948872D01*
X100151250Y-84931928D01*
X99238750Y-84931928D01*
X99066715Y-84948872D01*
X98901291Y-84999053D01*
X98748836Y-85080542D01*
X98615208Y-85190208D01*
X98505542Y-85323836D01*
X98424053Y-85476291D01*
X98373872Y-85641715D01*
X98356928Y-85813750D01*
X98356928Y-86301250D01*
X98373872Y-86473285D01*
X98424053Y-86638709D01*
X98505542Y-86791164D01*
X98615208Y-86924792D01*
X98621564Y-86930008D01*
X98543815Y-86993815D01*
X98464463Y-87090506D01*
X98405498Y-87200820D01*
X98369188Y-87320518D01*
X98356928Y-87445000D01*
X98360000Y-87646750D01*
X98518750Y-87805500D01*
X99568000Y-87805500D01*
X99568000Y-87785500D01*
X99822000Y-87785500D01*
X99822000Y-87805500D01*
X99842000Y-87805500D01*
X99842000Y-88059500D01*
X99822000Y-88059500D01*
X99822000Y-88896250D01*
X99885750Y-88960000D01*
X99852000Y-88993750D01*
X99852000Y-90043000D01*
X99872000Y-90043000D01*
X99872000Y-90297000D01*
X99852000Y-90297000D01*
X99852000Y-91346250D01*
X100010750Y-91505000D01*
X100212500Y-91508072D01*
X100336982Y-91495812D01*
X100456680Y-91459502D01*
X100566994Y-91400537D01*
X100663685Y-91321185D01*
X100727492Y-91243436D01*
X100732708Y-91249792D01*
X100840000Y-91337845D01*
X100840000Y-92037677D01*
X100836324Y-92075000D01*
X100840000Y-92112322D01*
X100840000Y-92112332D01*
X100850997Y-92223985D01*
X100882938Y-92329281D01*
X100894454Y-92367246D01*
X100965026Y-92499276D01*
X100995584Y-92536510D01*
X101059999Y-92615001D01*
X101089003Y-92638804D01*
X103380001Y-94929804D01*
X103380000Y-97117677D01*
X103376324Y-97155000D01*
X103380000Y-97192322D01*
X103380000Y-97192332D01*
X103390997Y-97303985D01*
X103434454Y-97447246D01*
X103505026Y-97579276D01*
X103519091Y-97596414D01*
X103599999Y-97695001D01*
X103629003Y-97718804D01*
X106116205Y-100206008D01*
X106139999Y-100235001D01*
X106168700Y-100258555D01*
X106000273Y-100328320D01*
X105765241Y-100485363D01*
X105565363Y-100685241D01*
X105410000Y-100917759D01*
X105254637Y-100685241D01*
X105054759Y-100485363D01*
X104819727Y-100328320D01*
X104558574Y-100220147D01*
X104281335Y-100165000D01*
X103998665Y-100165000D01*
X103721426Y-100220147D01*
X103460273Y-100328320D01*
X103225241Y-100485363D01*
X103025363Y-100685241D01*
X102868320Y-100920273D01*
X102863933Y-100930865D01*
X102752385Y-100744869D01*
X102563414Y-100536481D01*
X102337420Y-100368963D01*
X102083087Y-100248754D01*
X101949039Y-100208096D01*
X101727000Y-100330085D01*
X101727000Y-101473000D01*
X101747000Y-101473000D01*
X101747000Y-101727000D01*
X101727000Y-101727000D01*
X101727000Y-102869915D01*
X101949039Y-102991904D01*
X102083087Y-102951246D01*
X102337420Y-102831037D01*
X102563414Y-102663519D01*
X102752385Y-102455131D01*
X102863933Y-102269135D01*
X102868320Y-102279727D01*
X103025363Y-102514759D01*
X103225241Y-102714637D01*
X103460273Y-102871680D01*
X103721426Y-102979853D01*
X103998665Y-103035000D01*
X104281335Y-103035000D01*
X104558574Y-102979853D01*
X104819727Y-102871680D01*
X105054759Y-102714637D01*
X105254637Y-102514759D01*
X105410000Y-102282241D01*
X105565363Y-102514759D01*
X105765241Y-102714637D01*
X106000273Y-102871680D01*
X106261426Y-102979853D01*
X106538665Y-103035000D01*
X106821335Y-103035000D01*
X107098574Y-102979853D01*
X107359727Y-102871680D01*
X107594759Y-102714637D01*
X107794637Y-102514759D01*
X107950000Y-102282241D01*
X108105363Y-102514759D01*
X108305241Y-102714637D01*
X108540273Y-102871680D01*
X108801426Y-102979853D01*
X109078665Y-103035000D01*
X109361335Y-103035000D01*
X109638574Y-102979853D01*
X109899727Y-102871680D01*
X110134759Y-102714637D01*
X110334637Y-102514759D01*
X110490000Y-102282241D01*
X110645363Y-102514759D01*
X110845241Y-102714637D01*
X111080273Y-102871680D01*
X111341426Y-102979853D01*
X111618665Y-103035000D01*
X111901335Y-103035000D01*
X112178574Y-102979853D01*
X112439727Y-102871680D01*
X112674759Y-102714637D01*
X112874637Y-102514759D01*
X113030000Y-102282241D01*
X113185363Y-102514759D01*
X113385241Y-102714637D01*
X113620273Y-102871680D01*
X113881426Y-102979853D01*
X114158665Y-103035000D01*
X114441335Y-103035000D01*
X114718574Y-102979853D01*
X114979727Y-102871680D01*
X115214759Y-102714637D01*
X115414637Y-102514759D01*
X115570000Y-102282241D01*
X115725363Y-102514759D01*
X115925241Y-102714637D01*
X116160273Y-102871680D01*
X116421426Y-102979853D01*
X116698665Y-103035000D01*
X116981335Y-103035000D01*
X117258574Y-102979853D01*
X117519727Y-102871680D01*
X117754759Y-102714637D01*
X117954637Y-102514759D01*
X118110000Y-102282241D01*
X118265363Y-102514759D01*
X118465241Y-102714637D01*
X118700273Y-102871680D01*
X118961426Y-102979853D01*
X119238665Y-103035000D01*
X119521335Y-103035000D01*
X119798574Y-102979853D01*
X120059727Y-102871680D01*
X120294759Y-102714637D01*
X120494637Y-102514759D01*
X120650000Y-102282241D01*
X120805363Y-102514759D01*
X121005241Y-102714637D01*
X121240273Y-102871680D01*
X121501426Y-102979853D01*
X121778665Y-103035000D01*
X122061335Y-103035000D01*
X122338574Y-102979853D01*
X122599727Y-102871680D01*
X122834759Y-102714637D01*
X123034637Y-102514759D01*
X123190000Y-102282241D01*
X123345363Y-102514759D01*
X123545241Y-102714637D01*
X123780273Y-102871680D01*
X124041426Y-102979853D01*
X124318665Y-103035000D01*
X124601335Y-103035000D01*
X124878574Y-102979853D01*
X125139727Y-102871680D01*
X125374759Y-102714637D01*
X125574637Y-102514759D01*
X125730000Y-102282241D01*
X125885363Y-102514759D01*
X126085241Y-102714637D01*
X126320273Y-102871680D01*
X126581426Y-102979853D01*
X126858665Y-103035000D01*
X127141335Y-103035000D01*
X127418574Y-102979853D01*
X127679727Y-102871680D01*
X127914759Y-102714637D01*
X128114637Y-102514759D01*
X128270000Y-102282241D01*
X128425363Y-102514759D01*
X128625241Y-102714637D01*
X128860273Y-102871680D01*
X129121426Y-102979853D01*
X129398665Y-103035000D01*
X129681335Y-103035000D01*
X129958574Y-102979853D01*
X130219727Y-102871680D01*
X130454759Y-102714637D01*
X130654637Y-102514759D01*
X130810000Y-102282241D01*
X130965363Y-102514759D01*
X131165241Y-102714637D01*
X131400273Y-102871680D01*
X131661426Y-102979853D01*
X131938665Y-103035000D01*
X132221335Y-103035000D01*
X132498574Y-102979853D01*
X132759727Y-102871680D01*
X132994759Y-102714637D01*
X133194637Y-102514759D01*
X133350000Y-102282241D01*
X133505363Y-102514759D01*
X133705241Y-102714637D01*
X133940273Y-102871680D01*
X134201426Y-102979853D01*
X134478665Y-103035000D01*
X134761335Y-103035000D01*
X135038574Y-102979853D01*
X135299727Y-102871680D01*
X135534759Y-102714637D01*
X135734637Y-102514759D01*
X135891680Y-102279727D01*
X135999853Y-102018574D01*
X136055000Y-101741335D01*
X136055000Y-101458665D01*
X135999853Y-101181426D01*
X135891680Y-100920273D01*
X135734637Y-100685241D01*
X135534759Y-100485363D01*
X135299727Y-100328320D01*
X135038574Y-100220147D01*
X134761335Y-100165000D01*
X134478665Y-100165000D01*
X134201426Y-100220147D01*
X133940273Y-100328320D01*
X133705241Y-100485363D01*
X133505363Y-100685241D01*
X133350000Y-100917759D01*
X133194637Y-100685241D01*
X132994759Y-100485363D01*
X132759727Y-100328320D01*
X132498574Y-100220147D01*
X132221335Y-100165000D01*
X131938665Y-100165000D01*
X131661426Y-100220147D01*
X131400273Y-100328320D01*
X131165241Y-100485363D01*
X130965363Y-100685241D01*
X130810000Y-100917759D01*
X130654637Y-100685241D01*
X130454759Y-100485363D01*
X130219727Y-100328320D01*
X129958574Y-100220147D01*
X129681335Y-100165000D01*
X129398665Y-100165000D01*
X129121426Y-100220147D01*
X128860273Y-100328320D01*
X128625241Y-100485363D01*
X128425363Y-100685241D01*
X128270000Y-100917759D01*
X128114637Y-100685241D01*
X127914759Y-100485363D01*
X127679727Y-100328320D01*
X127418574Y-100220147D01*
X127141335Y-100165000D01*
X126858665Y-100165000D01*
X126581426Y-100220147D01*
X126320273Y-100328320D01*
X126085241Y-100485363D01*
X125885363Y-100685241D01*
X125730000Y-100917759D01*
X125574637Y-100685241D01*
X125374759Y-100485363D01*
X125139727Y-100328320D01*
X124878574Y-100220147D01*
X124601335Y-100165000D01*
X124318665Y-100165000D01*
X124041426Y-100220147D01*
X123780273Y-100328320D01*
X123545241Y-100485363D01*
X123345363Y-100685241D01*
X123190000Y-100917759D01*
X123034637Y-100685241D01*
X122834759Y-100485363D01*
X122680000Y-100381957D01*
X122680000Y-99036302D01*
X122760820Y-99079502D01*
X122880518Y-99115812D01*
X123005000Y-99128072D01*
X123206750Y-99125000D01*
X123365500Y-98966250D01*
X123365500Y-97917000D01*
X123619500Y-97917000D01*
X123619500Y-98966250D01*
X123778250Y-99125000D01*
X123980000Y-99128072D01*
X124104482Y-99115812D01*
X124224180Y-99079502D01*
X124334494Y-99020537D01*
X124431185Y-98941185D01*
X124510537Y-98844494D01*
X124569502Y-98734180D01*
X124605812Y-98614482D01*
X124618072Y-98490000D01*
X124615000Y-98075750D01*
X124456250Y-97917000D01*
X123619500Y-97917000D01*
X123365500Y-97917000D01*
X123345500Y-97917000D01*
X123345500Y-97663000D01*
X123365500Y-97663000D01*
X123365500Y-96012000D01*
X123619500Y-96012000D01*
X123619500Y-97663000D01*
X124456250Y-97663000D01*
X124615000Y-97504250D01*
X124618072Y-97090000D01*
X124605812Y-96965518D01*
X124569502Y-96845820D01*
X124565055Y-96837500D01*
X124569502Y-96829180D01*
X124605812Y-96709482D01*
X124618072Y-96585000D01*
X124615000Y-96170750D01*
X124456250Y-96012000D01*
X123619500Y-96012000D01*
X123365500Y-96012000D01*
X123345500Y-96012000D01*
X123345500Y-95758000D01*
X123365500Y-95758000D01*
X123365500Y-94708750D01*
X123619500Y-94708750D01*
X123619500Y-95758000D01*
X124456250Y-95758000D01*
X124615000Y-95599250D01*
X124618072Y-95185000D01*
X124605812Y-95060518D01*
X124569502Y-94940820D01*
X124510537Y-94830506D01*
X124431185Y-94733815D01*
X124334494Y-94654463D01*
X124224180Y-94595498D01*
X124104482Y-94559188D01*
X123980000Y-94546928D01*
X123778250Y-94550000D01*
X123619500Y-94708750D01*
X123365500Y-94708750D01*
X123206750Y-94550000D01*
X123005000Y-94546928D01*
X122949417Y-94552402D01*
X122964502Y-94524180D01*
X123000812Y-94404482D01*
X123013072Y-94280000D01*
X123013072Y-93680000D01*
X123000812Y-93555518D01*
X122964502Y-93435820D01*
X122915957Y-93345000D01*
X122964502Y-93254180D01*
X123000812Y-93134482D01*
X123013072Y-93010000D01*
X123013072Y-92410000D01*
X123000812Y-92285518D01*
X122964502Y-92165820D01*
X122915957Y-92075000D01*
X122964502Y-91984180D01*
X123000812Y-91864482D01*
X123013072Y-91740000D01*
X123010000Y-91725750D01*
X122851250Y-91567000D01*
X121727000Y-91567000D01*
X121727000Y-91587000D01*
X121473000Y-91587000D01*
X121473000Y-91567000D01*
X120348750Y-91567000D01*
X120190000Y-91725750D01*
X120186928Y-91740000D01*
X120199188Y-91864482D01*
X120235498Y-91984180D01*
X120284043Y-92075000D01*
X120235498Y-92165820D01*
X120199188Y-92285518D01*
X120186928Y-92410000D01*
X120186928Y-93010000D01*
X120199188Y-93134482D01*
X120235498Y-93254180D01*
X120284043Y-93345000D01*
X120235498Y-93435820D01*
X120199188Y-93555518D01*
X120186928Y-93680000D01*
X120186928Y-94280000D01*
X120199188Y-94404482D01*
X120235498Y-94524180D01*
X120294463Y-94634494D01*
X120373815Y-94731185D01*
X120470506Y-94810537D01*
X120580820Y-94869502D01*
X120674197Y-94897828D01*
X120640542Y-94938836D01*
X120559053Y-95091291D01*
X120508872Y-95256715D01*
X120491928Y-95428750D01*
X120491928Y-96341250D01*
X120508872Y-96513285D01*
X120559053Y-96678709D01*
X120640542Y-96831164D01*
X120645742Y-96837500D01*
X120640542Y-96843836D01*
X120559053Y-96996291D01*
X120508872Y-97161715D01*
X120491928Y-97333750D01*
X120491928Y-98246250D01*
X120508872Y-98418285D01*
X120559053Y-98583709D01*
X120640542Y-98736164D01*
X120750208Y-98869792D01*
X120883836Y-98979458D01*
X121036291Y-99060947D01*
X121160001Y-99098474D01*
X121160000Y-100381956D01*
X121005241Y-100485363D01*
X120805363Y-100685241D01*
X120650000Y-100917759D01*
X120494637Y-100685241D01*
X120294759Y-100485363D01*
X120059727Y-100328320D01*
X119798574Y-100220147D01*
X119521335Y-100165000D01*
X119238665Y-100165000D01*
X118961426Y-100220147D01*
X118700273Y-100328320D01*
X118465241Y-100485363D01*
X118265363Y-100685241D01*
X118110000Y-100917759D01*
X117954637Y-100685241D01*
X117754759Y-100485363D01*
X117600000Y-100381957D01*
X117600000Y-98433178D01*
X117786632Y-98308475D01*
X117993475Y-98101632D01*
X118155990Y-97858411D01*
X118267932Y-97588158D01*
X118325000Y-97301260D01*
X118325000Y-97008740D01*
X118267932Y-96721842D01*
X118155990Y-96451589D01*
X117993475Y-96208368D01*
X117786632Y-96001525D01*
X117543411Y-95839010D01*
X117273158Y-95727068D01*
X116986260Y-95670000D01*
X116693740Y-95670000D01*
X116406842Y-95727068D01*
X116136589Y-95839010D01*
X115893368Y-96001525D01*
X115686525Y-96208368D01*
X115570000Y-96382760D01*
X115453475Y-96208368D01*
X115246632Y-96001525D01*
X115003411Y-95839010D01*
X114733158Y-95727068D01*
X114446260Y-95670000D01*
X114153740Y-95670000D01*
X113866842Y-95727068D01*
X113596589Y-95839010D01*
X113353368Y-96001525D01*
X113146525Y-96208368D01*
X113030000Y-96382760D01*
X112913475Y-96208368D01*
X112706632Y-96001525D01*
X112463411Y-95839010D01*
X112193158Y-95727068D01*
X111906260Y-95670000D01*
X111613740Y-95670000D01*
X111326842Y-95727068D01*
X111056589Y-95839010D01*
X110813368Y-96001525D01*
X110681513Y-96133380D01*
X110659502Y-96060820D01*
X110600537Y-95950506D01*
X110521185Y-95853815D01*
X110424494Y-95774463D01*
X110314180Y-95715498D01*
X110194482Y-95679188D01*
X110070000Y-95666928D01*
X109505750Y-95670000D01*
X109347000Y-95828750D01*
X109347000Y-97028000D01*
X109367000Y-97028000D01*
X109367000Y-97282000D01*
X109347000Y-97282000D01*
X109347000Y-98481250D01*
X109505750Y-98640000D01*
X110070000Y-98643072D01*
X110194482Y-98630812D01*
X110314180Y-98594502D01*
X110424494Y-98535537D01*
X110521185Y-98456185D01*
X110600537Y-98359494D01*
X110659502Y-98249180D01*
X110681513Y-98176620D01*
X110813368Y-98308475D01*
X111056589Y-98470990D01*
X111326842Y-98582932D01*
X111613740Y-98640000D01*
X111906260Y-98640000D01*
X112193158Y-98582932D01*
X112463411Y-98470990D01*
X112706632Y-98308475D01*
X112913475Y-98101632D01*
X113030000Y-97927240D01*
X113146525Y-98101632D01*
X113353368Y-98308475D01*
X113540001Y-98433179D01*
X113540000Y-100381956D01*
X113385241Y-100485363D01*
X113185363Y-100685241D01*
X113030000Y-100917759D01*
X112874637Y-100685241D01*
X112674759Y-100485363D01*
X112439727Y-100328320D01*
X112178574Y-100220147D01*
X111901335Y-100165000D01*
X111618665Y-100165000D01*
X111341426Y-100220147D01*
X111080273Y-100328320D01*
X110845241Y-100485363D01*
X110645363Y-100685241D01*
X110490000Y-100917759D01*
X110334637Y-100685241D01*
X110134759Y-100485363D01*
X109974798Y-100378481D01*
X109969003Y-100319644D01*
X109925546Y-100176383D01*
X109895021Y-100119275D01*
X109854974Y-100044353D01*
X109783799Y-99957627D01*
X109760001Y-99928629D01*
X109731002Y-99904831D01*
X109010173Y-99184002D01*
X108986371Y-99154999D01*
X108870646Y-99060026D01*
X108738617Y-98989454D01*
X108595356Y-98945997D01*
X108483703Y-98935000D01*
X108483692Y-98935000D01*
X108446370Y-98931324D01*
X108409048Y-98935000D01*
X106994803Y-98935000D01*
X106064803Y-98005000D01*
X107731928Y-98005000D01*
X107744188Y-98129482D01*
X107780498Y-98249180D01*
X107839463Y-98359494D01*
X107918815Y-98456185D01*
X108015506Y-98535537D01*
X108125820Y-98594502D01*
X108245518Y-98630812D01*
X108370000Y-98643072D01*
X108934250Y-98640000D01*
X109093000Y-98481250D01*
X109093000Y-97282000D01*
X107893750Y-97282000D01*
X107735000Y-97440750D01*
X107731928Y-98005000D01*
X106064803Y-98005000D01*
X104900000Y-96840199D01*
X104900000Y-96305000D01*
X107731928Y-96305000D01*
X107735000Y-96869250D01*
X107893750Y-97028000D01*
X109093000Y-97028000D01*
X109093000Y-95828750D01*
X108934250Y-95670000D01*
X108370000Y-95666928D01*
X108245518Y-95679188D01*
X108125820Y-95715498D01*
X108015506Y-95774463D01*
X107918815Y-95853815D01*
X107839463Y-95950506D01*
X107780498Y-96060820D01*
X107744188Y-96180518D01*
X107731928Y-96305000D01*
X104900000Y-96305000D01*
X104900000Y-94652322D01*
X104903676Y-94614999D01*
X104900000Y-94577676D01*
X104900000Y-94577667D01*
X104889003Y-94466014D01*
X104845546Y-94322753D01*
X104774974Y-94190724D01*
X104748927Y-94158986D01*
X104703799Y-94103996D01*
X104703795Y-94103992D01*
X104680001Y-94074999D01*
X104651008Y-94051205D01*
X102360000Y-91760199D01*
X102360000Y-91337845D01*
X102467292Y-91249792D01*
X102567500Y-91127689D01*
X102667708Y-91249792D01*
X102801336Y-91359458D01*
X102953791Y-91440947D01*
X103119215Y-91491128D01*
X103291250Y-91508072D01*
X103778750Y-91508072D01*
X103950785Y-91491128D01*
X104116209Y-91440947D01*
X104268664Y-91359458D01*
X104402292Y-91249792D01*
X104472500Y-91164244D01*
X104542708Y-91249792D01*
X104676336Y-91359458D01*
X104828791Y-91440947D01*
X104994215Y-91491128D01*
X105166250Y-91508072D01*
X105496493Y-91508072D01*
X105783791Y-91795369D01*
X105780932Y-91802271D01*
X105745000Y-91982911D01*
X105745000Y-92167089D01*
X105780932Y-92347729D01*
X105851414Y-92517889D01*
X105953738Y-92671028D01*
X106083972Y-92801262D01*
X106237111Y-92903586D01*
X106407271Y-92974068D01*
X106587911Y-93010000D01*
X106772089Y-93010000D01*
X106952729Y-92974068D01*
X107122889Y-92903586D01*
X107276028Y-92801262D01*
X107406262Y-92671028D01*
X107508586Y-92517889D01*
X107579068Y-92347729D01*
X107615000Y-92167089D01*
X107615000Y-91982911D01*
X107579068Y-91802271D01*
X107565000Y-91768308D01*
X107565000Y-91483465D01*
X107569281Y-91439999D01*
X107565000Y-91396533D01*
X107565000Y-91396523D01*
X107552195Y-91266510D01*
X107501589Y-91099687D01*
X107419411Y-90945941D01*
X107381707Y-90899999D01*
X107336532Y-90844953D01*
X107336530Y-90844951D01*
X107308817Y-90811183D01*
X107275049Y-90783470D01*
X106535572Y-90043994D01*
X106535572Y-89713750D01*
X106518628Y-89541715D01*
X106472779Y-89390572D01*
X106501250Y-89390572D01*
X106673285Y-89373628D01*
X106838709Y-89323447D01*
X106991164Y-89241958D01*
X107124792Y-89132292D01*
X107234458Y-88998664D01*
X107315947Y-88846209D01*
X107366128Y-88680785D01*
X107383072Y-88508750D01*
X107383072Y-88021250D01*
X107366128Y-87849215D01*
X107315947Y-87683791D01*
X107234458Y-87531336D01*
X107124792Y-87397708D01*
X107118436Y-87392492D01*
X107196185Y-87328685D01*
X107275537Y-87231994D01*
X107303328Y-87180000D01*
X119946928Y-87180000D01*
X119959188Y-87304482D01*
X119995498Y-87424180D01*
X120054463Y-87534494D01*
X120133815Y-87631185D01*
X120211564Y-87694992D01*
X120205208Y-87700208D01*
X120095542Y-87833836D01*
X120014053Y-87986291D01*
X119963872Y-88151715D01*
X119946928Y-88323750D01*
X119946928Y-88811250D01*
X119963872Y-88983285D01*
X120014053Y-89148709D01*
X120095542Y-89301164D01*
X120205208Y-89434792D01*
X120298123Y-89511046D01*
X120294463Y-89515506D01*
X120235498Y-89625820D01*
X120199188Y-89745518D01*
X120186928Y-89870000D01*
X120186928Y-90470000D01*
X120199188Y-90594482D01*
X120235498Y-90714180D01*
X120284043Y-90805000D01*
X120235498Y-90895820D01*
X120199188Y-91015518D01*
X120186928Y-91140000D01*
X120190000Y-91154250D01*
X120348750Y-91313000D01*
X121473000Y-91313000D01*
X121473000Y-91293000D01*
X121727000Y-91293000D01*
X121727000Y-91313000D01*
X122851250Y-91313000D01*
X123010000Y-91154250D01*
X123013072Y-91140000D01*
X123000812Y-91015518D01*
X122964502Y-90895820D01*
X122915957Y-90805000D01*
X122964502Y-90714180D01*
X123000812Y-90594482D01*
X123013072Y-90470000D01*
X123013072Y-89870000D01*
X123000812Y-89745518D01*
X122964502Y-89625820D01*
X122905537Y-89515506D01*
X122826185Y-89418815D01*
X122729494Y-89339463D01*
X122619180Y-89280498D01*
X122504155Y-89245605D01*
X122555947Y-89148709D01*
X122606128Y-88983285D01*
X122623072Y-88811250D01*
X122623072Y-88323750D01*
X122606128Y-88151715D01*
X122555947Y-87986291D01*
X122474458Y-87833836D01*
X122364792Y-87700208D01*
X122358436Y-87694992D01*
X122436185Y-87631185D01*
X122515537Y-87534494D01*
X122574502Y-87424180D01*
X122610812Y-87304482D01*
X122623072Y-87180000D01*
X122620000Y-86978250D01*
X122461250Y-86819500D01*
X121412000Y-86819500D01*
X121412000Y-86839500D01*
X121158000Y-86839500D01*
X121158000Y-86819500D01*
X120108750Y-86819500D01*
X119950000Y-86978250D01*
X119946928Y-87180000D01*
X107303328Y-87180000D01*
X107334502Y-87121680D01*
X107370812Y-87001982D01*
X107383072Y-86877500D01*
X107380000Y-86675750D01*
X107221250Y-86517000D01*
X106172000Y-86517000D01*
X106172000Y-86537000D01*
X105918000Y-86537000D01*
X105918000Y-86517000D01*
X105898000Y-86517000D01*
X105898000Y-86263000D01*
X105918000Y-86263000D01*
X105918000Y-85426250D01*
X106172000Y-85426250D01*
X106172000Y-86263000D01*
X107221250Y-86263000D01*
X107279250Y-86205000D01*
X119946928Y-86205000D01*
X119950000Y-86406750D01*
X120108750Y-86565500D01*
X121158000Y-86565500D01*
X121158000Y-85728750D01*
X121412000Y-85728750D01*
X121412000Y-86565500D01*
X122461250Y-86565500D01*
X122620000Y-86406750D01*
X122623072Y-86205000D01*
X122610812Y-86080518D01*
X122574502Y-85960820D01*
X122515537Y-85850506D01*
X122436185Y-85753815D01*
X122339494Y-85674463D01*
X122229180Y-85615498D01*
X122109482Y-85579188D01*
X121985000Y-85566928D01*
X121570750Y-85570000D01*
X121412000Y-85728750D01*
X121158000Y-85728750D01*
X120999250Y-85570000D01*
X120585000Y-85566928D01*
X120460518Y-85579188D01*
X120340820Y-85615498D01*
X120230506Y-85674463D01*
X120133815Y-85753815D01*
X120054463Y-85850506D01*
X119995498Y-85960820D01*
X119959188Y-86080518D01*
X119946928Y-86205000D01*
X107279250Y-86205000D01*
X107380000Y-86104250D01*
X107383072Y-85902500D01*
X107370812Y-85778018D01*
X107334502Y-85658320D01*
X107275537Y-85548006D01*
X107196185Y-85451315D01*
X107099494Y-85371963D01*
X106989180Y-85312998D01*
X106869482Y-85276688D01*
X106745000Y-85264428D01*
X106330750Y-85267500D01*
X106172000Y-85426250D01*
X105918000Y-85426250D01*
X105759250Y-85267500D01*
X105345000Y-85264428D01*
X105220518Y-85276688D01*
X105100820Y-85312998D01*
X104990506Y-85371963D01*
X104976529Y-85383434D01*
X104954502Y-85310820D01*
X104895537Y-85200506D01*
X104816185Y-85103815D01*
X104775000Y-85070015D01*
X104775000Y-84705481D01*
X104775947Y-84703709D01*
X104826128Y-84538285D01*
X104843072Y-84366250D01*
X104843072Y-83878750D01*
X104826128Y-83706715D01*
X104775947Y-83541291D01*
X104694458Y-83388836D01*
X104584792Y-83255208D01*
X104578447Y-83250000D01*
X124634428Y-83250000D01*
X124646688Y-83374482D01*
X124682998Y-83494180D01*
X124741963Y-83604494D01*
X124821315Y-83701185D01*
X124918006Y-83780537D01*
X125028320Y-83839502D01*
X125148018Y-83875812D01*
X125272500Y-83888072D01*
X125474250Y-83885000D01*
X125633000Y-83726250D01*
X125633000Y-82677000D01*
X124796250Y-82677000D01*
X124637500Y-82835750D01*
X124634428Y-83250000D01*
X104578447Y-83250000D01*
X104499244Y-83185000D01*
X104584792Y-83114792D01*
X104694458Y-82981164D01*
X104775947Y-82828709D01*
X104826128Y-82663285D01*
X104843072Y-82491250D01*
X104843072Y-82003750D01*
X104826128Y-81831715D01*
X104775947Y-81666291D01*
X104694458Y-81513836D01*
X104584792Y-81380208D01*
X104451164Y-81270542D01*
X104392000Y-81238918D01*
X104392000Y-80965655D01*
X104511180Y-80929502D01*
X104621494Y-80870537D01*
X104658703Y-80840000D01*
X105143928Y-80840000D01*
X105156188Y-80964482D01*
X105192498Y-81084180D01*
X105251463Y-81194494D01*
X105330815Y-81291185D01*
X105427506Y-81370537D01*
X105537820Y-81429502D01*
X105657518Y-81465812D01*
X105782000Y-81478072D01*
X106171250Y-81475000D01*
X106330000Y-81316250D01*
X106330000Y-78867000D01*
X106584000Y-78867000D01*
X106584000Y-81316250D01*
X106742750Y-81475000D01*
X107132000Y-81478072D01*
X107256482Y-81465812D01*
X107376180Y-81429502D01*
X107486494Y-81370537D01*
X107583185Y-81291185D01*
X107662537Y-81194494D01*
X107721502Y-81084180D01*
X107757812Y-80964482D01*
X107770072Y-80840000D01*
X107767000Y-79025750D01*
X107608250Y-78867000D01*
X106584000Y-78867000D01*
X106330000Y-78867000D01*
X105305750Y-78867000D01*
X105147000Y-79025750D01*
X105143928Y-80840000D01*
X104658703Y-80840000D01*
X104718185Y-80791185D01*
X104797537Y-80694494D01*
X104856502Y-80584180D01*
X104892812Y-80464482D01*
X104905072Y-80340000D01*
X104905072Y-76885000D01*
X105144343Y-76885000D01*
X105147000Y-78454250D01*
X105305750Y-78613000D01*
X106330000Y-78613000D01*
X106330000Y-78593000D01*
X106584000Y-78593000D01*
X106584000Y-78613000D01*
X107608250Y-78613000D01*
X107767000Y-78454250D01*
X107769657Y-76885000D01*
X123497343Y-76885000D01*
X123500000Y-78454250D01*
X123658750Y-78613000D01*
X124683000Y-78613000D01*
X124683000Y-78593000D01*
X124937000Y-78593000D01*
X124937000Y-78613000D01*
X125961250Y-78613000D01*
X126120000Y-78454250D01*
X126122657Y-76885000D01*
X126361928Y-76885000D01*
X126361928Y-80340000D01*
X126374188Y-80464482D01*
X126410498Y-80584180D01*
X126469463Y-80694494D01*
X126548815Y-80791185D01*
X126645506Y-80870537D01*
X126755820Y-80929502D01*
X126875001Y-80965655D01*
X126875001Y-81382155D01*
X126767708Y-81470208D01*
X126762492Y-81476564D01*
X126698685Y-81398815D01*
X126601994Y-81319463D01*
X126491680Y-81260498D01*
X126371982Y-81224188D01*
X126247500Y-81211928D01*
X126045750Y-81215000D01*
X125887002Y-81373748D01*
X125887002Y-81331548D01*
X125936185Y-81291185D01*
X126015537Y-81194494D01*
X126074502Y-81084180D01*
X126110812Y-80964482D01*
X126123072Y-80840000D01*
X126120000Y-79025750D01*
X125961250Y-78867000D01*
X124937000Y-78867000D01*
X124937000Y-78887000D01*
X124683000Y-78887000D01*
X124683000Y-78867000D01*
X123658750Y-78867000D01*
X123500000Y-79025750D01*
X123496928Y-80840000D01*
X123509188Y-80964482D01*
X123545498Y-81084180D01*
X123604463Y-81194494D01*
X123683815Y-81291185D01*
X123780506Y-81370537D01*
X123890820Y-81429502D01*
X124010518Y-81465812D01*
X124135000Y-81478072D01*
X124524250Y-81475000D01*
X124682998Y-81316252D01*
X124682998Y-81475000D01*
X124758792Y-81475000D01*
X124741963Y-81495506D01*
X124682998Y-81605820D01*
X124646688Y-81725518D01*
X124634428Y-81850000D01*
X124637500Y-82264250D01*
X124796250Y-82423000D01*
X125633000Y-82423000D01*
X125633000Y-82403000D01*
X125887000Y-82403000D01*
X125887000Y-82423000D01*
X125907000Y-82423000D01*
X125907000Y-82677000D01*
X125887000Y-82677000D01*
X125887000Y-83726250D01*
X126045750Y-83885000D01*
X126247500Y-83888072D01*
X126299469Y-83882954D01*
X126296928Y-83908750D01*
X126296928Y-84396250D01*
X126313872Y-84568285D01*
X126364053Y-84733709D01*
X126445542Y-84886164D01*
X126555208Y-85019792D01*
X126640756Y-85090000D01*
X126630787Y-85098182D01*
X126613709Y-85089053D01*
X126448285Y-85038872D01*
X126276250Y-85021928D01*
X125788750Y-85021928D01*
X125616715Y-85038872D01*
X125451291Y-85089053D01*
X125298836Y-85170542D01*
X125165208Y-85280208D01*
X125095000Y-85365756D01*
X125024792Y-85280208D01*
X124891164Y-85170542D01*
X124738709Y-85089053D01*
X124573285Y-85038872D01*
X124401250Y-85021928D01*
X123913750Y-85021928D01*
X123741715Y-85038872D01*
X123576291Y-85089053D01*
X123423836Y-85170542D01*
X123290208Y-85280208D01*
X123180542Y-85413836D01*
X123099053Y-85566291D01*
X123048872Y-85731715D01*
X123031928Y-85903750D01*
X123031928Y-86816250D01*
X123048872Y-86988285D01*
X123099053Y-87153709D01*
X123180542Y-87306164D01*
X123185742Y-87312500D01*
X123180542Y-87318836D01*
X123099053Y-87471291D01*
X123048872Y-87636715D01*
X123031928Y-87808750D01*
X123031928Y-88721250D01*
X123048872Y-88893285D01*
X123099053Y-89058709D01*
X123180542Y-89211164D01*
X123290208Y-89344792D01*
X123423836Y-89454458D01*
X123576291Y-89535947D01*
X123741715Y-89586128D01*
X123913750Y-89603072D01*
X124401250Y-89603072D01*
X124573285Y-89586128D01*
X124738709Y-89535947D01*
X124891164Y-89454458D01*
X125024792Y-89344792D01*
X125095000Y-89259244D01*
X125165208Y-89344792D01*
X125298836Y-89454458D01*
X125451291Y-89535947D01*
X125616715Y-89586128D01*
X125654714Y-89589871D01*
X125635498Y-89625820D01*
X125599188Y-89745518D01*
X125586928Y-89870000D01*
X125586928Y-90470000D01*
X125599188Y-90594482D01*
X125635498Y-90714180D01*
X125684043Y-90805000D01*
X125635498Y-90895820D01*
X125599188Y-91015518D01*
X125586928Y-91140000D01*
X125586928Y-91740000D01*
X125599188Y-91864482D01*
X125635498Y-91984180D01*
X125684043Y-92075000D01*
X125635498Y-92165820D01*
X125599188Y-92285518D01*
X125586928Y-92410000D01*
X125586928Y-93010000D01*
X125599188Y-93134482D01*
X125635498Y-93254180D01*
X125684043Y-93345000D01*
X125635498Y-93435820D01*
X125599188Y-93555518D01*
X125586928Y-93680000D01*
X125586928Y-94280000D01*
X125599188Y-94404482D01*
X125635498Y-94524180D01*
X125694463Y-94634494D01*
X125773815Y-94731185D01*
X125870506Y-94810537D01*
X125980820Y-94869502D01*
X126100518Y-94905812D01*
X126225000Y-94918072D01*
X127775000Y-94918072D01*
X127899482Y-94905812D01*
X128019180Y-94869502D01*
X128129494Y-94810537D01*
X128221034Y-94735412D01*
X128269053Y-94893709D01*
X128350542Y-95046164D01*
X128460208Y-95179792D01*
X128545756Y-95250000D01*
X128460208Y-95320208D01*
X128350542Y-95453836D01*
X128269053Y-95606291D01*
X128218872Y-95771715D01*
X128201928Y-95943750D01*
X128201928Y-96431250D01*
X128218872Y-96603285D01*
X128269053Y-96768709D01*
X128350542Y-96921164D01*
X128460208Y-97054792D01*
X128593836Y-97164458D01*
X128655001Y-97197151D01*
X128655000Y-98118307D01*
X128640932Y-98152271D01*
X128605000Y-98332911D01*
X128605000Y-98517089D01*
X128640932Y-98697729D01*
X128711414Y-98867889D01*
X128813738Y-99021028D01*
X128943972Y-99151262D01*
X129097111Y-99253586D01*
X129267271Y-99324068D01*
X129447911Y-99360000D01*
X129632089Y-99360000D01*
X129812729Y-99324068D01*
X129982889Y-99253586D01*
X130136028Y-99151262D01*
X130266262Y-99021028D01*
X130368586Y-98867889D01*
X130439068Y-98697729D01*
X130475000Y-98517089D01*
X130475000Y-98332911D01*
X130439068Y-98152271D01*
X130425000Y-98118308D01*
X130425000Y-97197151D01*
X130486164Y-97164458D01*
X130492500Y-97159258D01*
X130498836Y-97164458D01*
X130651291Y-97245947D01*
X130816715Y-97296128D01*
X130988750Y-97313072D01*
X131901250Y-97313072D01*
X132073285Y-97296128D01*
X132238709Y-97245947D01*
X132391164Y-97164458D01*
X132524792Y-97054792D01*
X132634458Y-96921164D01*
X132715947Y-96768709D01*
X132766128Y-96603285D01*
X132783072Y-96431250D01*
X132783072Y-95943750D01*
X132766128Y-95771715D01*
X132715947Y-95606291D01*
X132634458Y-95453836D01*
X132524792Y-95320208D01*
X132518436Y-95314992D01*
X132596185Y-95251185D01*
X132675537Y-95154494D01*
X132734502Y-95044180D01*
X132770812Y-94924482D01*
X132783072Y-94800000D01*
X132780000Y-94598250D01*
X132621250Y-94439500D01*
X131572000Y-94439500D01*
X131572000Y-94459500D01*
X131318000Y-94459500D01*
X131318000Y-94439500D01*
X131298000Y-94439500D01*
X131298000Y-94185500D01*
X131318000Y-94185500D01*
X131318000Y-94165500D01*
X131572000Y-94165500D01*
X131572000Y-94185500D01*
X132621250Y-94185500D01*
X132780000Y-94026750D01*
X132783072Y-93825000D01*
X132770812Y-93700518D01*
X132734502Y-93580820D01*
X132675537Y-93470506D01*
X132596185Y-93373815D01*
X132499494Y-93294463D01*
X132389180Y-93235498D01*
X132269482Y-93199188D01*
X132236485Y-93195938D01*
X132235000Y-92995750D01*
X132076250Y-92837000D01*
X131239500Y-92837000D01*
X131239500Y-92857000D01*
X130985500Y-92857000D01*
X130985500Y-92837000D01*
X130965500Y-92837000D01*
X130965500Y-92583000D01*
X130985500Y-92583000D01*
X130985500Y-91533750D01*
X131239500Y-91533750D01*
X131239500Y-92583000D01*
X132076250Y-92583000D01*
X132235000Y-92424250D01*
X132238072Y-92010000D01*
X132225812Y-91885518D01*
X132189502Y-91765820D01*
X132130537Y-91655506D01*
X132051185Y-91558815D01*
X131954494Y-91479463D01*
X131844180Y-91420498D01*
X131724482Y-91384188D01*
X131600000Y-91371928D01*
X131398250Y-91375000D01*
X131239500Y-91533750D01*
X130985500Y-91533750D01*
X130826750Y-91375000D01*
X130625000Y-91371928D01*
X130500518Y-91384188D01*
X130380820Y-91420498D01*
X130270506Y-91479463D01*
X130173815Y-91558815D01*
X130110008Y-91636564D01*
X130104792Y-91630208D01*
X129971164Y-91520542D01*
X129818709Y-91439053D01*
X129653285Y-91388872D01*
X129481250Y-91371928D01*
X128993750Y-91371928D01*
X128821715Y-91388872D01*
X128656291Y-91439053D01*
X128503836Y-91520542D01*
X128413072Y-91595030D01*
X128413072Y-91140000D01*
X128400812Y-91015518D01*
X128364502Y-90895820D01*
X128315957Y-90805000D01*
X128364502Y-90714180D01*
X128400812Y-90594482D01*
X128413072Y-90470000D01*
X128413072Y-89870000D01*
X128400812Y-89745518D01*
X128364502Y-89625820D01*
X128305537Y-89515506D01*
X128226185Y-89418815D01*
X128129494Y-89339463D01*
X128019180Y-89280498D01*
X127899482Y-89244188D01*
X127775000Y-89231928D01*
X127763621Y-89231928D01*
X127749003Y-89083514D01*
X127705546Y-88940253D01*
X127634974Y-88808224D01*
X127563799Y-88721497D01*
X127540001Y-88692499D01*
X127511004Y-88668702D01*
X127158072Y-88315770D01*
X127158072Y-87808750D01*
X127141128Y-87636715D01*
X127090947Y-87471291D01*
X127009458Y-87318836D01*
X127004258Y-87312500D01*
X127009458Y-87306164D01*
X127090947Y-87153709D01*
X127093682Y-87144694D01*
X127178750Y-87153072D01*
X128091250Y-87153072D01*
X128263285Y-87136128D01*
X128428709Y-87085947D01*
X128581164Y-87004458D01*
X128587500Y-86999258D01*
X128593836Y-87004458D01*
X128746291Y-87085947D01*
X128911715Y-87136128D01*
X129083750Y-87153072D01*
X129996250Y-87153072D01*
X130168285Y-87136128D01*
X130333709Y-87085947D01*
X130486164Y-87004458D01*
X130619792Y-86894792D01*
X130729458Y-86761164D01*
X130810947Y-86608709D01*
X130861128Y-86443285D01*
X130878072Y-86271250D01*
X130878072Y-85783750D01*
X130861128Y-85611715D01*
X130810947Y-85446291D01*
X130729458Y-85293836D01*
X130619792Y-85160208D01*
X130534244Y-85090000D01*
X130619792Y-85019792D01*
X130729458Y-84886164D01*
X130810947Y-84733709D01*
X130861128Y-84568285D01*
X130878072Y-84396250D01*
X130878072Y-83908750D01*
X130861128Y-83736715D01*
X130810947Y-83571291D01*
X130729458Y-83418836D01*
X130619792Y-83285208D01*
X130486164Y-83175542D01*
X130333709Y-83094053D01*
X130168285Y-83043872D01*
X129996250Y-83026928D01*
X129083750Y-83026928D01*
X128911715Y-83043872D01*
X128752098Y-83092292D01*
X128760572Y-83006250D01*
X128760572Y-82093750D01*
X128743628Y-81921715D01*
X128693447Y-81756291D01*
X128611958Y-81603836D01*
X128502292Y-81470208D01*
X128395000Y-81382155D01*
X128395000Y-80965655D01*
X128514180Y-80929502D01*
X128624494Y-80870537D01*
X128661703Y-80840000D01*
X129146928Y-80840000D01*
X129159188Y-80964482D01*
X129195498Y-81084180D01*
X129254463Y-81194494D01*
X129333815Y-81291185D01*
X129430506Y-81370537D01*
X129540820Y-81429502D01*
X129660518Y-81465812D01*
X129785000Y-81478072D01*
X130174250Y-81475000D01*
X130333000Y-81316250D01*
X130333000Y-78867000D01*
X130587000Y-78867000D01*
X130587000Y-81316250D01*
X130745750Y-81475000D01*
X131135000Y-81478072D01*
X131259482Y-81465812D01*
X131379180Y-81429502D01*
X131489494Y-81370537D01*
X131586185Y-81291185D01*
X131665537Y-81194494D01*
X131724502Y-81084180D01*
X131760812Y-80964482D01*
X131773072Y-80840000D01*
X131770000Y-79025750D01*
X131611250Y-78867000D01*
X130587000Y-78867000D01*
X130333000Y-78867000D01*
X129308750Y-78867000D01*
X129150000Y-79025750D01*
X129146928Y-80840000D01*
X128661703Y-80840000D01*
X128721185Y-80791185D01*
X128800537Y-80694494D01*
X128859502Y-80584180D01*
X128895812Y-80464482D01*
X128908072Y-80340000D01*
X128908072Y-76885000D01*
X129147343Y-76885000D01*
X129150000Y-78454250D01*
X129308750Y-78613000D01*
X130333000Y-78613000D01*
X130333000Y-78593000D01*
X130587000Y-78593000D01*
X130587000Y-78613000D01*
X131611250Y-78613000D01*
X131770000Y-78454250D01*
X131772657Y-76885000D01*
X137745000Y-76885000D01*
X137745001Y-118695000D01*
X94665000Y-118695000D01*
X94665000Y-116040000D01*
X97621928Y-116040000D01*
X97621928Y-117640000D01*
X97634188Y-117764482D01*
X97670498Y-117884180D01*
X97729463Y-117994494D01*
X97808815Y-118091185D01*
X97905506Y-118170537D01*
X98015820Y-118229502D01*
X98135518Y-118265812D01*
X98260000Y-118278072D01*
X99860000Y-118278072D01*
X99984482Y-118265812D01*
X100104180Y-118229502D01*
X100214494Y-118170537D01*
X100311185Y-118091185D01*
X100390537Y-117994494D01*
X100449502Y-117884180D01*
X100485812Y-117764482D01*
X100486643Y-117756039D01*
X100685241Y-117954637D01*
X100920273Y-118111680D01*
X101181426Y-118219853D01*
X101458665Y-118275000D01*
X101741335Y-118275000D01*
X102018574Y-118219853D01*
X102279727Y-118111680D01*
X102514759Y-117954637D01*
X102714637Y-117754759D01*
X102870000Y-117522241D01*
X103025363Y-117754759D01*
X103225241Y-117954637D01*
X103460273Y-118111680D01*
X103721426Y-118219853D01*
X103998665Y-118275000D01*
X104281335Y-118275000D01*
X104558574Y-118219853D01*
X104819727Y-118111680D01*
X105054759Y-117954637D01*
X105254637Y-117754759D01*
X105411680Y-117519727D01*
X105416067Y-117509135D01*
X105527615Y-117695131D01*
X105716586Y-117903519D01*
X105942580Y-118071037D01*
X106196913Y-118191246D01*
X106330961Y-118231904D01*
X106553000Y-118109915D01*
X106553000Y-116967000D01*
X106533000Y-116967000D01*
X106533000Y-116713000D01*
X106553000Y-116713000D01*
X106553000Y-115570085D01*
X106807000Y-115570085D01*
X106807000Y-116713000D01*
X106827000Y-116713000D01*
X106827000Y-116967000D01*
X106807000Y-116967000D01*
X106807000Y-118109915D01*
X107029039Y-118231904D01*
X107163087Y-118191246D01*
X107417420Y-118071037D01*
X107643414Y-117903519D01*
X107832385Y-117695131D01*
X107943933Y-117509135D01*
X107948320Y-117519727D01*
X108105363Y-117754759D01*
X108305241Y-117954637D01*
X108540273Y-118111680D01*
X108801426Y-118219853D01*
X109078665Y-118275000D01*
X109361335Y-118275000D01*
X109638574Y-118219853D01*
X109899727Y-118111680D01*
X110134759Y-117954637D01*
X110334637Y-117754759D01*
X110490000Y-117522241D01*
X110645363Y-117754759D01*
X110845241Y-117954637D01*
X111080273Y-118111680D01*
X111341426Y-118219853D01*
X111618665Y-118275000D01*
X111901335Y-118275000D01*
X112178574Y-118219853D01*
X112439727Y-118111680D01*
X112674759Y-117954637D01*
X112874637Y-117754759D01*
X113030000Y-117522241D01*
X113185363Y-117754759D01*
X113385241Y-117954637D01*
X113620273Y-118111680D01*
X113881426Y-118219853D01*
X114158665Y-118275000D01*
X114441335Y-118275000D01*
X114718574Y-118219853D01*
X114979727Y-118111680D01*
X115214759Y-117954637D01*
X115414637Y-117754759D01*
X115570000Y-117522241D01*
X115725363Y-117754759D01*
X115925241Y-117954637D01*
X116160273Y-118111680D01*
X116421426Y-118219853D01*
X116698665Y-118275000D01*
X116981335Y-118275000D01*
X117258574Y-118219853D01*
X117519727Y-118111680D01*
X117754759Y-117954637D01*
X117954637Y-117754759D01*
X118110000Y-117522241D01*
X118265363Y-117754759D01*
X118465241Y-117954637D01*
X118700273Y-118111680D01*
X118961426Y-118219853D01*
X119238665Y-118275000D01*
X119521335Y-118275000D01*
X119798574Y-118219853D01*
X120059727Y-118111680D01*
X120294759Y-117954637D01*
X120494637Y-117754759D01*
X120650000Y-117522241D01*
X120805363Y-117754759D01*
X121005241Y-117954637D01*
X121240273Y-118111680D01*
X121501426Y-118219853D01*
X121778665Y-118275000D01*
X122061335Y-118275000D01*
X122338574Y-118219853D01*
X122599727Y-118111680D01*
X122834759Y-117954637D01*
X123034637Y-117754759D01*
X123190000Y-117522241D01*
X123345363Y-117754759D01*
X123545241Y-117954637D01*
X123780273Y-118111680D01*
X124041426Y-118219853D01*
X124318665Y-118275000D01*
X124601335Y-118275000D01*
X124878574Y-118219853D01*
X125139727Y-118111680D01*
X125374759Y-117954637D01*
X125574637Y-117754759D01*
X125730000Y-117522241D01*
X125885363Y-117754759D01*
X126085241Y-117954637D01*
X126320273Y-118111680D01*
X126581426Y-118219853D01*
X126858665Y-118275000D01*
X127141335Y-118275000D01*
X127418574Y-118219853D01*
X127679727Y-118111680D01*
X127914759Y-117954637D01*
X128114637Y-117754759D01*
X128270000Y-117522241D01*
X128425363Y-117754759D01*
X128625241Y-117954637D01*
X128860273Y-118111680D01*
X129121426Y-118219853D01*
X129398665Y-118275000D01*
X129681335Y-118275000D01*
X129958574Y-118219853D01*
X130219727Y-118111680D01*
X130454759Y-117954637D01*
X130654637Y-117754759D01*
X130810000Y-117522241D01*
X130965363Y-117754759D01*
X131165241Y-117954637D01*
X131400273Y-118111680D01*
X131661426Y-118219853D01*
X131938665Y-118275000D01*
X132221335Y-118275000D01*
X132498574Y-118219853D01*
X132759727Y-118111680D01*
X132994759Y-117954637D01*
X133194637Y-117754759D01*
X133350000Y-117522241D01*
X133505363Y-117754759D01*
X133705241Y-117954637D01*
X133940273Y-118111680D01*
X134201426Y-118219853D01*
X134478665Y-118275000D01*
X134761335Y-118275000D01*
X135038574Y-118219853D01*
X135299727Y-118111680D01*
X135534759Y-117954637D01*
X135734637Y-117754759D01*
X135891680Y-117519727D01*
X135999853Y-117258574D01*
X136055000Y-116981335D01*
X136055000Y-116698665D01*
X135999853Y-116421426D01*
X135891680Y-116160273D01*
X135734637Y-115925241D01*
X135534759Y-115725363D01*
X135299727Y-115568320D01*
X135038574Y-115460147D01*
X134761335Y-115405000D01*
X134478665Y-115405000D01*
X134201426Y-115460147D01*
X133940273Y-115568320D01*
X133705241Y-115725363D01*
X133505363Y-115925241D01*
X133350000Y-116157759D01*
X133194637Y-115925241D01*
X132994759Y-115725363D01*
X132759727Y-115568320D01*
X132498574Y-115460147D01*
X132221335Y-115405000D01*
X131938665Y-115405000D01*
X131661426Y-115460147D01*
X131400273Y-115568320D01*
X131165241Y-115725363D01*
X130965363Y-115925241D01*
X130810000Y-116157759D01*
X130654637Y-115925241D01*
X130454759Y-115725363D01*
X130219727Y-115568320D01*
X129958574Y-115460147D01*
X129681335Y-115405000D01*
X129398665Y-115405000D01*
X129121426Y-115460147D01*
X128860273Y-115568320D01*
X128625241Y-115725363D01*
X128425363Y-115925241D01*
X128270000Y-116157759D01*
X128114637Y-115925241D01*
X127914759Y-115725363D01*
X127679727Y-115568320D01*
X127418574Y-115460147D01*
X127141335Y-115405000D01*
X126858665Y-115405000D01*
X126581426Y-115460147D01*
X126320273Y-115568320D01*
X126085241Y-115725363D01*
X125885363Y-115925241D01*
X125730000Y-116157759D01*
X125574637Y-115925241D01*
X125374759Y-115725363D01*
X125139727Y-115568320D01*
X124878574Y-115460147D01*
X124601335Y-115405000D01*
X124318665Y-115405000D01*
X124041426Y-115460147D01*
X123780273Y-115568320D01*
X123545241Y-115725363D01*
X123345363Y-115925241D01*
X123190000Y-116157759D01*
X123034637Y-115925241D01*
X122834759Y-115725363D01*
X122599727Y-115568320D01*
X122338574Y-115460147D01*
X122061335Y-115405000D01*
X121778665Y-115405000D01*
X121501426Y-115460147D01*
X121240273Y-115568320D01*
X121005241Y-115725363D01*
X120805363Y-115925241D01*
X120650000Y-116157759D01*
X120494637Y-115925241D01*
X120294759Y-115725363D01*
X120059727Y-115568320D01*
X119798574Y-115460147D01*
X119521335Y-115405000D01*
X119238665Y-115405000D01*
X118961426Y-115460147D01*
X118700273Y-115568320D01*
X118465241Y-115725363D01*
X118265363Y-115925241D01*
X118110000Y-116157759D01*
X117954637Y-115925241D01*
X117754759Y-115725363D01*
X117519727Y-115568320D01*
X117258574Y-115460147D01*
X116981335Y-115405000D01*
X116698665Y-115405000D01*
X116421426Y-115460147D01*
X116160273Y-115568320D01*
X115925241Y-115725363D01*
X115725363Y-115925241D01*
X115570000Y-116157759D01*
X115414637Y-115925241D01*
X115214759Y-115725363D01*
X114979727Y-115568320D01*
X114718574Y-115460147D01*
X114441335Y-115405000D01*
X114158665Y-115405000D01*
X113881426Y-115460147D01*
X113620273Y-115568320D01*
X113385241Y-115725363D01*
X113185363Y-115925241D01*
X113030000Y-116157759D01*
X112874637Y-115925241D01*
X112674759Y-115725363D01*
X112439727Y-115568320D01*
X112178574Y-115460147D01*
X111901335Y-115405000D01*
X111618665Y-115405000D01*
X111341426Y-115460147D01*
X111080273Y-115568320D01*
X110845241Y-115725363D01*
X110645363Y-115925241D01*
X110490000Y-116157759D01*
X110334637Y-115925241D01*
X110134759Y-115725363D01*
X109899727Y-115568320D01*
X109638574Y-115460147D01*
X109361335Y-115405000D01*
X109078665Y-115405000D01*
X108801426Y-115460147D01*
X108540273Y-115568320D01*
X108305241Y-115725363D01*
X108105363Y-115925241D01*
X107948320Y-116160273D01*
X107943933Y-116170865D01*
X107832385Y-115984869D01*
X107643414Y-115776481D01*
X107417420Y-115608963D01*
X107163087Y-115488754D01*
X107029039Y-115448096D01*
X106807000Y-115570085D01*
X106553000Y-115570085D01*
X106330961Y-115448096D01*
X106196913Y-115488754D01*
X105942580Y-115608963D01*
X105716586Y-115776481D01*
X105527615Y-115984869D01*
X105416067Y-116170865D01*
X105411680Y-116160273D01*
X105254637Y-115925241D01*
X105054759Y-115725363D01*
X104819727Y-115568320D01*
X104558574Y-115460147D01*
X104281335Y-115405000D01*
X103998665Y-115405000D01*
X103721426Y-115460147D01*
X103460273Y-115568320D01*
X103225241Y-115725363D01*
X103025363Y-115925241D01*
X102870000Y-116157759D01*
X102714637Y-115925241D01*
X102514759Y-115725363D01*
X102279727Y-115568320D01*
X102018574Y-115460147D01*
X101741335Y-115405000D01*
X101458665Y-115405000D01*
X101181426Y-115460147D01*
X100920273Y-115568320D01*
X100685241Y-115725363D01*
X100486643Y-115923961D01*
X100485812Y-115915518D01*
X100449502Y-115795820D01*
X100390537Y-115685506D01*
X100311185Y-115588815D01*
X100214494Y-115509463D01*
X100104180Y-115450498D01*
X99984482Y-115414188D01*
X99860000Y-115401928D01*
X98260000Y-115401928D01*
X98135518Y-115414188D01*
X98015820Y-115450498D01*
X97905506Y-115509463D01*
X97808815Y-115588815D01*
X97729463Y-115685506D01*
X97670498Y-115795820D01*
X97634188Y-115915518D01*
X97621928Y-116040000D01*
X94665000Y-116040000D01*
X94665000Y-101458665D01*
X97625000Y-101458665D01*
X97625000Y-101741335D01*
X97680147Y-102018574D01*
X97788320Y-102279727D01*
X97945363Y-102514759D01*
X98145241Y-102714637D01*
X98380273Y-102871680D01*
X98641426Y-102979853D01*
X98918665Y-103035000D01*
X99201335Y-103035000D01*
X99478574Y-102979853D01*
X99739727Y-102871680D01*
X99974759Y-102714637D01*
X100174637Y-102514759D01*
X100331680Y-102279727D01*
X100336067Y-102269135D01*
X100447615Y-102455131D01*
X100636586Y-102663519D01*
X100862580Y-102831037D01*
X101116913Y-102951246D01*
X101250961Y-102991904D01*
X101473000Y-102869915D01*
X101473000Y-101727000D01*
X101453000Y-101727000D01*
X101453000Y-101473000D01*
X101473000Y-101473000D01*
X101473000Y-100330085D01*
X101250961Y-100208096D01*
X101116913Y-100248754D01*
X100862580Y-100368963D01*
X100636586Y-100536481D01*
X100447615Y-100744869D01*
X100336067Y-100930865D01*
X100331680Y-100920273D01*
X100174637Y-100685241D01*
X99974759Y-100485363D01*
X99739727Y-100328320D01*
X99478574Y-100220147D01*
X99201335Y-100165000D01*
X98918665Y-100165000D01*
X98641426Y-100220147D01*
X98380273Y-100328320D01*
X98145241Y-100485363D01*
X97945363Y-100685241D01*
X97788320Y-100920273D01*
X97680147Y-101181426D01*
X97625000Y-101458665D01*
X94665000Y-101458665D01*
X94665000Y-97008740D01*
X97575000Y-97008740D01*
X97575000Y-97301260D01*
X97632068Y-97588158D01*
X97744010Y-97858411D01*
X97906525Y-98101632D01*
X98113368Y-98308475D01*
X98356589Y-98470990D01*
X98626842Y-98582932D01*
X98913740Y-98640000D01*
X99206260Y-98640000D01*
X99493158Y-98582932D01*
X99763411Y-98470990D01*
X100006632Y-98308475D01*
X100138487Y-98176620D01*
X100160498Y-98249180D01*
X100219463Y-98359494D01*
X100298815Y-98456185D01*
X100395506Y-98535537D01*
X100505820Y-98594502D01*
X100625518Y-98630812D01*
X100750000Y-98643072D01*
X101314250Y-98640000D01*
X101473000Y-98481250D01*
X101473000Y-97282000D01*
X101727000Y-97282000D01*
X101727000Y-98481250D01*
X101885750Y-98640000D01*
X102450000Y-98643072D01*
X102574482Y-98630812D01*
X102694180Y-98594502D01*
X102804494Y-98535537D01*
X102901185Y-98456185D01*
X102980537Y-98359494D01*
X103039502Y-98249180D01*
X103075812Y-98129482D01*
X103088072Y-98005000D01*
X103085000Y-97440750D01*
X102926250Y-97282000D01*
X101727000Y-97282000D01*
X101473000Y-97282000D01*
X101453000Y-97282000D01*
X101453000Y-97028000D01*
X101473000Y-97028000D01*
X101473000Y-95828750D01*
X101727000Y-95828750D01*
X101727000Y-97028000D01*
X102926250Y-97028000D01*
X103085000Y-96869250D01*
X103088072Y-96305000D01*
X103075812Y-96180518D01*
X103039502Y-96060820D01*
X102980537Y-95950506D01*
X102901185Y-95853815D01*
X102804494Y-95774463D01*
X102694180Y-95715498D01*
X102574482Y-95679188D01*
X102450000Y-95666928D01*
X101885750Y-95670000D01*
X101727000Y-95828750D01*
X101473000Y-95828750D01*
X101314250Y-95670000D01*
X100750000Y-95666928D01*
X100625518Y-95679188D01*
X100505820Y-95715498D01*
X100395506Y-95774463D01*
X100298815Y-95853815D01*
X100219463Y-95950506D01*
X100160498Y-96060820D01*
X100138487Y-96133380D01*
X100006632Y-96001525D01*
X99763411Y-95839010D01*
X99493158Y-95727068D01*
X99206260Y-95670000D01*
X98913740Y-95670000D01*
X98626842Y-95727068D01*
X98356589Y-95839010D01*
X98113368Y-96001525D01*
X97906525Y-96208368D01*
X97744010Y-96451589D01*
X97632068Y-96721842D01*
X97575000Y-97008740D01*
X94665000Y-97008740D01*
X94665000Y-90870000D01*
X98599428Y-90870000D01*
X98611688Y-90994482D01*
X98647998Y-91114180D01*
X98706963Y-91224494D01*
X98786315Y-91321185D01*
X98883006Y-91400537D01*
X98993320Y-91459502D01*
X99113018Y-91495812D01*
X99237500Y-91508072D01*
X99439250Y-91505000D01*
X99598000Y-91346250D01*
X99598000Y-90297000D01*
X98761250Y-90297000D01*
X98602500Y-90455750D01*
X98599428Y-90870000D01*
X94665000Y-90870000D01*
X94665000Y-88420000D01*
X98356928Y-88420000D01*
X98369188Y-88544482D01*
X98405498Y-88664180D01*
X98464463Y-88774494D01*
X98543815Y-88871185D01*
X98640506Y-88950537D01*
X98750820Y-89009502D01*
X98785359Y-89019979D01*
X98706963Y-89115506D01*
X98647998Y-89225820D01*
X98611688Y-89345518D01*
X98599428Y-89470000D01*
X98602500Y-89884250D01*
X98761250Y-90043000D01*
X99598000Y-90043000D01*
X99598000Y-88993750D01*
X99534250Y-88930000D01*
X99568000Y-88896250D01*
X99568000Y-88059500D01*
X98518750Y-88059500D01*
X98360000Y-88218250D01*
X98356928Y-88420000D01*
X94665000Y-88420000D01*
X94665000Y-80840000D01*
X99493928Y-80840000D01*
X99506188Y-80964482D01*
X99542498Y-81084180D01*
X99601463Y-81194494D01*
X99680815Y-81291185D01*
X99777506Y-81370537D01*
X99887820Y-81429502D01*
X100007518Y-81465812D01*
X100132000Y-81478072D01*
X100521250Y-81475000D01*
X100680000Y-81316250D01*
X100680000Y-78867000D01*
X100934000Y-78867000D01*
X100934000Y-81316250D01*
X101092750Y-81475000D01*
X101482000Y-81478072D01*
X101606482Y-81465812D01*
X101726180Y-81429502D01*
X101836494Y-81370537D01*
X101933185Y-81291185D01*
X102012537Y-81194494D01*
X102071502Y-81084180D01*
X102107812Y-80964482D01*
X102120072Y-80840000D01*
X102117000Y-79025750D01*
X101958250Y-78867000D01*
X100934000Y-78867000D01*
X100680000Y-78867000D01*
X99655750Y-78867000D01*
X99497000Y-79025750D01*
X99493928Y-80840000D01*
X94665000Y-80840000D01*
X94665000Y-76885000D01*
X99494343Y-76885000D01*
X99497000Y-78454250D01*
G37*
G04 #@! TD.AperFunction*
M02*
