G04 #@! TF.GenerationSoftware,KiCad,Pcbnew,5.1.9+dfsg1-1+deb11u1*
G04 #@! TF.CreationDate,2023-03-16T17:17:06+02:00*
G04 #@! TF.ProjectId,power_meter,706f7765-725f-46d6-9574-65722e6b6963,rev?*
G04 #@! TF.SameCoordinates,Original*
G04 #@! TF.FileFunction,Copper,L2,Bot*
G04 #@! TF.FilePolarity,Positive*
%FSLAX46Y46*%
G04 Gerber Fmt 4.6, Leading zero omitted, Abs format (unit mm)*
G04 Created by KiCad (PCBNEW 5.1.9+dfsg1-1+deb11u1) date 2023-03-16 17:17:06*
%MOMM*%
%LPD*%
G01*
G04 APERTURE LIST*
G04 #@! TA.AperFunction,ComponentPad*
%ADD10R,1.600000X1.600000*%
G04 #@! TD*
G04 #@! TA.AperFunction,ComponentPad*
%ADD11O,1.600000X1.600000*%
G04 #@! TD*
G04 #@! TA.AperFunction,ComponentPad*
%ADD12R,1.700000X1.700000*%
G04 #@! TD*
G04 #@! TA.AperFunction,ComponentPad*
%ADD13O,1.700000X1.700000*%
G04 #@! TD*
G04 #@! TA.AperFunction,SMDPad,CuDef*
%ADD14R,1.350000X4.200000*%
G04 #@! TD*
G04 #@! TA.AperFunction,ViaPad*
%ADD15C,0.600000*%
G04 #@! TD*
G04 #@! TA.AperFunction,Conductor*
%ADD16C,0.500000*%
G04 #@! TD*
G04 #@! TA.AperFunction,Conductor*
%ADD17C,0.250000*%
G04 #@! TD*
G04 #@! TA.AperFunction,Conductor*
%ADD18C,0.254000*%
G04 #@! TD*
G04 #@! TA.AperFunction,Conductor*
%ADD19C,0.100000*%
G04 #@! TD*
G04 APERTURE END LIST*
D10*
X99060000Y-116840000D03*
D11*
X132080000Y-101600000D03*
X101600000Y-116840000D03*
X129540000Y-101600000D03*
X104140000Y-116840000D03*
X127000000Y-101600000D03*
X106680000Y-116840000D03*
X124460000Y-101600000D03*
X109220000Y-116840000D03*
X121920000Y-101600000D03*
X111760000Y-116840000D03*
X119380000Y-101600000D03*
X114300000Y-116840000D03*
X116840000Y-101600000D03*
X116840000Y-116840000D03*
X114300000Y-101600000D03*
X119380000Y-116840000D03*
X111760000Y-101600000D03*
X121920000Y-116840000D03*
X109220000Y-101600000D03*
X124460000Y-116840000D03*
X106680000Y-101600000D03*
X127000000Y-116840000D03*
X104140000Y-101600000D03*
X129540000Y-116840000D03*
X101600000Y-101600000D03*
X132080000Y-116840000D03*
X99060000Y-101600000D03*
X134620000Y-116840000D03*
X134620000Y-101600000D03*
D12*
X101600000Y-97155000D03*
D13*
X99060000Y-97155000D03*
D12*
X109220000Y-97155000D03*
D13*
X111760000Y-97155000D03*
X114300000Y-97155000D03*
X116840000Y-97155000D03*
D14*
X124810000Y-78740000D03*
X130460000Y-78740000D03*
X106457000Y-78740000D03*
X100807000Y-78740000D03*
D15*
X101600000Y-81915000D03*
X105410000Y-81915000D03*
X106680000Y-81915000D03*
X100330000Y-81915000D03*
X99060000Y-81915000D03*
X107950000Y-81915000D03*
X107950000Y-85725000D03*
X107950000Y-86995000D03*
X107950000Y-89535000D03*
X97790000Y-81915000D03*
X97790000Y-85725000D03*
X97790000Y-86995000D03*
X97790000Y-88265000D03*
X97790000Y-89535000D03*
X97790000Y-90805000D03*
X107950000Y-90805000D03*
X97790000Y-92075000D03*
X99060000Y-92075000D03*
X100330000Y-92075000D03*
X102870000Y-92075000D03*
X104140000Y-92075000D03*
X105410000Y-92075000D03*
X107950000Y-88265000D03*
X133350000Y-86995000D03*
X133350000Y-88265000D03*
X133350000Y-89535000D03*
X133350000Y-90805000D03*
X119380000Y-84455000D03*
X119380000Y-86995000D03*
X119380000Y-88265000D03*
X119380000Y-89535000D03*
X119380000Y-90805000D03*
X119380000Y-92075000D03*
X119380000Y-93345000D03*
X119380000Y-94615000D03*
X133350000Y-85725000D03*
X133350000Y-84455000D03*
X119380000Y-85725000D03*
X133350000Y-92075000D03*
X133350000Y-93345000D03*
X133350000Y-94615000D03*
X133350000Y-95885000D03*
X133350000Y-97155000D03*
X132080000Y-98425000D03*
X128270000Y-98425000D03*
X127000000Y-98425000D03*
X125730000Y-98425000D03*
X119380000Y-95885000D03*
X119380000Y-97155000D03*
X119380000Y-83185000D03*
X119380000Y-81915000D03*
X120650000Y-81915000D03*
X121920000Y-81915000D03*
X123190000Y-81915000D03*
X133350000Y-83185000D03*
X133350000Y-81915000D03*
X132080000Y-81915000D03*
X130810000Y-81915000D03*
X129540000Y-81915000D03*
X124460000Y-81915000D03*
X107950000Y-92075000D03*
X102870000Y-86995000D03*
X119380000Y-98425000D03*
X133350000Y-98425000D03*
X130810000Y-98425000D03*
X97790000Y-84455000D03*
X97790000Y-83185000D03*
X107950000Y-84455000D03*
X107950000Y-83185000D03*
X106680000Y-92075000D03*
X129540000Y-98425000D03*
X102870000Y-88900000D03*
X100965000Y-85810000D03*
D16*
X106680000Y-99695000D02*
X128905000Y-99695000D01*
X106680000Y-101600000D02*
X106680000Y-99695000D01*
X111760000Y-97155000D02*
X111760000Y-99695000D01*
X106680000Y-99695000D02*
X106680000Y-95250000D01*
X128905000Y-99695000D02*
X129540000Y-99695000D01*
X106680000Y-95250000D02*
X106680000Y-92075000D01*
X129540000Y-99695000D02*
X129540000Y-98425000D01*
X99060000Y-97155000D02*
X99060000Y-101600000D01*
D17*
X102870000Y-88900000D02*
X100965000Y-86995000D01*
X100965000Y-86995000D02*
X100965000Y-85810000D01*
D18*
X99497000Y-78454250D02*
X99655750Y-78613000D01*
X100680000Y-78613000D01*
X100680000Y-78593000D01*
X100934000Y-78593000D01*
X100934000Y-78613000D01*
X101958250Y-78613000D01*
X102117000Y-78454250D01*
X102119657Y-76885000D01*
X105144343Y-76885000D01*
X105147000Y-78454250D01*
X105305750Y-78613000D01*
X106330000Y-78613000D01*
X106330000Y-78593000D01*
X106584000Y-78593000D01*
X106584000Y-78613000D01*
X107608250Y-78613000D01*
X107767000Y-78454250D01*
X107769657Y-76885000D01*
X123497343Y-76885000D01*
X123500000Y-78454250D01*
X123658750Y-78613000D01*
X124683000Y-78613000D01*
X124683000Y-78593000D01*
X124937000Y-78593000D01*
X124937000Y-78613000D01*
X125961250Y-78613000D01*
X126120000Y-78454250D01*
X126122657Y-76885000D01*
X129147343Y-76885000D01*
X129150000Y-78454250D01*
X129308750Y-78613000D01*
X130333000Y-78613000D01*
X130333000Y-78593000D01*
X130587000Y-78593000D01*
X130587000Y-78613000D01*
X131611250Y-78613000D01*
X131770000Y-78454250D01*
X131772657Y-76885000D01*
X137745000Y-76885000D01*
X137745001Y-118695000D01*
X94665000Y-118695000D01*
X94665000Y-116040000D01*
X97621928Y-116040000D01*
X97621928Y-117640000D01*
X97634188Y-117764482D01*
X97670498Y-117884180D01*
X97729463Y-117994494D01*
X97808815Y-118091185D01*
X97905506Y-118170537D01*
X98015820Y-118229502D01*
X98135518Y-118265812D01*
X98260000Y-118278072D01*
X99860000Y-118278072D01*
X99984482Y-118265812D01*
X100104180Y-118229502D01*
X100214494Y-118170537D01*
X100311185Y-118091185D01*
X100390537Y-117994494D01*
X100449502Y-117884180D01*
X100485812Y-117764482D01*
X100486643Y-117756039D01*
X100685241Y-117954637D01*
X100920273Y-118111680D01*
X101181426Y-118219853D01*
X101458665Y-118275000D01*
X101741335Y-118275000D01*
X102018574Y-118219853D01*
X102279727Y-118111680D01*
X102514759Y-117954637D01*
X102714637Y-117754759D01*
X102870000Y-117522241D01*
X103025363Y-117754759D01*
X103225241Y-117954637D01*
X103460273Y-118111680D01*
X103721426Y-118219853D01*
X103998665Y-118275000D01*
X104281335Y-118275000D01*
X104558574Y-118219853D01*
X104819727Y-118111680D01*
X105054759Y-117954637D01*
X105254637Y-117754759D01*
X105411680Y-117519727D01*
X105416067Y-117509135D01*
X105527615Y-117695131D01*
X105716586Y-117903519D01*
X105942580Y-118071037D01*
X106196913Y-118191246D01*
X106330961Y-118231904D01*
X106553000Y-118109915D01*
X106553000Y-116967000D01*
X106533000Y-116967000D01*
X106533000Y-116713000D01*
X106553000Y-116713000D01*
X106553000Y-115570085D01*
X106807000Y-115570085D01*
X106807000Y-116713000D01*
X106827000Y-116713000D01*
X106827000Y-116967000D01*
X106807000Y-116967000D01*
X106807000Y-118109915D01*
X107029039Y-118231904D01*
X107163087Y-118191246D01*
X107417420Y-118071037D01*
X107643414Y-117903519D01*
X107832385Y-117695131D01*
X107943933Y-117509135D01*
X107948320Y-117519727D01*
X108105363Y-117754759D01*
X108305241Y-117954637D01*
X108540273Y-118111680D01*
X108801426Y-118219853D01*
X109078665Y-118275000D01*
X109361335Y-118275000D01*
X109638574Y-118219853D01*
X109899727Y-118111680D01*
X110134759Y-117954637D01*
X110334637Y-117754759D01*
X110490000Y-117522241D01*
X110645363Y-117754759D01*
X110845241Y-117954637D01*
X111080273Y-118111680D01*
X111341426Y-118219853D01*
X111618665Y-118275000D01*
X111901335Y-118275000D01*
X112178574Y-118219853D01*
X112439727Y-118111680D01*
X112674759Y-117954637D01*
X112874637Y-117754759D01*
X113030000Y-117522241D01*
X113185363Y-117754759D01*
X113385241Y-117954637D01*
X113620273Y-118111680D01*
X113881426Y-118219853D01*
X114158665Y-118275000D01*
X114441335Y-118275000D01*
X114718574Y-118219853D01*
X114979727Y-118111680D01*
X115214759Y-117954637D01*
X115414637Y-117754759D01*
X115570000Y-117522241D01*
X115725363Y-117754759D01*
X115925241Y-117954637D01*
X116160273Y-118111680D01*
X116421426Y-118219853D01*
X116698665Y-118275000D01*
X116981335Y-118275000D01*
X117258574Y-118219853D01*
X117519727Y-118111680D01*
X117754759Y-117954637D01*
X117954637Y-117754759D01*
X118110000Y-117522241D01*
X118265363Y-117754759D01*
X118465241Y-117954637D01*
X118700273Y-118111680D01*
X118961426Y-118219853D01*
X119238665Y-118275000D01*
X119521335Y-118275000D01*
X119798574Y-118219853D01*
X120059727Y-118111680D01*
X120294759Y-117954637D01*
X120494637Y-117754759D01*
X120650000Y-117522241D01*
X120805363Y-117754759D01*
X121005241Y-117954637D01*
X121240273Y-118111680D01*
X121501426Y-118219853D01*
X121778665Y-118275000D01*
X122061335Y-118275000D01*
X122338574Y-118219853D01*
X122599727Y-118111680D01*
X122834759Y-117954637D01*
X123034637Y-117754759D01*
X123190000Y-117522241D01*
X123345363Y-117754759D01*
X123545241Y-117954637D01*
X123780273Y-118111680D01*
X124041426Y-118219853D01*
X124318665Y-118275000D01*
X124601335Y-118275000D01*
X124878574Y-118219853D01*
X125139727Y-118111680D01*
X125374759Y-117954637D01*
X125574637Y-117754759D01*
X125730000Y-117522241D01*
X125885363Y-117754759D01*
X126085241Y-117954637D01*
X126320273Y-118111680D01*
X126581426Y-118219853D01*
X126858665Y-118275000D01*
X127141335Y-118275000D01*
X127418574Y-118219853D01*
X127679727Y-118111680D01*
X127914759Y-117954637D01*
X128114637Y-117754759D01*
X128270000Y-117522241D01*
X128425363Y-117754759D01*
X128625241Y-117954637D01*
X128860273Y-118111680D01*
X129121426Y-118219853D01*
X129398665Y-118275000D01*
X129681335Y-118275000D01*
X129958574Y-118219853D01*
X130219727Y-118111680D01*
X130454759Y-117954637D01*
X130654637Y-117754759D01*
X130810000Y-117522241D01*
X130965363Y-117754759D01*
X131165241Y-117954637D01*
X131400273Y-118111680D01*
X131661426Y-118219853D01*
X131938665Y-118275000D01*
X132221335Y-118275000D01*
X132498574Y-118219853D01*
X132759727Y-118111680D01*
X132994759Y-117954637D01*
X133194637Y-117754759D01*
X133350000Y-117522241D01*
X133505363Y-117754759D01*
X133705241Y-117954637D01*
X133940273Y-118111680D01*
X134201426Y-118219853D01*
X134478665Y-118275000D01*
X134761335Y-118275000D01*
X135038574Y-118219853D01*
X135299727Y-118111680D01*
X135534759Y-117954637D01*
X135734637Y-117754759D01*
X135891680Y-117519727D01*
X135999853Y-117258574D01*
X136055000Y-116981335D01*
X136055000Y-116698665D01*
X135999853Y-116421426D01*
X135891680Y-116160273D01*
X135734637Y-115925241D01*
X135534759Y-115725363D01*
X135299727Y-115568320D01*
X135038574Y-115460147D01*
X134761335Y-115405000D01*
X134478665Y-115405000D01*
X134201426Y-115460147D01*
X133940273Y-115568320D01*
X133705241Y-115725363D01*
X133505363Y-115925241D01*
X133350000Y-116157759D01*
X133194637Y-115925241D01*
X132994759Y-115725363D01*
X132759727Y-115568320D01*
X132498574Y-115460147D01*
X132221335Y-115405000D01*
X131938665Y-115405000D01*
X131661426Y-115460147D01*
X131400273Y-115568320D01*
X131165241Y-115725363D01*
X130965363Y-115925241D01*
X130810000Y-116157759D01*
X130654637Y-115925241D01*
X130454759Y-115725363D01*
X130219727Y-115568320D01*
X129958574Y-115460147D01*
X129681335Y-115405000D01*
X129398665Y-115405000D01*
X129121426Y-115460147D01*
X128860273Y-115568320D01*
X128625241Y-115725363D01*
X128425363Y-115925241D01*
X128270000Y-116157759D01*
X128114637Y-115925241D01*
X127914759Y-115725363D01*
X127679727Y-115568320D01*
X127418574Y-115460147D01*
X127141335Y-115405000D01*
X126858665Y-115405000D01*
X126581426Y-115460147D01*
X126320273Y-115568320D01*
X126085241Y-115725363D01*
X125885363Y-115925241D01*
X125730000Y-116157759D01*
X125574637Y-115925241D01*
X125374759Y-115725363D01*
X125139727Y-115568320D01*
X124878574Y-115460147D01*
X124601335Y-115405000D01*
X124318665Y-115405000D01*
X124041426Y-115460147D01*
X123780273Y-115568320D01*
X123545241Y-115725363D01*
X123345363Y-115925241D01*
X123190000Y-116157759D01*
X123034637Y-115925241D01*
X122834759Y-115725363D01*
X122599727Y-115568320D01*
X122338574Y-115460147D01*
X122061335Y-115405000D01*
X121778665Y-115405000D01*
X121501426Y-115460147D01*
X121240273Y-115568320D01*
X121005241Y-115725363D01*
X120805363Y-115925241D01*
X120650000Y-116157759D01*
X120494637Y-115925241D01*
X120294759Y-115725363D01*
X120059727Y-115568320D01*
X119798574Y-115460147D01*
X119521335Y-115405000D01*
X119238665Y-115405000D01*
X118961426Y-115460147D01*
X118700273Y-115568320D01*
X118465241Y-115725363D01*
X118265363Y-115925241D01*
X118110000Y-116157759D01*
X117954637Y-115925241D01*
X117754759Y-115725363D01*
X117519727Y-115568320D01*
X117258574Y-115460147D01*
X116981335Y-115405000D01*
X116698665Y-115405000D01*
X116421426Y-115460147D01*
X116160273Y-115568320D01*
X115925241Y-115725363D01*
X115725363Y-115925241D01*
X115570000Y-116157759D01*
X115414637Y-115925241D01*
X115214759Y-115725363D01*
X114979727Y-115568320D01*
X114718574Y-115460147D01*
X114441335Y-115405000D01*
X114158665Y-115405000D01*
X113881426Y-115460147D01*
X113620273Y-115568320D01*
X113385241Y-115725363D01*
X113185363Y-115925241D01*
X113030000Y-116157759D01*
X112874637Y-115925241D01*
X112674759Y-115725363D01*
X112439727Y-115568320D01*
X112178574Y-115460147D01*
X111901335Y-115405000D01*
X111618665Y-115405000D01*
X111341426Y-115460147D01*
X111080273Y-115568320D01*
X110845241Y-115725363D01*
X110645363Y-115925241D01*
X110490000Y-116157759D01*
X110334637Y-115925241D01*
X110134759Y-115725363D01*
X109899727Y-115568320D01*
X109638574Y-115460147D01*
X109361335Y-115405000D01*
X109078665Y-115405000D01*
X108801426Y-115460147D01*
X108540273Y-115568320D01*
X108305241Y-115725363D01*
X108105363Y-115925241D01*
X107948320Y-116160273D01*
X107943933Y-116170865D01*
X107832385Y-115984869D01*
X107643414Y-115776481D01*
X107417420Y-115608963D01*
X107163087Y-115488754D01*
X107029039Y-115448096D01*
X106807000Y-115570085D01*
X106553000Y-115570085D01*
X106330961Y-115448096D01*
X106196913Y-115488754D01*
X105942580Y-115608963D01*
X105716586Y-115776481D01*
X105527615Y-115984869D01*
X105416067Y-116170865D01*
X105411680Y-116160273D01*
X105254637Y-115925241D01*
X105054759Y-115725363D01*
X104819727Y-115568320D01*
X104558574Y-115460147D01*
X104281335Y-115405000D01*
X103998665Y-115405000D01*
X103721426Y-115460147D01*
X103460273Y-115568320D01*
X103225241Y-115725363D01*
X103025363Y-115925241D01*
X102870000Y-116157759D01*
X102714637Y-115925241D01*
X102514759Y-115725363D01*
X102279727Y-115568320D01*
X102018574Y-115460147D01*
X101741335Y-115405000D01*
X101458665Y-115405000D01*
X101181426Y-115460147D01*
X100920273Y-115568320D01*
X100685241Y-115725363D01*
X100486643Y-115923961D01*
X100485812Y-115915518D01*
X100449502Y-115795820D01*
X100390537Y-115685506D01*
X100311185Y-115588815D01*
X100214494Y-115509463D01*
X100104180Y-115450498D01*
X99984482Y-115414188D01*
X99860000Y-115401928D01*
X98260000Y-115401928D01*
X98135518Y-115414188D01*
X98015820Y-115450498D01*
X97905506Y-115509463D01*
X97808815Y-115588815D01*
X97729463Y-115685506D01*
X97670498Y-115795820D01*
X97634188Y-115915518D01*
X97621928Y-116040000D01*
X94665000Y-116040000D01*
X94665000Y-97008740D01*
X97575000Y-97008740D01*
X97575000Y-97301260D01*
X97632068Y-97588158D01*
X97744010Y-97858411D01*
X97906525Y-98101632D01*
X98113368Y-98308475D01*
X98175000Y-98349656D01*
X98175001Y-100465478D01*
X98145241Y-100485363D01*
X97945363Y-100685241D01*
X97788320Y-100920273D01*
X97680147Y-101181426D01*
X97625000Y-101458665D01*
X97625000Y-101741335D01*
X97680147Y-102018574D01*
X97788320Y-102279727D01*
X97945363Y-102514759D01*
X98145241Y-102714637D01*
X98380273Y-102871680D01*
X98641426Y-102979853D01*
X98918665Y-103035000D01*
X99201335Y-103035000D01*
X99478574Y-102979853D01*
X99739727Y-102871680D01*
X99974759Y-102714637D01*
X100174637Y-102514759D01*
X100331680Y-102279727D01*
X100336067Y-102269135D01*
X100447615Y-102455131D01*
X100636586Y-102663519D01*
X100862580Y-102831037D01*
X101116913Y-102951246D01*
X101250961Y-102991904D01*
X101473000Y-102869915D01*
X101473000Y-101727000D01*
X101453000Y-101727000D01*
X101453000Y-101473000D01*
X101473000Y-101473000D01*
X101473000Y-100330085D01*
X101727000Y-100330085D01*
X101727000Y-101473000D01*
X101747000Y-101473000D01*
X101747000Y-101727000D01*
X101727000Y-101727000D01*
X101727000Y-102869915D01*
X101949039Y-102991904D01*
X102083087Y-102951246D01*
X102337420Y-102831037D01*
X102563414Y-102663519D01*
X102752385Y-102455131D01*
X102863933Y-102269135D01*
X102868320Y-102279727D01*
X103025363Y-102514759D01*
X103225241Y-102714637D01*
X103460273Y-102871680D01*
X103721426Y-102979853D01*
X103998665Y-103035000D01*
X104281335Y-103035000D01*
X104558574Y-102979853D01*
X104819727Y-102871680D01*
X105054759Y-102714637D01*
X105254637Y-102514759D01*
X105410000Y-102282241D01*
X105565363Y-102514759D01*
X105765241Y-102714637D01*
X106000273Y-102871680D01*
X106261426Y-102979853D01*
X106538665Y-103035000D01*
X106821335Y-103035000D01*
X107098574Y-102979853D01*
X107359727Y-102871680D01*
X107594759Y-102714637D01*
X107794637Y-102514759D01*
X107950000Y-102282241D01*
X108105363Y-102514759D01*
X108305241Y-102714637D01*
X108540273Y-102871680D01*
X108801426Y-102979853D01*
X109078665Y-103035000D01*
X109361335Y-103035000D01*
X109638574Y-102979853D01*
X109899727Y-102871680D01*
X110134759Y-102714637D01*
X110334637Y-102514759D01*
X110490000Y-102282241D01*
X110645363Y-102514759D01*
X110845241Y-102714637D01*
X111080273Y-102871680D01*
X111341426Y-102979853D01*
X111618665Y-103035000D01*
X111901335Y-103035000D01*
X112178574Y-102979853D01*
X112439727Y-102871680D01*
X112674759Y-102714637D01*
X112874637Y-102514759D01*
X113030000Y-102282241D01*
X113185363Y-102514759D01*
X113385241Y-102714637D01*
X113620273Y-102871680D01*
X113881426Y-102979853D01*
X114158665Y-103035000D01*
X114441335Y-103035000D01*
X114718574Y-102979853D01*
X114979727Y-102871680D01*
X115214759Y-102714637D01*
X115414637Y-102514759D01*
X115570000Y-102282241D01*
X115725363Y-102514759D01*
X115925241Y-102714637D01*
X116160273Y-102871680D01*
X116421426Y-102979853D01*
X116698665Y-103035000D01*
X116981335Y-103035000D01*
X117258574Y-102979853D01*
X117519727Y-102871680D01*
X117754759Y-102714637D01*
X117954637Y-102514759D01*
X118110000Y-102282241D01*
X118265363Y-102514759D01*
X118465241Y-102714637D01*
X118700273Y-102871680D01*
X118961426Y-102979853D01*
X119238665Y-103035000D01*
X119521335Y-103035000D01*
X119798574Y-102979853D01*
X120059727Y-102871680D01*
X120294759Y-102714637D01*
X120494637Y-102514759D01*
X120650000Y-102282241D01*
X120805363Y-102514759D01*
X121005241Y-102714637D01*
X121240273Y-102871680D01*
X121501426Y-102979853D01*
X121778665Y-103035000D01*
X122061335Y-103035000D01*
X122338574Y-102979853D01*
X122599727Y-102871680D01*
X122834759Y-102714637D01*
X123034637Y-102514759D01*
X123190000Y-102282241D01*
X123345363Y-102514759D01*
X123545241Y-102714637D01*
X123780273Y-102871680D01*
X124041426Y-102979853D01*
X124318665Y-103035000D01*
X124601335Y-103035000D01*
X124878574Y-102979853D01*
X125139727Y-102871680D01*
X125374759Y-102714637D01*
X125574637Y-102514759D01*
X125730000Y-102282241D01*
X125885363Y-102514759D01*
X126085241Y-102714637D01*
X126320273Y-102871680D01*
X126581426Y-102979853D01*
X126858665Y-103035000D01*
X127141335Y-103035000D01*
X127418574Y-102979853D01*
X127679727Y-102871680D01*
X127914759Y-102714637D01*
X128114637Y-102514759D01*
X128270000Y-102282241D01*
X128425363Y-102514759D01*
X128625241Y-102714637D01*
X128860273Y-102871680D01*
X129121426Y-102979853D01*
X129398665Y-103035000D01*
X129681335Y-103035000D01*
X129958574Y-102979853D01*
X130219727Y-102871680D01*
X130454759Y-102714637D01*
X130654637Y-102514759D01*
X130810000Y-102282241D01*
X130965363Y-102514759D01*
X131165241Y-102714637D01*
X131400273Y-102871680D01*
X131661426Y-102979853D01*
X131938665Y-103035000D01*
X132221335Y-103035000D01*
X132498574Y-102979853D01*
X132759727Y-102871680D01*
X132994759Y-102714637D01*
X133194637Y-102514759D01*
X133350000Y-102282241D01*
X133505363Y-102514759D01*
X133705241Y-102714637D01*
X133940273Y-102871680D01*
X134201426Y-102979853D01*
X134478665Y-103035000D01*
X134761335Y-103035000D01*
X135038574Y-102979853D01*
X135299727Y-102871680D01*
X135534759Y-102714637D01*
X135734637Y-102514759D01*
X135891680Y-102279727D01*
X135999853Y-102018574D01*
X136055000Y-101741335D01*
X136055000Y-101458665D01*
X135999853Y-101181426D01*
X135891680Y-100920273D01*
X135734637Y-100685241D01*
X135534759Y-100485363D01*
X135299727Y-100328320D01*
X135038574Y-100220147D01*
X134761335Y-100165000D01*
X134478665Y-100165000D01*
X134201426Y-100220147D01*
X133940273Y-100328320D01*
X133705241Y-100485363D01*
X133505363Y-100685241D01*
X133350000Y-100917759D01*
X133194637Y-100685241D01*
X132994759Y-100485363D01*
X132759727Y-100328320D01*
X132498574Y-100220147D01*
X132221335Y-100165000D01*
X131938665Y-100165000D01*
X131661426Y-100220147D01*
X131400273Y-100328320D01*
X131165241Y-100485363D01*
X130965363Y-100685241D01*
X130810000Y-100917759D01*
X130654637Y-100685241D01*
X130454759Y-100485363D01*
X130219727Y-100328320D01*
X130178975Y-100311440D01*
X130279411Y-100189059D01*
X130361589Y-100035313D01*
X130412195Y-99868490D01*
X130429282Y-99695000D01*
X130425000Y-99651523D01*
X130425000Y-98731692D01*
X130439068Y-98697729D01*
X130475000Y-98517089D01*
X130475000Y-98332911D01*
X130439068Y-98152271D01*
X130368586Y-97982111D01*
X130266262Y-97828972D01*
X130136028Y-97698738D01*
X129982889Y-97596414D01*
X129812729Y-97525932D01*
X129632089Y-97490000D01*
X129447911Y-97490000D01*
X129267271Y-97525932D01*
X129097111Y-97596414D01*
X128943972Y-97698738D01*
X128813738Y-97828972D01*
X128711414Y-97982111D01*
X128640932Y-98152271D01*
X128605000Y-98332911D01*
X128605000Y-98517089D01*
X128640932Y-98697729D01*
X128655001Y-98731694D01*
X128655001Y-98810000D01*
X112645000Y-98810000D01*
X112645000Y-98349656D01*
X112706632Y-98308475D01*
X112913475Y-98101632D01*
X113030000Y-97927240D01*
X113146525Y-98101632D01*
X113353368Y-98308475D01*
X113596589Y-98470990D01*
X113866842Y-98582932D01*
X114153740Y-98640000D01*
X114446260Y-98640000D01*
X114733158Y-98582932D01*
X115003411Y-98470990D01*
X115246632Y-98308475D01*
X115453475Y-98101632D01*
X115570000Y-97927240D01*
X115686525Y-98101632D01*
X115893368Y-98308475D01*
X116136589Y-98470990D01*
X116406842Y-98582932D01*
X116693740Y-98640000D01*
X116986260Y-98640000D01*
X117273158Y-98582932D01*
X117543411Y-98470990D01*
X117786632Y-98308475D01*
X117993475Y-98101632D01*
X118155990Y-97858411D01*
X118267932Y-97588158D01*
X118325000Y-97301260D01*
X118325000Y-97008740D01*
X118267932Y-96721842D01*
X118155990Y-96451589D01*
X117993475Y-96208368D01*
X117786632Y-96001525D01*
X117543411Y-95839010D01*
X117273158Y-95727068D01*
X116986260Y-95670000D01*
X116693740Y-95670000D01*
X116406842Y-95727068D01*
X116136589Y-95839010D01*
X115893368Y-96001525D01*
X115686525Y-96208368D01*
X115570000Y-96382760D01*
X115453475Y-96208368D01*
X115246632Y-96001525D01*
X115003411Y-95839010D01*
X114733158Y-95727068D01*
X114446260Y-95670000D01*
X114153740Y-95670000D01*
X113866842Y-95727068D01*
X113596589Y-95839010D01*
X113353368Y-96001525D01*
X113146525Y-96208368D01*
X113030000Y-96382760D01*
X112913475Y-96208368D01*
X112706632Y-96001525D01*
X112463411Y-95839010D01*
X112193158Y-95727068D01*
X111906260Y-95670000D01*
X111613740Y-95670000D01*
X111326842Y-95727068D01*
X111056589Y-95839010D01*
X110813368Y-96001525D01*
X110681513Y-96133380D01*
X110659502Y-96060820D01*
X110600537Y-95950506D01*
X110521185Y-95853815D01*
X110424494Y-95774463D01*
X110314180Y-95715498D01*
X110194482Y-95679188D01*
X110070000Y-95666928D01*
X109505750Y-95670000D01*
X109347000Y-95828750D01*
X109347000Y-97028000D01*
X109367000Y-97028000D01*
X109367000Y-97282000D01*
X109347000Y-97282000D01*
X109347000Y-98481250D01*
X109505750Y-98640000D01*
X110070000Y-98643072D01*
X110194482Y-98630812D01*
X110314180Y-98594502D01*
X110424494Y-98535537D01*
X110521185Y-98456185D01*
X110600537Y-98359494D01*
X110659502Y-98249180D01*
X110681513Y-98176620D01*
X110813368Y-98308475D01*
X110875000Y-98349656D01*
X110875001Y-98810000D01*
X107565000Y-98810000D01*
X107565000Y-98005000D01*
X107731928Y-98005000D01*
X107744188Y-98129482D01*
X107780498Y-98249180D01*
X107839463Y-98359494D01*
X107918815Y-98456185D01*
X108015506Y-98535537D01*
X108125820Y-98594502D01*
X108245518Y-98630812D01*
X108370000Y-98643072D01*
X108934250Y-98640000D01*
X109093000Y-98481250D01*
X109093000Y-97282000D01*
X107893750Y-97282000D01*
X107735000Y-97440750D01*
X107731928Y-98005000D01*
X107565000Y-98005000D01*
X107565000Y-96305000D01*
X107731928Y-96305000D01*
X107735000Y-96869250D01*
X107893750Y-97028000D01*
X109093000Y-97028000D01*
X109093000Y-95828750D01*
X108934250Y-95670000D01*
X108370000Y-95666928D01*
X108245518Y-95679188D01*
X108125820Y-95715498D01*
X108015506Y-95774463D01*
X107918815Y-95853815D01*
X107839463Y-95950506D01*
X107780498Y-96060820D01*
X107744188Y-96180518D01*
X107731928Y-96305000D01*
X107565000Y-96305000D01*
X107565000Y-92381692D01*
X107579068Y-92347729D01*
X107615000Y-92167089D01*
X107615000Y-91982911D01*
X107579068Y-91802271D01*
X107508586Y-91632111D01*
X107406262Y-91478972D01*
X107276028Y-91348738D01*
X107122889Y-91246414D01*
X106952729Y-91175932D01*
X106772089Y-91140000D01*
X106587911Y-91140000D01*
X106407271Y-91175932D01*
X106237111Y-91246414D01*
X106083972Y-91348738D01*
X105953738Y-91478972D01*
X105851414Y-91632111D01*
X105780932Y-91802271D01*
X105745000Y-91982911D01*
X105745000Y-92167089D01*
X105780932Y-92347729D01*
X105795001Y-92381695D01*
X105795000Y-95293476D01*
X105795001Y-95293486D01*
X105795000Y-99651523D01*
X105790718Y-99695000D01*
X105795001Y-99738486D01*
X105795001Y-100465478D01*
X105765241Y-100485363D01*
X105565363Y-100685241D01*
X105410000Y-100917759D01*
X105254637Y-100685241D01*
X105054759Y-100485363D01*
X104819727Y-100328320D01*
X104558574Y-100220147D01*
X104281335Y-100165000D01*
X103998665Y-100165000D01*
X103721426Y-100220147D01*
X103460273Y-100328320D01*
X103225241Y-100485363D01*
X103025363Y-100685241D01*
X102868320Y-100920273D01*
X102863933Y-100930865D01*
X102752385Y-100744869D01*
X102563414Y-100536481D01*
X102337420Y-100368963D01*
X102083087Y-100248754D01*
X101949039Y-100208096D01*
X101727000Y-100330085D01*
X101473000Y-100330085D01*
X101250961Y-100208096D01*
X101116913Y-100248754D01*
X100862580Y-100368963D01*
X100636586Y-100536481D01*
X100447615Y-100744869D01*
X100336067Y-100930865D01*
X100331680Y-100920273D01*
X100174637Y-100685241D01*
X99974759Y-100485363D01*
X99945000Y-100465479D01*
X99945000Y-98349656D01*
X100006632Y-98308475D01*
X100138487Y-98176620D01*
X100160498Y-98249180D01*
X100219463Y-98359494D01*
X100298815Y-98456185D01*
X100395506Y-98535537D01*
X100505820Y-98594502D01*
X100625518Y-98630812D01*
X100750000Y-98643072D01*
X101314250Y-98640000D01*
X101473000Y-98481250D01*
X101473000Y-97282000D01*
X101727000Y-97282000D01*
X101727000Y-98481250D01*
X101885750Y-98640000D01*
X102450000Y-98643072D01*
X102574482Y-98630812D01*
X102694180Y-98594502D01*
X102804494Y-98535537D01*
X102901185Y-98456185D01*
X102980537Y-98359494D01*
X103039502Y-98249180D01*
X103075812Y-98129482D01*
X103088072Y-98005000D01*
X103085000Y-97440750D01*
X102926250Y-97282000D01*
X101727000Y-97282000D01*
X101473000Y-97282000D01*
X101453000Y-97282000D01*
X101453000Y-97028000D01*
X101473000Y-97028000D01*
X101473000Y-95828750D01*
X101727000Y-95828750D01*
X101727000Y-97028000D01*
X102926250Y-97028000D01*
X103085000Y-96869250D01*
X103088072Y-96305000D01*
X103075812Y-96180518D01*
X103039502Y-96060820D01*
X102980537Y-95950506D01*
X102901185Y-95853815D01*
X102804494Y-95774463D01*
X102694180Y-95715498D01*
X102574482Y-95679188D01*
X102450000Y-95666928D01*
X101885750Y-95670000D01*
X101727000Y-95828750D01*
X101473000Y-95828750D01*
X101314250Y-95670000D01*
X100750000Y-95666928D01*
X100625518Y-95679188D01*
X100505820Y-95715498D01*
X100395506Y-95774463D01*
X100298815Y-95853815D01*
X100219463Y-95950506D01*
X100160498Y-96060820D01*
X100138487Y-96133380D01*
X100006632Y-96001525D01*
X99763411Y-95839010D01*
X99493158Y-95727068D01*
X99206260Y-95670000D01*
X98913740Y-95670000D01*
X98626842Y-95727068D01*
X98356589Y-95839010D01*
X98113368Y-96001525D01*
X97906525Y-96208368D01*
X97744010Y-96451589D01*
X97632068Y-96721842D01*
X97575000Y-97008740D01*
X94665000Y-97008740D01*
X94665000Y-85717911D01*
X100030000Y-85717911D01*
X100030000Y-85902089D01*
X100065932Y-86082729D01*
X100136414Y-86252889D01*
X100205001Y-86355536D01*
X100205000Y-86957677D01*
X100201324Y-86995000D01*
X100205000Y-87032322D01*
X100205000Y-87032332D01*
X100215997Y-87143985D01*
X100259454Y-87287246D01*
X100330026Y-87419276D01*
X100369871Y-87467826D01*
X100424999Y-87535001D01*
X100454003Y-87558804D01*
X101946847Y-89051649D01*
X101970932Y-89172729D01*
X102041414Y-89342889D01*
X102143738Y-89496028D01*
X102273972Y-89626262D01*
X102427111Y-89728586D01*
X102597271Y-89799068D01*
X102777911Y-89835000D01*
X102962089Y-89835000D01*
X103142729Y-89799068D01*
X103312889Y-89728586D01*
X103466028Y-89626262D01*
X103596262Y-89496028D01*
X103698586Y-89342889D01*
X103769068Y-89172729D01*
X103805000Y-88992089D01*
X103805000Y-88807911D01*
X103769068Y-88627271D01*
X103698586Y-88457111D01*
X103596262Y-88303972D01*
X103466028Y-88173738D01*
X103312889Y-88071414D01*
X103142729Y-88000932D01*
X103021649Y-87976847D01*
X101725000Y-86680199D01*
X101725000Y-86355535D01*
X101793586Y-86252889D01*
X101864068Y-86082729D01*
X101900000Y-85902089D01*
X101900000Y-85717911D01*
X101864068Y-85537271D01*
X101793586Y-85367111D01*
X101691262Y-85213972D01*
X101561028Y-85083738D01*
X101407889Y-84981414D01*
X101237729Y-84910932D01*
X101057089Y-84875000D01*
X100872911Y-84875000D01*
X100692271Y-84910932D01*
X100522111Y-84981414D01*
X100368972Y-85083738D01*
X100238738Y-85213972D01*
X100136414Y-85367111D01*
X100065932Y-85537271D01*
X100030000Y-85717911D01*
X94665000Y-85717911D01*
X94665000Y-80840000D01*
X99493928Y-80840000D01*
X99506188Y-80964482D01*
X99542498Y-81084180D01*
X99601463Y-81194494D01*
X99680815Y-81291185D01*
X99777506Y-81370537D01*
X99887820Y-81429502D01*
X100007518Y-81465812D01*
X100132000Y-81478072D01*
X100521250Y-81475000D01*
X100680000Y-81316250D01*
X100680000Y-78867000D01*
X100934000Y-78867000D01*
X100934000Y-81316250D01*
X101092750Y-81475000D01*
X101482000Y-81478072D01*
X101606482Y-81465812D01*
X101726180Y-81429502D01*
X101836494Y-81370537D01*
X101933185Y-81291185D01*
X102012537Y-81194494D01*
X102071502Y-81084180D01*
X102107812Y-80964482D01*
X102120072Y-80840000D01*
X105143928Y-80840000D01*
X105156188Y-80964482D01*
X105192498Y-81084180D01*
X105251463Y-81194494D01*
X105330815Y-81291185D01*
X105427506Y-81370537D01*
X105537820Y-81429502D01*
X105657518Y-81465812D01*
X105782000Y-81478072D01*
X106171250Y-81475000D01*
X106330000Y-81316250D01*
X106330000Y-78867000D01*
X106584000Y-78867000D01*
X106584000Y-81316250D01*
X106742750Y-81475000D01*
X107132000Y-81478072D01*
X107256482Y-81465812D01*
X107376180Y-81429502D01*
X107486494Y-81370537D01*
X107583185Y-81291185D01*
X107662537Y-81194494D01*
X107721502Y-81084180D01*
X107757812Y-80964482D01*
X107770072Y-80840000D01*
X123496928Y-80840000D01*
X123509188Y-80964482D01*
X123545498Y-81084180D01*
X123604463Y-81194494D01*
X123683815Y-81291185D01*
X123780506Y-81370537D01*
X123890820Y-81429502D01*
X124010518Y-81465812D01*
X124135000Y-81478072D01*
X124524250Y-81475000D01*
X124683000Y-81316250D01*
X124683000Y-78867000D01*
X124937000Y-78867000D01*
X124937000Y-81316250D01*
X125095750Y-81475000D01*
X125485000Y-81478072D01*
X125609482Y-81465812D01*
X125729180Y-81429502D01*
X125839494Y-81370537D01*
X125936185Y-81291185D01*
X126015537Y-81194494D01*
X126074502Y-81084180D01*
X126110812Y-80964482D01*
X126123072Y-80840000D01*
X129146928Y-80840000D01*
X129159188Y-80964482D01*
X129195498Y-81084180D01*
X129254463Y-81194494D01*
X129333815Y-81291185D01*
X129430506Y-81370537D01*
X129540820Y-81429502D01*
X129660518Y-81465812D01*
X129785000Y-81478072D01*
X130174250Y-81475000D01*
X130333000Y-81316250D01*
X130333000Y-78867000D01*
X130587000Y-78867000D01*
X130587000Y-81316250D01*
X130745750Y-81475000D01*
X131135000Y-81478072D01*
X131259482Y-81465812D01*
X131379180Y-81429502D01*
X131489494Y-81370537D01*
X131586185Y-81291185D01*
X131665537Y-81194494D01*
X131724502Y-81084180D01*
X131760812Y-80964482D01*
X131773072Y-80840000D01*
X131770000Y-79025750D01*
X131611250Y-78867000D01*
X130587000Y-78867000D01*
X130333000Y-78867000D01*
X129308750Y-78867000D01*
X129150000Y-79025750D01*
X129146928Y-80840000D01*
X126123072Y-80840000D01*
X126120000Y-79025750D01*
X125961250Y-78867000D01*
X124937000Y-78867000D01*
X124683000Y-78867000D01*
X123658750Y-78867000D01*
X123500000Y-79025750D01*
X123496928Y-80840000D01*
X107770072Y-80840000D01*
X107767000Y-79025750D01*
X107608250Y-78867000D01*
X106584000Y-78867000D01*
X106330000Y-78867000D01*
X105305750Y-78867000D01*
X105147000Y-79025750D01*
X105143928Y-80840000D01*
X102120072Y-80840000D01*
X102117000Y-79025750D01*
X101958250Y-78867000D01*
X100934000Y-78867000D01*
X100680000Y-78867000D01*
X99655750Y-78867000D01*
X99497000Y-79025750D01*
X99493928Y-80840000D01*
X94665000Y-80840000D01*
X94665000Y-76885000D01*
X99494343Y-76885000D01*
X99497000Y-78454250D01*
G04 #@! TA.AperFunction,Conductor*
D19*
G36*
X99497000Y-78454250D02*
G01*
X99655750Y-78613000D01*
X100680000Y-78613000D01*
X100680000Y-78593000D01*
X100934000Y-78593000D01*
X100934000Y-78613000D01*
X101958250Y-78613000D01*
X102117000Y-78454250D01*
X102119657Y-76885000D01*
X105144343Y-76885000D01*
X105147000Y-78454250D01*
X105305750Y-78613000D01*
X106330000Y-78613000D01*
X106330000Y-78593000D01*
X106584000Y-78593000D01*
X106584000Y-78613000D01*
X107608250Y-78613000D01*
X107767000Y-78454250D01*
X107769657Y-76885000D01*
X123497343Y-76885000D01*
X123500000Y-78454250D01*
X123658750Y-78613000D01*
X124683000Y-78613000D01*
X124683000Y-78593000D01*
X124937000Y-78593000D01*
X124937000Y-78613000D01*
X125961250Y-78613000D01*
X126120000Y-78454250D01*
X126122657Y-76885000D01*
X129147343Y-76885000D01*
X129150000Y-78454250D01*
X129308750Y-78613000D01*
X130333000Y-78613000D01*
X130333000Y-78593000D01*
X130587000Y-78593000D01*
X130587000Y-78613000D01*
X131611250Y-78613000D01*
X131770000Y-78454250D01*
X131772657Y-76885000D01*
X137745000Y-76885000D01*
X137745001Y-118695000D01*
X94665000Y-118695000D01*
X94665000Y-116040000D01*
X97621928Y-116040000D01*
X97621928Y-117640000D01*
X97634188Y-117764482D01*
X97670498Y-117884180D01*
X97729463Y-117994494D01*
X97808815Y-118091185D01*
X97905506Y-118170537D01*
X98015820Y-118229502D01*
X98135518Y-118265812D01*
X98260000Y-118278072D01*
X99860000Y-118278072D01*
X99984482Y-118265812D01*
X100104180Y-118229502D01*
X100214494Y-118170537D01*
X100311185Y-118091185D01*
X100390537Y-117994494D01*
X100449502Y-117884180D01*
X100485812Y-117764482D01*
X100486643Y-117756039D01*
X100685241Y-117954637D01*
X100920273Y-118111680D01*
X101181426Y-118219853D01*
X101458665Y-118275000D01*
X101741335Y-118275000D01*
X102018574Y-118219853D01*
X102279727Y-118111680D01*
X102514759Y-117954637D01*
X102714637Y-117754759D01*
X102870000Y-117522241D01*
X103025363Y-117754759D01*
X103225241Y-117954637D01*
X103460273Y-118111680D01*
X103721426Y-118219853D01*
X103998665Y-118275000D01*
X104281335Y-118275000D01*
X104558574Y-118219853D01*
X104819727Y-118111680D01*
X105054759Y-117954637D01*
X105254637Y-117754759D01*
X105411680Y-117519727D01*
X105416067Y-117509135D01*
X105527615Y-117695131D01*
X105716586Y-117903519D01*
X105942580Y-118071037D01*
X106196913Y-118191246D01*
X106330961Y-118231904D01*
X106553000Y-118109915D01*
X106553000Y-116967000D01*
X106533000Y-116967000D01*
X106533000Y-116713000D01*
X106553000Y-116713000D01*
X106553000Y-115570085D01*
X106807000Y-115570085D01*
X106807000Y-116713000D01*
X106827000Y-116713000D01*
X106827000Y-116967000D01*
X106807000Y-116967000D01*
X106807000Y-118109915D01*
X107029039Y-118231904D01*
X107163087Y-118191246D01*
X107417420Y-118071037D01*
X107643414Y-117903519D01*
X107832385Y-117695131D01*
X107943933Y-117509135D01*
X107948320Y-117519727D01*
X108105363Y-117754759D01*
X108305241Y-117954637D01*
X108540273Y-118111680D01*
X108801426Y-118219853D01*
X109078665Y-118275000D01*
X109361335Y-118275000D01*
X109638574Y-118219853D01*
X109899727Y-118111680D01*
X110134759Y-117954637D01*
X110334637Y-117754759D01*
X110490000Y-117522241D01*
X110645363Y-117754759D01*
X110845241Y-117954637D01*
X111080273Y-118111680D01*
X111341426Y-118219853D01*
X111618665Y-118275000D01*
X111901335Y-118275000D01*
X112178574Y-118219853D01*
X112439727Y-118111680D01*
X112674759Y-117954637D01*
X112874637Y-117754759D01*
X113030000Y-117522241D01*
X113185363Y-117754759D01*
X113385241Y-117954637D01*
X113620273Y-118111680D01*
X113881426Y-118219853D01*
X114158665Y-118275000D01*
X114441335Y-118275000D01*
X114718574Y-118219853D01*
X114979727Y-118111680D01*
X115214759Y-117954637D01*
X115414637Y-117754759D01*
X115570000Y-117522241D01*
X115725363Y-117754759D01*
X115925241Y-117954637D01*
X116160273Y-118111680D01*
X116421426Y-118219853D01*
X116698665Y-118275000D01*
X116981335Y-118275000D01*
X117258574Y-118219853D01*
X117519727Y-118111680D01*
X117754759Y-117954637D01*
X117954637Y-117754759D01*
X118110000Y-117522241D01*
X118265363Y-117754759D01*
X118465241Y-117954637D01*
X118700273Y-118111680D01*
X118961426Y-118219853D01*
X119238665Y-118275000D01*
X119521335Y-118275000D01*
X119798574Y-118219853D01*
X120059727Y-118111680D01*
X120294759Y-117954637D01*
X120494637Y-117754759D01*
X120650000Y-117522241D01*
X120805363Y-117754759D01*
X121005241Y-117954637D01*
X121240273Y-118111680D01*
X121501426Y-118219853D01*
X121778665Y-118275000D01*
X122061335Y-118275000D01*
X122338574Y-118219853D01*
X122599727Y-118111680D01*
X122834759Y-117954637D01*
X123034637Y-117754759D01*
X123190000Y-117522241D01*
X123345363Y-117754759D01*
X123545241Y-117954637D01*
X123780273Y-118111680D01*
X124041426Y-118219853D01*
X124318665Y-118275000D01*
X124601335Y-118275000D01*
X124878574Y-118219853D01*
X125139727Y-118111680D01*
X125374759Y-117954637D01*
X125574637Y-117754759D01*
X125730000Y-117522241D01*
X125885363Y-117754759D01*
X126085241Y-117954637D01*
X126320273Y-118111680D01*
X126581426Y-118219853D01*
X126858665Y-118275000D01*
X127141335Y-118275000D01*
X127418574Y-118219853D01*
X127679727Y-118111680D01*
X127914759Y-117954637D01*
X128114637Y-117754759D01*
X128270000Y-117522241D01*
X128425363Y-117754759D01*
X128625241Y-117954637D01*
X128860273Y-118111680D01*
X129121426Y-118219853D01*
X129398665Y-118275000D01*
X129681335Y-118275000D01*
X129958574Y-118219853D01*
X130219727Y-118111680D01*
X130454759Y-117954637D01*
X130654637Y-117754759D01*
X130810000Y-117522241D01*
X130965363Y-117754759D01*
X131165241Y-117954637D01*
X131400273Y-118111680D01*
X131661426Y-118219853D01*
X131938665Y-118275000D01*
X132221335Y-118275000D01*
X132498574Y-118219853D01*
X132759727Y-118111680D01*
X132994759Y-117954637D01*
X133194637Y-117754759D01*
X133350000Y-117522241D01*
X133505363Y-117754759D01*
X133705241Y-117954637D01*
X133940273Y-118111680D01*
X134201426Y-118219853D01*
X134478665Y-118275000D01*
X134761335Y-118275000D01*
X135038574Y-118219853D01*
X135299727Y-118111680D01*
X135534759Y-117954637D01*
X135734637Y-117754759D01*
X135891680Y-117519727D01*
X135999853Y-117258574D01*
X136055000Y-116981335D01*
X136055000Y-116698665D01*
X135999853Y-116421426D01*
X135891680Y-116160273D01*
X135734637Y-115925241D01*
X135534759Y-115725363D01*
X135299727Y-115568320D01*
X135038574Y-115460147D01*
X134761335Y-115405000D01*
X134478665Y-115405000D01*
X134201426Y-115460147D01*
X133940273Y-115568320D01*
X133705241Y-115725363D01*
X133505363Y-115925241D01*
X133350000Y-116157759D01*
X133194637Y-115925241D01*
X132994759Y-115725363D01*
X132759727Y-115568320D01*
X132498574Y-115460147D01*
X132221335Y-115405000D01*
X131938665Y-115405000D01*
X131661426Y-115460147D01*
X131400273Y-115568320D01*
X131165241Y-115725363D01*
X130965363Y-115925241D01*
X130810000Y-116157759D01*
X130654637Y-115925241D01*
X130454759Y-115725363D01*
X130219727Y-115568320D01*
X129958574Y-115460147D01*
X129681335Y-115405000D01*
X129398665Y-115405000D01*
X129121426Y-115460147D01*
X128860273Y-115568320D01*
X128625241Y-115725363D01*
X128425363Y-115925241D01*
X128270000Y-116157759D01*
X128114637Y-115925241D01*
X127914759Y-115725363D01*
X127679727Y-115568320D01*
X127418574Y-115460147D01*
X127141335Y-115405000D01*
X126858665Y-115405000D01*
X126581426Y-115460147D01*
X126320273Y-115568320D01*
X126085241Y-115725363D01*
X125885363Y-115925241D01*
X125730000Y-116157759D01*
X125574637Y-115925241D01*
X125374759Y-115725363D01*
X125139727Y-115568320D01*
X124878574Y-115460147D01*
X124601335Y-115405000D01*
X124318665Y-115405000D01*
X124041426Y-115460147D01*
X123780273Y-115568320D01*
X123545241Y-115725363D01*
X123345363Y-115925241D01*
X123190000Y-116157759D01*
X123034637Y-115925241D01*
X122834759Y-115725363D01*
X122599727Y-115568320D01*
X122338574Y-115460147D01*
X122061335Y-115405000D01*
X121778665Y-115405000D01*
X121501426Y-115460147D01*
X121240273Y-115568320D01*
X121005241Y-115725363D01*
X120805363Y-115925241D01*
X120650000Y-116157759D01*
X120494637Y-115925241D01*
X120294759Y-115725363D01*
X120059727Y-115568320D01*
X119798574Y-115460147D01*
X119521335Y-115405000D01*
X119238665Y-115405000D01*
X118961426Y-115460147D01*
X118700273Y-115568320D01*
X118465241Y-115725363D01*
X118265363Y-115925241D01*
X118110000Y-116157759D01*
X117954637Y-115925241D01*
X117754759Y-115725363D01*
X117519727Y-115568320D01*
X117258574Y-115460147D01*
X116981335Y-115405000D01*
X116698665Y-115405000D01*
X116421426Y-115460147D01*
X116160273Y-115568320D01*
X115925241Y-115725363D01*
X115725363Y-115925241D01*
X115570000Y-116157759D01*
X115414637Y-115925241D01*
X115214759Y-115725363D01*
X114979727Y-115568320D01*
X114718574Y-115460147D01*
X114441335Y-115405000D01*
X114158665Y-115405000D01*
X113881426Y-115460147D01*
X113620273Y-115568320D01*
X113385241Y-115725363D01*
X113185363Y-115925241D01*
X113030000Y-116157759D01*
X112874637Y-115925241D01*
X112674759Y-115725363D01*
X112439727Y-115568320D01*
X112178574Y-115460147D01*
X111901335Y-115405000D01*
X111618665Y-115405000D01*
X111341426Y-115460147D01*
X111080273Y-115568320D01*
X110845241Y-115725363D01*
X110645363Y-115925241D01*
X110490000Y-116157759D01*
X110334637Y-115925241D01*
X110134759Y-115725363D01*
X109899727Y-115568320D01*
X109638574Y-115460147D01*
X109361335Y-115405000D01*
X109078665Y-115405000D01*
X108801426Y-115460147D01*
X108540273Y-115568320D01*
X108305241Y-115725363D01*
X108105363Y-115925241D01*
X107948320Y-116160273D01*
X107943933Y-116170865D01*
X107832385Y-115984869D01*
X107643414Y-115776481D01*
X107417420Y-115608963D01*
X107163087Y-115488754D01*
X107029039Y-115448096D01*
X106807000Y-115570085D01*
X106553000Y-115570085D01*
X106330961Y-115448096D01*
X106196913Y-115488754D01*
X105942580Y-115608963D01*
X105716586Y-115776481D01*
X105527615Y-115984869D01*
X105416067Y-116170865D01*
X105411680Y-116160273D01*
X105254637Y-115925241D01*
X105054759Y-115725363D01*
X104819727Y-115568320D01*
X104558574Y-115460147D01*
X104281335Y-115405000D01*
X103998665Y-115405000D01*
X103721426Y-115460147D01*
X103460273Y-115568320D01*
X103225241Y-115725363D01*
X103025363Y-115925241D01*
X102870000Y-116157759D01*
X102714637Y-115925241D01*
X102514759Y-115725363D01*
X102279727Y-115568320D01*
X102018574Y-115460147D01*
X101741335Y-115405000D01*
X101458665Y-115405000D01*
X101181426Y-115460147D01*
X100920273Y-115568320D01*
X100685241Y-115725363D01*
X100486643Y-115923961D01*
X100485812Y-115915518D01*
X100449502Y-115795820D01*
X100390537Y-115685506D01*
X100311185Y-115588815D01*
X100214494Y-115509463D01*
X100104180Y-115450498D01*
X99984482Y-115414188D01*
X99860000Y-115401928D01*
X98260000Y-115401928D01*
X98135518Y-115414188D01*
X98015820Y-115450498D01*
X97905506Y-115509463D01*
X97808815Y-115588815D01*
X97729463Y-115685506D01*
X97670498Y-115795820D01*
X97634188Y-115915518D01*
X97621928Y-116040000D01*
X94665000Y-116040000D01*
X94665000Y-97008740D01*
X97575000Y-97008740D01*
X97575000Y-97301260D01*
X97632068Y-97588158D01*
X97744010Y-97858411D01*
X97906525Y-98101632D01*
X98113368Y-98308475D01*
X98175000Y-98349656D01*
X98175001Y-100465478D01*
X98145241Y-100485363D01*
X97945363Y-100685241D01*
X97788320Y-100920273D01*
X97680147Y-101181426D01*
X97625000Y-101458665D01*
X97625000Y-101741335D01*
X97680147Y-102018574D01*
X97788320Y-102279727D01*
X97945363Y-102514759D01*
X98145241Y-102714637D01*
X98380273Y-102871680D01*
X98641426Y-102979853D01*
X98918665Y-103035000D01*
X99201335Y-103035000D01*
X99478574Y-102979853D01*
X99739727Y-102871680D01*
X99974759Y-102714637D01*
X100174637Y-102514759D01*
X100331680Y-102279727D01*
X100336067Y-102269135D01*
X100447615Y-102455131D01*
X100636586Y-102663519D01*
X100862580Y-102831037D01*
X101116913Y-102951246D01*
X101250961Y-102991904D01*
X101473000Y-102869915D01*
X101473000Y-101727000D01*
X101453000Y-101727000D01*
X101453000Y-101473000D01*
X101473000Y-101473000D01*
X101473000Y-100330085D01*
X101727000Y-100330085D01*
X101727000Y-101473000D01*
X101747000Y-101473000D01*
X101747000Y-101727000D01*
X101727000Y-101727000D01*
X101727000Y-102869915D01*
X101949039Y-102991904D01*
X102083087Y-102951246D01*
X102337420Y-102831037D01*
X102563414Y-102663519D01*
X102752385Y-102455131D01*
X102863933Y-102269135D01*
X102868320Y-102279727D01*
X103025363Y-102514759D01*
X103225241Y-102714637D01*
X103460273Y-102871680D01*
X103721426Y-102979853D01*
X103998665Y-103035000D01*
X104281335Y-103035000D01*
X104558574Y-102979853D01*
X104819727Y-102871680D01*
X105054759Y-102714637D01*
X105254637Y-102514759D01*
X105410000Y-102282241D01*
X105565363Y-102514759D01*
X105765241Y-102714637D01*
X106000273Y-102871680D01*
X106261426Y-102979853D01*
X106538665Y-103035000D01*
X106821335Y-103035000D01*
X107098574Y-102979853D01*
X107359727Y-102871680D01*
X107594759Y-102714637D01*
X107794637Y-102514759D01*
X107950000Y-102282241D01*
X108105363Y-102514759D01*
X108305241Y-102714637D01*
X108540273Y-102871680D01*
X108801426Y-102979853D01*
X109078665Y-103035000D01*
X109361335Y-103035000D01*
X109638574Y-102979853D01*
X109899727Y-102871680D01*
X110134759Y-102714637D01*
X110334637Y-102514759D01*
X110490000Y-102282241D01*
X110645363Y-102514759D01*
X110845241Y-102714637D01*
X111080273Y-102871680D01*
X111341426Y-102979853D01*
X111618665Y-103035000D01*
X111901335Y-103035000D01*
X112178574Y-102979853D01*
X112439727Y-102871680D01*
X112674759Y-102714637D01*
X112874637Y-102514759D01*
X113030000Y-102282241D01*
X113185363Y-102514759D01*
X113385241Y-102714637D01*
X113620273Y-102871680D01*
X113881426Y-102979853D01*
X114158665Y-103035000D01*
X114441335Y-103035000D01*
X114718574Y-102979853D01*
X114979727Y-102871680D01*
X115214759Y-102714637D01*
X115414637Y-102514759D01*
X115570000Y-102282241D01*
X115725363Y-102514759D01*
X115925241Y-102714637D01*
X116160273Y-102871680D01*
X116421426Y-102979853D01*
X116698665Y-103035000D01*
X116981335Y-103035000D01*
X117258574Y-102979853D01*
X117519727Y-102871680D01*
X117754759Y-102714637D01*
X117954637Y-102514759D01*
X118110000Y-102282241D01*
X118265363Y-102514759D01*
X118465241Y-102714637D01*
X118700273Y-102871680D01*
X118961426Y-102979853D01*
X119238665Y-103035000D01*
X119521335Y-103035000D01*
X119798574Y-102979853D01*
X120059727Y-102871680D01*
X120294759Y-102714637D01*
X120494637Y-102514759D01*
X120650000Y-102282241D01*
X120805363Y-102514759D01*
X121005241Y-102714637D01*
X121240273Y-102871680D01*
X121501426Y-102979853D01*
X121778665Y-103035000D01*
X122061335Y-103035000D01*
X122338574Y-102979853D01*
X122599727Y-102871680D01*
X122834759Y-102714637D01*
X123034637Y-102514759D01*
X123190000Y-102282241D01*
X123345363Y-102514759D01*
X123545241Y-102714637D01*
X123780273Y-102871680D01*
X124041426Y-102979853D01*
X124318665Y-103035000D01*
X124601335Y-103035000D01*
X124878574Y-102979853D01*
X125139727Y-102871680D01*
X125374759Y-102714637D01*
X125574637Y-102514759D01*
X125730000Y-102282241D01*
X125885363Y-102514759D01*
X126085241Y-102714637D01*
X126320273Y-102871680D01*
X126581426Y-102979853D01*
X126858665Y-103035000D01*
X127141335Y-103035000D01*
X127418574Y-102979853D01*
X127679727Y-102871680D01*
X127914759Y-102714637D01*
X128114637Y-102514759D01*
X128270000Y-102282241D01*
X128425363Y-102514759D01*
X128625241Y-102714637D01*
X128860273Y-102871680D01*
X129121426Y-102979853D01*
X129398665Y-103035000D01*
X129681335Y-103035000D01*
X129958574Y-102979853D01*
X130219727Y-102871680D01*
X130454759Y-102714637D01*
X130654637Y-102514759D01*
X130810000Y-102282241D01*
X130965363Y-102514759D01*
X131165241Y-102714637D01*
X131400273Y-102871680D01*
X131661426Y-102979853D01*
X131938665Y-103035000D01*
X132221335Y-103035000D01*
X132498574Y-102979853D01*
X132759727Y-102871680D01*
X132994759Y-102714637D01*
X133194637Y-102514759D01*
X133350000Y-102282241D01*
X133505363Y-102514759D01*
X133705241Y-102714637D01*
X133940273Y-102871680D01*
X134201426Y-102979853D01*
X134478665Y-103035000D01*
X134761335Y-103035000D01*
X135038574Y-102979853D01*
X135299727Y-102871680D01*
X135534759Y-102714637D01*
X135734637Y-102514759D01*
X135891680Y-102279727D01*
X135999853Y-102018574D01*
X136055000Y-101741335D01*
X136055000Y-101458665D01*
X135999853Y-101181426D01*
X135891680Y-100920273D01*
X135734637Y-100685241D01*
X135534759Y-100485363D01*
X135299727Y-100328320D01*
X135038574Y-100220147D01*
X134761335Y-100165000D01*
X134478665Y-100165000D01*
X134201426Y-100220147D01*
X133940273Y-100328320D01*
X133705241Y-100485363D01*
X133505363Y-100685241D01*
X133350000Y-100917759D01*
X133194637Y-100685241D01*
X132994759Y-100485363D01*
X132759727Y-100328320D01*
X132498574Y-100220147D01*
X132221335Y-100165000D01*
X131938665Y-100165000D01*
X131661426Y-100220147D01*
X131400273Y-100328320D01*
X131165241Y-100485363D01*
X130965363Y-100685241D01*
X130810000Y-100917759D01*
X130654637Y-100685241D01*
X130454759Y-100485363D01*
X130219727Y-100328320D01*
X130178975Y-100311440D01*
X130279411Y-100189059D01*
X130361589Y-100035313D01*
X130412195Y-99868490D01*
X130429282Y-99695000D01*
X130425000Y-99651523D01*
X130425000Y-98731692D01*
X130439068Y-98697729D01*
X130475000Y-98517089D01*
X130475000Y-98332911D01*
X130439068Y-98152271D01*
X130368586Y-97982111D01*
X130266262Y-97828972D01*
X130136028Y-97698738D01*
X129982889Y-97596414D01*
X129812729Y-97525932D01*
X129632089Y-97490000D01*
X129447911Y-97490000D01*
X129267271Y-97525932D01*
X129097111Y-97596414D01*
X128943972Y-97698738D01*
X128813738Y-97828972D01*
X128711414Y-97982111D01*
X128640932Y-98152271D01*
X128605000Y-98332911D01*
X128605000Y-98517089D01*
X128640932Y-98697729D01*
X128655001Y-98731694D01*
X128655001Y-98810000D01*
X112645000Y-98810000D01*
X112645000Y-98349656D01*
X112706632Y-98308475D01*
X112913475Y-98101632D01*
X113030000Y-97927240D01*
X113146525Y-98101632D01*
X113353368Y-98308475D01*
X113596589Y-98470990D01*
X113866842Y-98582932D01*
X114153740Y-98640000D01*
X114446260Y-98640000D01*
X114733158Y-98582932D01*
X115003411Y-98470990D01*
X115246632Y-98308475D01*
X115453475Y-98101632D01*
X115570000Y-97927240D01*
X115686525Y-98101632D01*
X115893368Y-98308475D01*
X116136589Y-98470990D01*
X116406842Y-98582932D01*
X116693740Y-98640000D01*
X116986260Y-98640000D01*
X117273158Y-98582932D01*
X117543411Y-98470990D01*
X117786632Y-98308475D01*
X117993475Y-98101632D01*
X118155990Y-97858411D01*
X118267932Y-97588158D01*
X118325000Y-97301260D01*
X118325000Y-97008740D01*
X118267932Y-96721842D01*
X118155990Y-96451589D01*
X117993475Y-96208368D01*
X117786632Y-96001525D01*
X117543411Y-95839010D01*
X117273158Y-95727068D01*
X116986260Y-95670000D01*
X116693740Y-95670000D01*
X116406842Y-95727068D01*
X116136589Y-95839010D01*
X115893368Y-96001525D01*
X115686525Y-96208368D01*
X115570000Y-96382760D01*
X115453475Y-96208368D01*
X115246632Y-96001525D01*
X115003411Y-95839010D01*
X114733158Y-95727068D01*
X114446260Y-95670000D01*
X114153740Y-95670000D01*
X113866842Y-95727068D01*
X113596589Y-95839010D01*
X113353368Y-96001525D01*
X113146525Y-96208368D01*
X113030000Y-96382760D01*
X112913475Y-96208368D01*
X112706632Y-96001525D01*
X112463411Y-95839010D01*
X112193158Y-95727068D01*
X111906260Y-95670000D01*
X111613740Y-95670000D01*
X111326842Y-95727068D01*
X111056589Y-95839010D01*
X110813368Y-96001525D01*
X110681513Y-96133380D01*
X110659502Y-96060820D01*
X110600537Y-95950506D01*
X110521185Y-95853815D01*
X110424494Y-95774463D01*
X110314180Y-95715498D01*
X110194482Y-95679188D01*
X110070000Y-95666928D01*
X109505750Y-95670000D01*
X109347000Y-95828750D01*
X109347000Y-97028000D01*
X109367000Y-97028000D01*
X109367000Y-97282000D01*
X109347000Y-97282000D01*
X109347000Y-98481250D01*
X109505750Y-98640000D01*
X110070000Y-98643072D01*
X110194482Y-98630812D01*
X110314180Y-98594502D01*
X110424494Y-98535537D01*
X110521185Y-98456185D01*
X110600537Y-98359494D01*
X110659502Y-98249180D01*
X110681513Y-98176620D01*
X110813368Y-98308475D01*
X110875000Y-98349656D01*
X110875001Y-98810000D01*
X107565000Y-98810000D01*
X107565000Y-98005000D01*
X107731928Y-98005000D01*
X107744188Y-98129482D01*
X107780498Y-98249180D01*
X107839463Y-98359494D01*
X107918815Y-98456185D01*
X108015506Y-98535537D01*
X108125820Y-98594502D01*
X108245518Y-98630812D01*
X108370000Y-98643072D01*
X108934250Y-98640000D01*
X109093000Y-98481250D01*
X109093000Y-97282000D01*
X107893750Y-97282000D01*
X107735000Y-97440750D01*
X107731928Y-98005000D01*
X107565000Y-98005000D01*
X107565000Y-96305000D01*
X107731928Y-96305000D01*
X107735000Y-96869250D01*
X107893750Y-97028000D01*
X109093000Y-97028000D01*
X109093000Y-95828750D01*
X108934250Y-95670000D01*
X108370000Y-95666928D01*
X108245518Y-95679188D01*
X108125820Y-95715498D01*
X108015506Y-95774463D01*
X107918815Y-95853815D01*
X107839463Y-95950506D01*
X107780498Y-96060820D01*
X107744188Y-96180518D01*
X107731928Y-96305000D01*
X107565000Y-96305000D01*
X107565000Y-92381692D01*
X107579068Y-92347729D01*
X107615000Y-92167089D01*
X107615000Y-91982911D01*
X107579068Y-91802271D01*
X107508586Y-91632111D01*
X107406262Y-91478972D01*
X107276028Y-91348738D01*
X107122889Y-91246414D01*
X106952729Y-91175932D01*
X106772089Y-91140000D01*
X106587911Y-91140000D01*
X106407271Y-91175932D01*
X106237111Y-91246414D01*
X106083972Y-91348738D01*
X105953738Y-91478972D01*
X105851414Y-91632111D01*
X105780932Y-91802271D01*
X105745000Y-91982911D01*
X105745000Y-92167089D01*
X105780932Y-92347729D01*
X105795001Y-92381695D01*
X105795000Y-95293476D01*
X105795001Y-95293486D01*
X105795000Y-99651523D01*
X105790718Y-99695000D01*
X105795001Y-99738486D01*
X105795001Y-100465478D01*
X105765241Y-100485363D01*
X105565363Y-100685241D01*
X105410000Y-100917759D01*
X105254637Y-100685241D01*
X105054759Y-100485363D01*
X104819727Y-100328320D01*
X104558574Y-100220147D01*
X104281335Y-100165000D01*
X103998665Y-100165000D01*
X103721426Y-100220147D01*
X103460273Y-100328320D01*
X103225241Y-100485363D01*
X103025363Y-100685241D01*
X102868320Y-100920273D01*
X102863933Y-100930865D01*
X102752385Y-100744869D01*
X102563414Y-100536481D01*
X102337420Y-100368963D01*
X102083087Y-100248754D01*
X101949039Y-100208096D01*
X101727000Y-100330085D01*
X101473000Y-100330085D01*
X101250961Y-100208096D01*
X101116913Y-100248754D01*
X100862580Y-100368963D01*
X100636586Y-100536481D01*
X100447615Y-100744869D01*
X100336067Y-100930865D01*
X100331680Y-100920273D01*
X100174637Y-100685241D01*
X99974759Y-100485363D01*
X99945000Y-100465479D01*
X99945000Y-98349656D01*
X100006632Y-98308475D01*
X100138487Y-98176620D01*
X100160498Y-98249180D01*
X100219463Y-98359494D01*
X100298815Y-98456185D01*
X100395506Y-98535537D01*
X100505820Y-98594502D01*
X100625518Y-98630812D01*
X100750000Y-98643072D01*
X101314250Y-98640000D01*
X101473000Y-98481250D01*
X101473000Y-97282000D01*
X101727000Y-97282000D01*
X101727000Y-98481250D01*
X101885750Y-98640000D01*
X102450000Y-98643072D01*
X102574482Y-98630812D01*
X102694180Y-98594502D01*
X102804494Y-98535537D01*
X102901185Y-98456185D01*
X102980537Y-98359494D01*
X103039502Y-98249180D01*
X103075812Y-98129482D01*
X103088072Y-98005000D01*
X103085000Y-97440750D01*
X102926250Y-97282000D01*
X101727000Y-97282000D01*
X101473000Y-97282000D01*
X101453000Y-97282000D01*
X101453000Y-97028000D01*
X101473000Y-97028000D01*
X101473000Y-95828750D01*
X101727000Y-95828750D01*
X101727000Y-97028000D01*
X102926250Y-97028000D01*
X103085000Y-96869250D01*
X103088072Y-96305000D01*
X103075812Y-96180518D01*
X103039502Y-96060820D01*
X102980537Y-95950506D01*
X102901185Y-95853815D01*
X102804494Y-95774463D01*
X102694180Y-95715498D01*
X102574482Y-95679188D01*
X102450000Y-95666928D01*
X101885750Y-95670000D01*
X101727000Y-95828750D01*
X101473000Y-95828750D01*
X101314250Y-95670000D01*
X100750000Y-95666928D01*
X100625518Y-95679188D01*
X100505820Y-95715498D01*
X100395506Y-95774463D01*
X100298815Y-95853815D01*
X100219463Y-95950506D01*
X100160498Y-96060820D01*
X100138487Y-96133380D01*
X100006632Y-96001525D01*
X99763411Y-95839010D01*
X99493158Y-95727068D01*
X99206260Y-95670000D01*
X98913740Y-95670000D01*
X98626842Y-95727068D01*
X98356589Y-95839010D01*
X98113368Y-96001525D01*
X97906525Y-96208368D01*
X97744010Y-96451589D01*
X97632068Y-96721842D01*
X97575000Y-97008740D01*
X94665000Y-97008740D01*
X94665000Y-85717911D01*
X100030000Y-85717911D01*
X100030000Y-85902089D01*
X100065932Y-86082729D01*
X100136414Y-86252889D01*
X100205001Y-86355536D01*
X100205000Y-86957677D01*
X100201324Y-86995000D01*
X100205000Y-87032322D01*
X100205000Y-87032332D01*
X100215997Y-87143985D01*
X100259454Y-87287246D01*
X100330026Y-87419276D01*
X100369871Y-87467826D01*
X100424999Y-87535001D01*
X100454003Y-87558804D01*
X101946847Y-89051649D01*
X101970932Y-89172729D01*
X102041414Y-89342889D01*
X102143738Y-89496028D01*
X102273972Y-89626262D01*
X102427111Y-89728586D01*
X102597271Y-89799068D01*
X102777911Y-89835000D01*
X102962089Y-89835000D01*
X103142729Y-89799068D01*
X103312889Y-89728586D01*
X103466028Y-89626262D01*
X103596262Y-89496028D01*
X103698586Y-89342889D01*
X103769068Y-89172729D01*
X103805000Y-88992089D01*
X103805000Y-88807911D01*
X103769068Y-88627271D01*
X103698586Y-88457111D01*
X103596262Y-88303972D01*
X103466028Y-88173738D01*
X103312889Y-88071414D01*
X103142729Y-88000932D01*
X103021649Y-87976847D01*
X101725000Y-86680199D01*
X101725000Y-86355535D01*
X101793586Y-86252889D01*
X101864068Y-86082729D01*
X101900000Y-85902089D01*
X101900000Y-85717911D01*
X101864068Y-85537271D01*
X101793586Y-85367111D01*
X101691262Y-85213972D01*
X101561028Y-85083738D01*
X101407889Y-84981414D01*
X101237729Y-84910932D01*
X101057089Y-84875000D01*
X100872911Y-84875000D01*
X100692271Y-84910932D01*
X100522111Y-84981414D01*
X100368972Y-85083738D01*
X100238738Y-85213972D01*
X100136414Y-85367111D01*
X100065932Y-85537271D01*
X100030000Y-85717911D01*
X94665000Y-85717911D01*
X94665000Y-80840000D01*
X99493928Y-80840000D01*
X99506188Y-80964482D01*
X99542498Y-81084180D01*
X99601463Y-81194494D01*
X99680815Y-81291185D01*
X99777506Y-81370537D01*
X99887820Y-81429502D01*
X100007518Y-81465812D01*
X100132000Y-81478072D01*
X100521250Y-81475000D01*
X100680000Y-81316250D01*
X100680000Y-78867000D01*
X100934000Y-78867000D01*
X100934000Y-81316250D01*
X101092750Y-81475000D01*
X101482000Y-81478072D01*
X101606482Y-81465812D01*
X101726180Y-81429502D01*
X101836494Y-81370537D01*
X101933185Y-81291185D01*
X102012537Y-81194494D01*
X102071502Y-81084180D01*
X102107812Y-80964482D01*
X102120072Y-80840000D01*
X105143928Y-80840000D01*
X105156188Y-80964482D01*
X105192498Y-81084180D01*
X105251463Y-81194494D01*
X105330815Y-81291185D01*
X105427506Y-81370537D01*
X105537820Y-81429502D01*
X105657518Y-81465812D01*
X105782000Y-81478072D01*
X106171250Y-81475000D01*
X106330000Y-81316250D01*
X106330000Y-78867000D01*
X106584000Y-78867000D01*
X106584000Y-81316250D01*
X106742750Y-81475000D01*
X107132000Y-81478072D01*
X107256482Y-81465812D01*
X107376180Y-81429502D01*
X107486494Y-81370537D01*
X107583185Y-81291185D01*
X107662537Y-81194494D01*
X107721502Y-81084180D01*
X107757812Y-80964482D01*
X107770072Y-80840000D01*
X123496928Y-80840000D01*
X123509188Y-80964482D01*
X123545498Y-81084180D01*
X123604463Y-81194494D01*
X123683815Y-81291185D01*
X123780506Y-81370537D01*
X123890820Y-81429502D01*
X124010518Y-81465812D01*
X124135000Y-81478072D01*
X124524250Y-81475000D01*
X124683000Y-81316250D01*
X124683000Y-78867000D01*
X124937000Y-78867000D01*
X124937000Y-81316250D01*
X125095750Y-81475000D01*
X125485000Y-81478072D01*
X125609482Y-81465812D01*
X125729180Y-81429502D01*
X125839494Y-81370537D01*
X125936185Y-81291185D01*
X126015537Y-81194494D01*
X126074502Y-81084180D01*
X126110812Y-80964482D01*
X126123072Y-80840000D01*
X129146928Y-80840000D01*
X129159188Y-80964482D01*
X129195498Y-81084180D01*
X129254463Y-81194494D01*
X129333815Y-81291185D01*
X129430506Y-81370537D01*
X129540820Y-81429502D01*
X129660518Y-81465812D01*
X129785000Y-81478072D01*
X130174250Y-81475000D01*
X130333000Y-81316250D01*
X130333000Y-78867000D01*
X130587000Y-78867000D01*
X130587000Y-81316250D01*
X130745750Y-81475000D01*
X131135000Y-81478072D01*
X131259482Y-81465812D01*
X131379180Y-81429502D01*
X131489494Y-81370537D01*
X131586185Y-81291185D01*
X131665537Y-81194494D01*
X131724502Y-81084180D01*
X131760812Y-80964482D01*
X131773072Y-80840000D01*
X131770000Y-79025750D01*
X131611250Y-78867000D01*
X130587000Y-78867000D01*
X130333000Y-78867000D01*
X129308750Y-78867000D01*
X129150000Y-79025750D01*
X129146928Y-80840000D01*
X126123072Y-80840000D01*
X126120000Y-79025750D01*
X125961250Y-78867000D01*
X124937000Y-78867000D01*
X124683000Y-78867000D01*
X123658750Y-78867000D01*
X123500000Y-79025750D01*
X123496928Y-80840000D01*
X107770072Y-80840000D01*
X107767000Y-79025750D01*
X107608250Y-78867000D01*
X106584000Y-78867000D01*
X106330000Y-78867000D01*
X105305750Y-78867000D01*
X105147000Y-79025750D01*
X105143928Y-80840000D01*
X102120072Y-80840000D01*
X102117000Y-79025750D01*
X101958250Y-78867000D01*
X100934000Y-78867000D01*
X100680000Y-78867000D01*
X99655750Y-78867000D01*
X99497000Y-79025750D01*
X99493928Y-80840000D01*
X94665000Y-80840000D01*
X94665000Y-76885000D01*
X99494343Y-76885000D01*
X99497000Y-78454250D01*
G37*
G04 #@! TD.AperFunction*
M02*
