G04 #@! TF.GenerationSoftware,KiCad,Pcbnew,5.1.9+dfsg1-1+deb11u1*
G04 #@! TF.CreationDate,2023-03-16T17:17:06+02:00*
G04 #@! TF.ProjectId,power_meter,706f7765-725f-46d6-9574-65722e6b6963,rev?*
G04 #@! TF.SameCoordinates,Original*
G04 #@! TF.FileFunction,Soldermask,Bot*
G04 #@! TF.FilePolarity,Negative*
%FSLAX46Y46*%
G04 Gerber Fmt 4.6, Leading zero omitted, Abs format (unit mm)*
G04 Created by KiCad (PCBNEW 5.1.9+dfsg1-1+deb11u1) date 2023-03-16 17:17:06*
%MOMM*%
%LPD*%
G01*
G04 APERTURE LIST*
%ADD10R,1.600000X1.600000*%
%ADD11O,1.600000X1.600000*%
%ADD12R,1.700000X1.700000*%
%ADD13O,1.700000X1.700000*%
%ADD14R,1.350000X4.200000*%
G04 APERTURE END LIST*
D10*
X99060000Y-116840000D03*
D11*
X132080000Y-101600000D03*
X101600000Y-116840000D03*
X129540000Y-101600000D03*
X104140000Y-116840000D03*
X127000000Y-101600000D03*
X106680000Y-116840000D03*
X124460000Y-101600000D03*
X109220000Y-116840000D03*
X121920000Y-101600000D03*
X111760000Y-116840000D03*
X119380000Y-101600000D03*
X114300000Y-116840000D03*
X116840000Y-101600000D03*
X116840000Y-116840000D03*
X114300000Y-101600000D03*
X119380000Y-116840000D03*
X111760000Y-101600000D03*
X121920000Y-116840000D03*
X109220000Y-101600000D03*
X124460000Y-116840000D03*
X106680000Y-101600000D03*
X127000000Y-116840000D03*
X104140000Y-101600000D03*
X129540000Y-116840000D03*
X101600000Y-101600000D03*
X132080000Y-116840000D03*
X99060000Y-101600000D03*
X134620000Y-116840000D03*
X134620000Y-101600000D03*
D12*
X101600000Y-97155000D03*
D13*
X99060000Y-97155000D03*
D12*
X109220000Y-97155000D03*
D13*
X111760000Y-97155000D03*
X114300000Y-97155000D03*
X116840000Y-97155000D03*
D14*
X124810000Y-78740000D03*
X130460000Y-78740000D03*
X106457000Y-78740000D03*
X100807000Y-78740000D03*
M02*
